<mxfile host="app.diagrams.net" modified="2023-11-27T22:01:12.766Z" agent="Mozilla/5.0 (Windows NT 10.0; Win64; x64; rv:120.0) Gecko/20100101 Firefox/120.0" etag="4LJ4DQVvMLTw07voIkFm" version="22.1.4" type="device">
  <diagram name="Page-1" id="I_ITAYTqiXLA-o0gzLNO">
    <mxGraphModel dx="1913" dy="1100" grid="0" gridSize="10" guides="1" tooltips="1" connect="1" arrows="1" fold="1" page="0" pageScale="1" pageWidth="850" pageHeight="1100" background="#616161" math="0" shadow="0">
      <root>
        <mxCell id="0" />
        <mxCell id="1" parent="0" />
        <mxCell id="MT3VQ3Qza3Scs-Q398Xu-108" value="" style="rounded=0;whiteSpace=wrap;html=1;labelBackgroundColor=none;fillColor=#182E3E;strokeColor=#FFFFFF;fontColor=#FFFFFF;" parent="1" vertex="1">
          <mxGeometry x="-3.16" y="-125" width="1205" height="796" as="geometry" />
        </mxCell>
        <mxCell id="zvgNvQxq_wlNGf-tIKfd-10" value="" style="rounded=0;whiteSpace=wrap;html=1;labelBackgroundColor=none;fillColor=#182E3E;strokeColor=#FFFFFF;fontColor=#FFFFFF;" parent="1" vertex="1">
          <mxGeometry x="396" y="280" width="310.03" height="312.5" as="geometry" />
        </mxCell>
        <mxCell id="f5ZKmu7FJWozqvkBw2zf-3" value="" style="rounded=0;whiteSpace=wrap;html=1;labelBackgroundColor=none;fillColor=#182E3E;strokeColor=#FFFFFF;fontColor=#FFFFFF;" vertex="1" parent="1">
          <mxGeometry x="415.51" y="322.5" width="271.02" height="227.5" as="geometry" />
        </mxCell>
        <mxCell id="MT3VQ3Qza3Scs-Q398Xu-38" value="" style="rounded=0;whiteSpace=wrap;html=1;fillColor=#182E3E;labelBackgroundColor=none;strokeColor=#FFFFFF;fontColor=#FFFFFF;" parent="1" vertex="1">
          <mxGeometry x="433.28" y="373.5" width="230" height="142.5" as="geometry" />
        </mxCell>
        <mxCell id="zvgNvQxq_wlNGf-tIKfd-51" value="" style="rounded=0;whiteSpace=wrap;html=1;labelBackgroundColor=none;fillColor=#182E3E;strokeColor=#FFFFFF;fontColor=#FFFFFF;" parent="1" vertex="1">
          <mxGeometry x="614.89" y="-78.61" width="379.06" height="322" as="geometry" />
        </mxCell>
        <mxCell id="zvgNvQxq_wlNGf-tIKfd-21" value="" style="rounded=0;whiteSpace=wrap;html=1;labelBackgroundColor=none;fillColor=#182E3E;strokeColor=#FFFFFF;fontColor=#FFFFFF;" parent="1" vertex="1">
          <mxGeometry x="693.89" y="89" width="207" height="126.84" as="geometry" />
        </mxCell>
        <mxCell id="zvgNvQxq_wlNGf-tIKfd-22" value="" style="shape=image;imageAspect=0;aspect=fixed;verticalLabelPosition=bottom;verticalAlign=top;image=data:image/png,iVBORw0KGgoAAAANSUhEUgAAAPoAAADJCAMAAAA93N8MAAABL1BMVEX///9ChfT7vAXqQzU0qFP7ugA+g/Q6gfT7uQAqpUwwp1BwofaLsviEyJVmu3szqUo7lqrpNiXqPzDpOirtQCf8wADpPC01f/Tr8v793Inj7P3sWU3pMyDb5/3qQTZPjvX86OacvfmtyPp4pvf6tAb+9dv93Yzv9f6gsi/xiYH97+74wb3+9/b61NHM3fyaZp1VkvX//PP/+ur+8Mf8zlX8wyX1rqnvd2/uZ1zrUEPubmT2tbD4xcHylI23z/v73dvsTTDvbSf2nBT4qA/956z8yEH92Hn+7cDf8eT80mTP3/zzoZvzm5bZzN2cZZntYFTzhHmTYaHtWizygR/1kRj6vVf+5KKTt/jzhx/uYBv3pEBkmfZLsmqb0qnn9euHvMjd5sFywIW338GOzJ7H5s9le8spAAAML0lEQVR4nOWdeVvbSBLGLRtJ5koiaZEB21jGMYwvxmAw+CQJ9zGBnWRhdh2YTTbf/zNsy7LxJcuqPsXM+8dkZpIH+5fqqq7uruoOhfgqb5UK1Zvc4VE8Ho8g1eLxo8PcbbVQsvJFzt+Fm4qlRqsejyQSmmGYuh55ka6bhqElEmat3mqU/mL8RavQujM0zRgmnpSu238m3ipYfxF+q5CLJxKGJ/TIXwAaAfFcwRL9vUllVY8imn/sIfxIvWqJ/vb4Or45Smhg7Bd8LVFvWKIZcJRv1HV87j595L752vy+1IpoJhm3I1OL31iiafyrWDjUDBrcXSHT50qikfyp2LgzqBh8IMM8fAXw+WqN1MPdZGqBh2/E4TOZT3g90PDNI1bgDnzOEk04RceHLMFtGbVqEKe6/G2EcnBzkW4cBW/UF+L0pjMvmWYrL5p1RPkc67E+kBEPkuGbNT4md6Qbt0Hx+GKLxUzuJe3oWDR0V9YdT5M7MvWCaGykAj8vH1biVjR4qJUQAY6k1cU6fL6uCSK38xtLILnFaTJ3lxkRN8uVOORvXtITvwkib4oJcAP947O6KYS84b2pzoNcUoSwV0W6eZf8V0WSlFj6b0j+WbKlqLzZxZP/KklC2BuBIefNXhAe4QbkiF3hF+uakSCR2/BtTuTHtYCRI+1wIbfuxOZwbuRKKskD/VBwiHMhR+ydVfbkLXFrtenkkqRmmJNXg0kuSczTumPRfv55Cjma4tiGuuKd2ODezdunap0lek5siJs62h13X2RIXhC1EeeHnKm752nZ3K4RtGWazr+YvtzIe7Tb7q5es0K/pxDjdFMzIvH722qhWSpZ1nGp1Gzc5I5q5swSs+kRbsBeZkROPtxNI3KXaxy77SIfN1tHES/zz7Q5wyFfJFy06FrksOqK3ZdVyNWm1V35sLltdoVJQksW3U3dV/1fvnkYcRv5syLcC3uHAXmJII3TjVrL9565dROfOL70NdqdIc9g/VonqPiswar+8tUxeL8272qbNnkB2+hG7QZcB1GsDp/r+Lc5kvpImbyIuz1hmnhlT/mW3g94IJujSEc5n73BjHFaHftc7LhuYJBTX75aeEbXIzcEJ8HFG3s6hZIjdqoTHJ7RiQt+SncanFxSaJo9j5XNaDniMq/8/T/B5Iid4sodx+i6dkPjo9MxDHR6Zs9jeLoeoVTo08YwOz1vxzhg0+lVPOwAJvU++hKlz/axK7WxMUZeo1jYhsFOa6+qOc3oG44i+gckXdf7/41sbtH5aEdwdlonkIcu68gu4u8fv3z9dHLy/v17WY6if56cfPr65ePv6LcoFzO2Y0B4pUwlkz8eH+5d6i+f3odXugoP5PyPlZN/nWZ3aXz0i9rQOK9SWcC1jDFuG3sUeULR6Mr+Q5bGp/f0CGRXaOzO5uP6CPcfJ2FvbEfIBcIHW/ToF1UYOo1ANwhyGxsfvpzMMPcofjR6Rsv22ymYu9MIdP19KWTwr1EAd59+5apC/iWQdmBDnsJOVb7mgEc+noC5HXhZ3j+lEfRgKa0iEWd03d0ZfPCe6c9OydG3y6AhTz7i70001InAHdOfXRCzwzIb4hGfryEf/0QI7lie3OeXIFGeeKOqaX74I0oO3oVfWSN0+XWI1aUYYUlZ698ndMDDNEZ9GmR2slX77n8ombwPf05k+NUUBF0iMXv2jCK3A39GlOJsQiY4Rc1gu/vDikwbHXn8AwH6KoAcSU1h7tKdy/TJu4OegB0U5HHLZ/fOogzAbUX397DRkxIslVdiGfDKPXvAwuSO5AN8hweu4OziIiB7loGbD7GHsdObNhRdUsugGtIKEzenwQ4MdF12yNqdNTkJewa+PwvYt6hEWZMTsIO36SDsbP18wI4X69aBMd5hT/nydz7kdnKDx97BQPe3O73LcFYbYz/Amt8fwTHeljp7+b67z4vcTuhx0OHTm8M+8xzunFUO56YoTk4LTej6mlVJecrP5l12jDC/DVm5DmlGrwCvENcnX4OTo1wWz+oozHtMcbtnfMnx1nAYSY0jr9qqtVdgc+A21Sj71CVshSc4NnloExtdmnYuwXe4Y5Pjzm62ph3AbnEl38IlDyUxsvi+3Ic81+iOb3MydMk1mb96JeShJG6E75rdpXD64rWQ463d+nI5geWZu5ORk6G7TO4X/HJ3gghHAV2KjTfD8ZvYCG1OjD4+wfHzdGJyUvTxClpunk5OTo4+4u0VbHJZlqOyI/tXDuShdVVVFaIgP7yCO8dDR6wH+2sXlWx2L5utnJ6frcyAlymQh7Y3N9OZTkpRsVdwQ5sWu2EcdMS9Vhk9L8+e7oc9drKpkPf/Aq7THRUzm08Nfswpxswmy/sXbnUC2a2pCTFN8q6Sjyks+NhgvwY+s3kVh+yduw8i6uRIq48SBvyg1iQLBUdoD16VIZV9l2FEI8K5aD2DY/j+ImYLOt5nl4WsTRieETlSG1g+Kw01/ULHu3w1++zgdIydHTly+TLU8P0Rvwcl90VRGTnFIc3bvbUKLThQev3OwPjutxamMhTpWdrc1jaUvRfjYfmMfOX3+1RexjxrcmR34CFkb8cCtDEln/kv+nvo/WC2o93ROizWOXeZZEHkoJNhZ8+Lvc1t7cDyWsWe3kCuLoMK/roH1jxsbgt2+Nx1doirQ4+FT2VONg9BWwW6SxjIrC4DT0Z393nZPAQ8mrDv6toFRDl5H/p1LnjZ3BYoypdhCY1MoYWFoUBmV7ZDFf9RTj6g265JXZCig1gSEuBZrDqpChLkUYh/8I+OU/7BVdeQq3s2QeUEotFmCVJmg2Y3/6eM8PjOXYBaE2UJMK3L/KZoXAEKLpTFkP/iyGiwpzZbkJ7fDgQ96FEuFEoCQnw5dOCXPByleQ0BG62C0H2Th+Xgo28DZrcUAD2M36jESxB0CYD+CgY8DP3v6utKGRLhybvvWQsY4f2jk3Sj8hFsXgdkcyTNqHwEy+YAOfyBaLKZguTwGUhlrBz02Q24coOs14OexAPX65BdGqwOJY4C7dK0Q1nICUSwZ3ZQQ1AsCduRDXaMh23Er4K6GeWVQAc60PGLXUUFOn0JstnBpy+hNVBlQXC3K4BnbvYBO6gcHHK8zlkYJ62g8/XgHkPswMpm1W6dLKxrO6DnbklgBZlTKwrraZRXgrh2XQXWj/VauoG9H/JK8ELdagdaQeXUDO6ByO0q0aDZPQklV5Te/Q3QFgg5HKxNix1wpejL+2eAxVuPXb4KTja/nYY3hLzcQJiFX6cnHwTF8DsdeDfEUAsIRtOPLNO4IJVY1xkFpx5+0O+F1d8X/eXb06VAahTX24s44CMPQUGqqF7M/svCwvzcm6efz0Kwt5Obiynsxp+h+3lgSxiHfM7Wwvz8wtybN9+XsfTnEpYyi4spScXt+RnrZga3gPTIHXzEj6W372IqllC6TtLnNvreHbB5fZgcX2/fEdw6ga+xXmZYeyMdclHo463MkPkNRbhXjD5xVQfA7JRsLgp98jFX395Oy+aC0F2uJPJ7Hw81m4tBd30twN91axTJhaC7Xju35yelo0kuBN39ksmH2ehUyUWgT7mAy8cdVFTJBaAr025RnnUVE12bC7H61BdRvMsMaJPzR59+35z3lUTUybmje77g6nE1On1y3uied0t6XM1DL4cThq7OeB1hirszsDlvdA9H7+nKLaljQs4X3ccrnm6zOxtyruiqn2f99iZCHSNynuhKx9eLEOOZDStyjug+74e3zx9lHuT80FW/5MO3TLAk54YOIB8e8wzJeaGrKdDLL/20jiU5J3TVX4QbqPfOEUtyPugx+LNuu1cyW5vzQXe7Mne2tljk7XzRVQXzbeb/fpt/3ehqB/ux1ufv8yztzhhdUZdIniJ/mmNoeKboipoifIj8kqHhWaIryhLoLTNX/fjGCp4heqyM+WrjqJ5ZjXpm6Gpqk8TLh3W5vMACnhG6Kj2Sj/Vh+Hn6w54JuiotET7GPAn/vzna8PTR1VgqTdPifT2jgEeVnjK6osYW27R8fEK26enR00RXVLWcpj3SR/X8c/nb23k6QY8auhqLdR4n6kRY6PLHd7tUboHU/OToioJGuZpaarO19zj+8pu5l+K/BSy9fRdTcKUiS8diUjmT3uGJ/aLny58/np6Wl5ff4OnPRTxllpYe05s716tEQe3/TQP0DclRUEAAAAAASUVORK5CYII=;labelBackgroundColor=none;fillColor=#182E3E;strokeColor=#FFFFFF;fontColor=#FFFFFF;" parent="1" vertex="1">
          <mxGeometry x="693.89" y="89" width="32.34" height="26" as="geometry" />
        </mxCell>
        <mxCell id="zvgNvQxq_wlNGf-tIKfd-18" value="" style="rounded=0;whiteSpace=wrap;html=1;labelBackgroundColor=none;fillColor=#182E3E;strokeColor=#FFFFFF;fontColor=#FFFFFF;" parent="1" vertex="1">
          <mxGeometry x="693.89" y="-25" width="207" height="100" as="geometry" />
        </mxCell>
        <mxCell id="zvgNvQxq_wlNGf-tIKfd-20" value="" style="shape=image;imageAspect=0;aspect=fixed;verticalLabelPosition=bottom;verticalAlign=top;image=data:image/png,iVBORw0KGgoAAAANSUhEUgAAAPoAAADJCAMAAAA93N8MAAABL1BMVEX///9ChfT7vAXqQzU0qFP7ugA+g/Q6gfT7uQAqpUwwp1BwofaLsviEyJVmu3szqUo7lqrpNiXqPzDpOirtQCf8wADpPC01f/Tr8v793Inj7P3sWU3pMyDb5/3qQTZPjvX86OacvfmtyPp4pvf6tAb+9dv93Yzv9f6gsi/xiYH97+74wb3+9/b61NHM3fyaZp1VkvX//PP/+ur+8Mf8zlX8wyX1rqnvd2/uZ1zrUEPubmT2tbD4xcHylI23z/v73dvsTTDvbSf2nBT4qA/956z8yEH92Hn+7cDf8eT80mTP3/zzoZvzm5bZzN2cZZntYFTzhHmTYaHtWizygR/1kRj6vVf+5KKTt/jzhx/uYBv3pEBkmfZLsmqb0qnn9euHvMjd5sFywIW338GOzJ7H5s9le8spAAAML0lEQVR4nOWdeVvbSBLGLRtJ5koiaZEB21jGMYwvxmAw+CQJ9zGBnWRhdh2YTTbf/zNsy7LxJcuqPsXM+8dkZpIH+5fqqq7uruoOhfgqb5UK1Zvc4VE8Ho8g1eLxo8PcbbVQsvJFzt+Fm4qlRqsejyQSmmGYuh55ka6bhqElEmat3mqU/mL8RavQujM0zRgmnpSu238m3ipYfxF+q5CLJxKGJ/TIXwAaAfFcwRL9vUllVY8imn/sIfxIvWqJ/vb4Or45Smhg7Bd8LVFvWKIZcJRv1HV87j595L752vy+1IpoJhm3I1OL31iiafyrWDjUDBrcXSHT50qikfyp2LgzqBh8IMM8fAXw+WqN1MPdZGqBh2/E4TOZT3g90PDNI1bgDnzOEk04RceHLMFtGbVqEKe6/G2EcnBzkW4cBW/UF+L0pjMvmWYrL5p1RPkc67E+kBEPkuGbNT4md6Qbt0Hx+GKLxUzuJe3oWDR0V9YdT5M7MvWCaGykAj8vH1biVjR4qJUQAY6k1cU6fL6uCSK38xtLILnFaTJ3lxkRN8uVOORvXtITvwkib4oJcAP947O6KYS84b2pzoNcUoSwV0W6eZf8V0WSlFj6b0j+WbKlqLzZxZP/KklC2BuBIefNXhAe4QbkiF3hF+uakSCR2/BtTuTHtYCRI+1wIbfuxOZwbuRKKskD/VBwiHMhR+ydVfbkLXFrtenkkqRmmJNXg0kuSczTumPRfv55Cjma4tiGuuKd2ODezdunap0lek5siJs62h13X2RIXhC1EeeHnKm752nZ3K4RtGWazr+YvtzIe7Tb7q5es0K/pxDjdFMzIvH722qhWSpZ1nGp1Gzc5I5q5swSs+kRbsBeZkROPtxNI3KXaxy77SIfN1tHES/zz7Q5wyFfJFy06FrksOqK3ZdVyNWm1V35sLltdoVJQksW3U3dV/1fvnkYcRv5syLcC3uHAXmJII3TjVrL9565dROfOL70NdqdIc9g/VonqPiswar+8tUxeL8272qbNnkB2+hG7QZcB1GsDp/r+Lc5kvpImbyIuz1hmnhlT/mW3g94IJujSEc5n73BjHFaHftc7LhuYJBTX75aeEbXIzcEJ8HFG3s6hZIjdqoTHJ7RiQt+SncanFxSaJo9j5XNaDniMq/8/T/B5Iid4sodx+i6dkPjo9MxDHR6Zs9jeLoeoVTo08YwOz1vxzhg0+lVPOwAJvU++hKlz/axK7WxMUZeo1jYhsFOa6+qOc3oG44i+gckXdf7/41sbtH5aEdwdlonkIcu68gu4u8fv3z9dHLy/v17WY6if56cfPr65ePv6LcoFzO2Y0B4pUwlkz8eH+5d6i+f3odXugoP5PyPlZN/nWZ3aXz0i9rQOK9SWcC1jDFuG3sUeULR6Mr+Q5bGp/f0CGRXaOzO5uP6CPcfJ2FvbEfIBcIHW/ToF1UYOo1ANwhyGxsfvpzMMPcofjR6Rsv22ymYu9MIdP19KWTwr1EAd59+5apC/iWQdmBDnsJOVb7mgEc+noC5HXhZ3j+lEfRgKa0iEWd03d0ZfPCe6c9OydG3y6AhTz7i70001InAHdOfXRCzwzIb4hGfryEf/0QI7lie3OeXIFGeeKOqaX74I0oO3oVfWSN0+XWI1aUYYUlZ698ndMDDNEZ9GmR2slX77n8ombwPf05k+NUUBF0iMXv2jCK3A39GlOJsQiY4Rc1gu/vDikwbHXn8AwH6KoAcSU1h7tKdy/TJu4OegB0U5HHLZ/fOogzAbUX397DRkxIslVdiGfDKPXvAwuSO5AN8hweu4OziIiB7loGbD7GHsdObNhRdUsugGtIKEzenwQ4MdF12yNqdNTkJewa+PwvYt6hEWZMTsIO36SDsbP18wI4X69aBMd5hT/nydz7kdnKDx97BQPe3O73LcFYbYz/Amt8fwTHeljp7+b67z4vcTuhx0OHTm8M+8xzunFUO56YoTk4LTej6mlVJecrP5l12jDC/DVm5DmlGrwCvENcnX4OTo1wWz+oozHtMcbtnfMnx1nAYSY0jr9qqtVdgc+A21Sj71CVshSc4NnloExtdmnYuwXe4Y5Pjzm62ph3AbnEl38IlDyUxsvi+3Ic81+iOb3MydMk1mb96JeShJG6E75rdpXD64rWQ463d+nI5geWZu5ORk6G7TO4X/HJ3gghHAV2KjTfD8ZvYCG1OjD4+wfHzdGJyUvTxClpunk5OTo4+4u0VbHJZlqOyI/tXDuShdVVVFaIgP7yCO8dDR6wH+2sXlWx2L5utnJ6frcyAlymQh7Y3N9OZTkpRsVdwQ5sWu2EcdMS9Vhk9L8+e7oc9drKpkPf/Aq7THRUzm08Nfswpxswmy/sXbnUC2a2pCTFN8q6Sjyks+NhgvwY+s3kVh+yduw8i6uRIq48SBvyg1iQLBUdoD16VIZV9l2FEI8K5aD2DY/j+ImYLOt5nl4WsTRieETlSG1g+Kw01/ULHu3w1++zgdIydHTly+TLU8P0Rvwcl90VRGTnFIc3bvbUKLThQev3OwPjutxamMhTpWdrc1jaUvRfjYfmMfOX3+1RexjxrcmR34CFkb8cCtDEln/kv+nvo/WC2o93ROizWOXeZZEHkoJNhZ8+Lvc1t7cDyWsWe3kCuLoMK/roH1jxsbgt2+Nx1doirQ4+FT2VONg9BWwW6SxjIrC4DT0Z393nZPAQ8mrDv6toFRDl5H/p1LnjZ3BYoypdhCY1MoYWFoUBmV7ZDFf9RTj6g265JXZCig1gSEuBZrDqpChLkUYh/8I+OU/7BVdeQq3s2QeUEotFmCVJmg2Y3/6eM8PjOXYBaE2UJMK3L/KZoXAEKLpTFkP/iyGiwpzZbkJ7fDgQ96FEuFEoCQnw5dOCXPByleQ0BG62C0H2Th+Xgo28DZrcUAD2M36jESxB0CYD+CgY8DP3v6utKGRLhybvvWQsY4f2jk3Sj8hFsXgdkcyTNqHwEy+YAOfyBaLKZguTwGUhlrBz02Q24coOs14OexAPX65BdGqwOJY4C7dK0Q1nICUSwZ3ZQQ1AsCduRDXaMh23Er4K6GeWVQAc60PGLXUUFOn0JstnBpy+hNVBlQXC3K4BnbvYBO6gcHHK8zlkYJ62g8/XgHkPswMpm1W6dLKxrO6DnbklgBZlTKwrraZRXgrh2XQXWj/VauoG9H/JK8ELdagdaQeXUDO6ByO0q0aDZPQklV5Te/Q3QFgg5HKxNix1wpejL+2eAxVuPXb4KTja/nYY3hLzcQJiFX6cnHwTF8DsdeDfEUAsIRtOPLNO4IJVY1xkFpx5+0O+F1d8X/eXb06VAahTX24s44CMPQUGqqF7M/svCwvzcm6efz0Kwt5Obiynsxp+h+3lgSxiHfM7Wwvz8wtybN9+XsfTnEpYyi4spScXt+RnrZga3gPTIHXzEj6W372IqllC6TtLnNvreHbB5fZgcX2/fEdw6ga+xXmZYeyMdclHo463MkPkNRbhXjD5xVQfA7JRsLgp98jFX395Oy+aC0F2uJPJ7Hw81m4tBd30twN91axTJhaC7Xju35yelo0kuBN39ksmH2ehUyUWgT7mAy8cdVFTJBaAr025RnnUVE12bC7H61BdRvMsMaJPzR59+35z3lUTUybmje77g6nE1On1y3uied0t6XM1DL4cThq7OeB1hirszsDlvdA9H7+nKLaljQs4X3ccrnm6zOxtyruiqn2f99iZCHSNynuhKx9eLEOOZDStyjug+74e3zx9lHuT80FW/5MO3TLAk54YOIB8e8wzJeaGrKdDLL/20jiU5J3TVX4QbqPfOEUtyPugx+LNuu1cyW5vzQXe7Mne2tljk7XzRVQXzbeb/fpt/3ehqB/ux1ufv8yztzhhdUZdIniJ/mmNoeKboipoifIj8kqHhWaIryhLoLTNX/fjGCp4heqyM+WrjqJ5ZjXpm6Gpqk8TLh3W5vMACnhG6Kj2Sj/Vh+Hn6w54JuiotET7GPAn/vzna8PTR1VgqTdPifT2jgEeVnjK6osYW27R8fEK26enR00RXVLWcpj3SR/X8c/nb23k6QY8auhqLdR4n6kRY6PLHd7tUboHU/OToioJGuZpaarO19zj+8pu5l+K/BSy9fRdTcKUiS8diUjmT3uGJ/aLny58/np6Wl5ff4OnPRTxllpYe05s716tEQe3/TQP0DclRUEAAAAAASUVORK5CYII=;labelBackgroundColor=none;fillColor=#182E3E;strokeColor=#FFFFFF;fontColor=#FFFFFF;" parent="1" vertex="1">
          <mxGeometry x="693.89" y="-25" width="32.34" height="26" as="geometry" />
        </mxCell>
        <mxCell id="zvgNvQxq_wlNGf-tIKfd-11" value="&lt;font style=&quot;font-size: 20px;&quot;&gt;GCP Instance&lt;/font&gt;" style="text;html=1;align=center;verticalAlign=middle;resizable=0;points=[];autosize=1;strokeColor=none;fillColor=none;rotation=0;labelBackgroundColor=none;fontColor=#FFFFFF;" parent="1" vertex="1">
          <mxGeometry x="483" y="280" width="142" height="36" as="geometry" />
        </mxCell>
        <mxCell id="zvgNvQxq_wlNGf-tIKfd-12" value="" style="shape=image;imageAspect=0;aspect=fixed;verticalLabelPosition=bottom;verticalAlign=top;image=data:image/png,iVBORw0KGgoAAAANSUhEUgAAAPoAAADJCAMAAAA93N8MAAABL1BMVEX///9ChfT7vAXqQzU0qFP7ugA+g/Q6gfT7uQAqpUwwp1BwofaLsviEyJVmu3szqUo7lqrpNiXqPzDpOirtQCf8wADpPC01f/Tr8v793Inj7P3sWU3pMyDb5/3qQTZPjvX86OacvfmtyPp4pvf6tAb+9dv93Yzv9f6gsi/xiYH97+74wb3+9/b61NHM3fyaZp1VkvX//PP/+ur+8Mf8zlX8wyX1rqnvd2/uZ1zrUEPubmT2tbD4xcHylI23z/v73dvsTTDvbSf2nBT4qA/956z8yEH92Hn+7cDf8eT80mTP3/zzoZvzm5bZzN2cZZntYFTzhHmTYaHtWizygR/1kRj6vVf+5KKTt/jzhx/uYBv3pEBkmfZLsmqb0qnn9euHvMjd5sFywIW338GOzJ7H5s9le8spAAAML0lEQVR4nOWdeVvbSBLGLRtJ5koiaZEB21jGMYwvxmAw+CQJ9zGBnWRhdh2YTTbf/zNsy7LxJcuqPsXM+8dkZpIH+5fqqq7uruoOhfgqb5UK1Zvc4VE8Ho8g1eLxo8PcbbVQsvJFzt+Fm4qlRqsejyQSmmGYuh55ka6bhqElEmat3mqU/mL8RavQujM0zRgmnpSu238m3ipYfxF+q5CLJxKGJ/TIXwAaAfFcwRL9vUllVY8imn/sIfxIvWqJ/vb4Or45Smhg7Bd8LVFvWKIZcJRv1HV87j595L752vy+1IpoJhm3I1OL31iiafyrWDjUDBrcXSHT50qikfyp2LgzqBh8IMM8fAXw+WqN1MPdZGqBh2/E4TOZT3g90PDNI1bgDnzOEk04RceHLMFtGbVqEKe6/G2EcnBzkW4cBW/UF+L0pjMvmWYrL5p1RPkc67E+kBEPkuGbNT4md6Qbt0Hx+GKLxUzuJe3oWDR0V9YdT5M7MvWCaGykAj8vH1biVjR4qJUQAY6k1cU6fL6uCSK38xtLILnFaTJ3lxkRN8uVOORvXtITvwkib4oJcAP947O6KYS84b2pzoNcUoSwV0W6eZf8V0WSlFj6b0j+WbKlqLzZxZP/KklC2BuBIefNXhAe4QbkiF3hF+uakSCR2/BtTuTHtYCRI+1wIbfuxOZwbuRKKskD/VBwiHMhR+ydVfbkLXFrtenkkqRmmJNXg0kuSczTumPRfv55Cjma4tiGuuKd2ODezdunap0lek5siJs62h13X2RIXhC1EeeHnKm752nZ3K4RtGWazr+YvtzIe7Tb7q5es0K/pxDjdFMzIvH722qhWSpZ1nGp1Gzc5I5q5swSs+kRbsBeZkROPtxNI3KXaxy77SIfN1tHES/zz7Q5wyFfJFy06FrksOqK3ZdVyNWm1V35sLltdoVJQksW3U3dV/1fvnkYcRv5syLcC3uHAXmJII3TjVrL9565dROfOL70NdqdIc9g/VonqPiswar+8tUxeL8272qbNnkB2+hG7QZcB1GsDp/r+Lc5kvpImbyIuz1hmnhlT/mW3g94IJujSEc5n73BjHFaHftc7LhuYJBTX75aeEbXIzcEJ8HFG3s6hZIjdqoTHJ7RiQt+SncanFxSaJo9j5XNaDniMq/8/T/B5Iid4sodx+i6dkPjo9MxDHR6Zs9jeLoeoVTo08YwOz1vxzhg0+lVPOwAJvU++hKlz/axK7WxMUZeo1jYhsFOa6+qOc3oG44i+gckXdf7/41sbtH5aEdwdlonkIcu68gu4u8fv3z9dHLy/v17WY6if56cfPr65ePv6LcoFzO2Y0B4pUwlkz8eH+5d6i+f3odXugoP5PyPlZN/nWZ3aXz0i9rQOK9SWcC1jDFuG3sUeULR6Mr+Q5bGp/f0CGRXaOzO5uP6CPcfJ2FvbEfIBcIHW/ToF1UYOo1ANwhyGxsfvpzMMPcofjR6Rsv22ymYu9MIdP19KWTwr1EAd59+5apC/iWQdmBDnsJOVb7mgEc+noC5HXhZ3j+lEfRgKa0iEWd03d0ZfPCe6c9OydG3y6AhTz7i70001InAHdOfXRCzwzIb4hGfryEf/0QI7lie3OeXIFGeeKOqaX74I0oO3oVfWSN0+XWI1aUYYUlZ698ndMDDNEZ9GmR2slX77n8ombwPf05k+NUUBF0iMXv2jCK3A39GlOJsQiY4Rc1gu/vDikwbHXn8AwH6KoAcSU1h7tKdy/TJu4OegB0U5HHLZ/fOogzAbUX397DRkxIslVdiGfDKPXvAwuSO5AN8hweu4OziIiB7loGbD7GHsdObNhRdUsugGtIKEzenwQ4MdF12yNqdNTkJewa+PwvYt6hEWZMTsIO36SDsbP18wI4X69aBMd5hT/nydz7kdnKDx97BQPe3O73LcFYbYz/Amt8fwTHeljp7+b67z4vcTuhx0OHTm8M+8xzunFUO56YoTk4LTej6mlVJecrP5l12jDC/DVm5DmlGrwCvENcnX4OTo1wWz+oozHtMcbtnfMnx1nAYSY0jr9qqtVdgc+A21Sj71CVshSc4NnloExtdmnYuwXe4Y5Pjzm62ph3AbnEl38IlDyUxsvi+3Ic81+iOb3MydMk1mb96JeShJG6E75rdpXD64rWQ463d+nI5geWZu5ORk6G7TO4X/HJ3gghHAV2KjTfD8ZvYCG1OjD4+wfHzdGJyUvTxClpunk5OTo4+4u0VbHJZlqOyI/tXDuShdVVVFaIgP7yCO8dDR6wH+2sXlWx2L5utnJ6frcyAlymQh7Y3N9OZTkpRsVdwQ5sWu2EcdMS9Vhk9L8+e7oc9drKpkPf/Aq7THRUzm08Nfswpxswmy/sXbnUC2a2pCTFN8q6Sjyks+NhgvwY+s3kVh+yduw8i6uRIq48SBvyg1iQLBUdoD16VIZV9l2FEI8K5aD2DY/j+ImYLOt5nl4WsTRieETlSG1g+Kw01/ULHu3w1++zgdIydHTly+TLU8P0Rvwcl90VRGTnFIc3bvbUKLThQev3OwPjutxamMhTpWdrc1jaUvRfjYfmMfOX3+1RexjxrcmR34CFkb8cCtDEln/kv+nvo/WC2o93ROizWOXeZZEHkoJNhZ8+Lvc1t7cDyWsWe3kCuLoMK/roH1jxsbgt2+Nx1doirQ4+FT2VONg9BWwW6SxjIrC4DT0Z393nZPAQ8mrDv6toFRDl5H/p1LnjZ3BYoypdhCY1MoYWFoUBmV7ZDFf9RTj6g265JXZCig1gSEuBZrDqpChLkUYh/8I+OU/7BVdeQq3s2QeUEotFmCVJmg2Y3/6eM8PjOXYBaE2UJMK3L/KZoXAEKLpTFkP/iyGiwpzZbkJ7fDgQ96FEuFEoCQnw5dOCXPByleQ0BG62C0H2Th+Xgo28DZrcUAD2M36jESxB0CYD+CgY8DP3v6utKGRLhybvvWQsY4f2jk3Sj8hFsXgdkcyTNqHwEy+YAOfyBaLKZguTwGUhlrBz02Q24coOs14OexAPX65BdGqwOJY4C7dK0Q1nICUSwZ3ZQQ1AsCduRDXaMh23Er4K6GeWVQAc60PGLXUUFOn0JstnBpy+hNVBlQXC3K4BnbvYBO6gcHHK8zlkYJ62g8/XgHkPswMpm1W6dLKxrO6DnbklgBZlTKwrraZRXgrh2XQXWj/VauoG9H/JK8ELdagdaQeXUDO6ByO0q0aDZPQklV5Te/Q3QFgg5HKxNix1wpejL+2eAxVuPXb4KTja/nYY3hLzcQJiFX6cnHwTF8DsdeDfEUAsIRtOPLNO4IJVY1xkFpx5+0O+F1d8X/eXb06VAahTX24s44CMPQUGqqF7M/svCwvzcm6efz0Kwt5Obiynsxp+h+3lgSxiHfM7Wwvz8wtybN9+XsfTnEpYyi4spScXt+RnrZga3gPTIHXzEj6W372IqllC6TtLnNvreHbB5fZgcX2/fEdw6ga+xXmZYeyMdclHo463MkPkNRbhXjD5xVQfA7JRsLgp98jFX395Oy+aC0F2uJPJ7Hw81m4tBd30twN91axTJhaC7Xju35yelo0kuBN39ksmH2ehUyUWgT7mAy8cdVFTJBaAr025RnnUVE12bC7H61BdRvMsMaJPzR59+35z3lUTUybmje77g6nE1On1y3uied0t6XM1DL4cThq7OeB1hirszsDlvdA9H7+nKLaljQs4X3ccrnm6zOxtyruiqn2f99iZCHSNynuhKx9eLEOOZDStyjug+74e3zx9lHuT80FW/5MO3TLAk54YOIB8e8wzJeaGrKdDLL/20jiU5J3TVX4QbqPfOEUtyPugx+LNuu1cyW5vzQXe7Mne2tljk7XzRVQXzbeb/fpt/3ehqB/ux1ufv8yztzhhdUZdIniJ/mmNoeKboipoifIj8kqHhWaIryhLoLTNX/fjGCp4heqyM+WrjqJ5ZjXpm6Gpqk8TLh3W5vMACnhG6Kj2Sj/Vh+Hn6w54JuiotET7GPAn/vzna8PTR1VgqTdPifT2jgEeVnjK6osYW27R8fEK26enR00RXVLWcpj3SR/X8c/nb23k6QY8auhqLdR4n6kRY6PLHd7tUboHU/OToioJGuZpaarO19zj+8pu5l+K/BSy9fRdTcKUiS8diUjmT3uGJ/aLny58/np6Wl5ff4OnPRTxllpYe05s716tEQe3/TQP0DclRUEAAAAAASUVORK5CYII=;labelBackgroundColor=none;fillColor=#182E3E;strokeColor=#FFFFFF;fontColor=#FFFFFF;" parent="1" vertex="1">
          <mxGeometry x="396" y="280" width="47" height="37.79" as="geometry" />
        </mxCell>
        <mxCell id="zvgNvQxq_wlNGf-tIKfd-5" value="" style="rounded=0;whiteSpace=wrap;html=1;labelBackgroundColor=none;fillColor=#182E3E;strokeColor=#FFFFFF;fontColor=#FFFFFF;" parent="1" vertex="1">
          <mxGeometry x="103.94" y="-80" width="379.06" height="322" as="geometry" />
        </mxCell>
        <mxCell id="f5ZKmu7FJWozqvkBw2zf-8" style="edgeStyle=orthogonalEdgeStyle;rounded=0;orthogonalLoop=1;jettySize=auto;html=1;entryX=0;entryY=0.5;entryDx=0;entryDy=0;strokeWidth=5;fillColor=#60a917;strokeColor=#2D7600;" edge="1" parent="1" source="MT3VQ3Qza3Scs-Q398Xu-85" target="zvgNvQxq_wlNGf-tIKfd-17">
          <mxGeometry relative="1" as="geometry" />
        </mxCell>
        <mxCell id="MT3VQ3Qza3Scs-Q398Xu-85" value="&lt;font style=&quot;font-size: 16px;&quot;&gt;Store and transfer war build&lt;/font&gt;" style="rounded=0;whiteSpace=wrap;html=1;fillColor=#182E3E;align=right;labelBackgroundColor=none;strokeColor=#FFFFFF;fontColor=#FFFFFF;" parent="1" vertex="1">
          <mxGeometry x="58.53" y="422.5" width="278.95" height="80" as="geometry" />
        </mxCell>
        <mxCell id="MT3VQ3Qza3Scs-Q398Xu-75" value="" style="rounded=0;whiteSpace=wrap;html=1;fillColor=#182E3E;align=center;labelBackgroundColor=none;strokeColor=#FFFFFF;fontColor=#FFFFFF;" parent="1" vertex="1">
          <mxGeometry x="116.94" y="-28" width="175.06" height="217" as="geometry" />
        </mxCell>
        <mxCell id="f5ZKmu7FJWozqvkBw2zf-6" style="edgeStyle=orthogonalEdgeStyle;rounded=0;orthogonalLoop=1;jettySize=auto;html=1;entryX=0;entryY=0.5;entryDx=0;entryDy=0;strokeWidth=5;fillColor=#60a917;strokeColor=#2D7600;" edge="1" parent="1" source="MT3VQ3Qza3Scs-Q398Xu-13" target="zvgNvQxq_wlNGf-tIKfd-50">
          <mxGeometry relative="1" as="geometry" />
        </mxCell>
        <mxCell id="MT3VQ3Qza3Scs-Q398Xu-13" value="&lt;div align=&quot;center&quot;&gt;&lt;font style=&quot;font-size: 24px;&quot;&gt;Merged changes &lt;/font&gt;&lt;/div&gt;" style="rounded=0;whiteSpace=wrap;html=1;fillColor=#182E3E;labelBackgroundColor=none;strokeColor=#FFFFFF;fontColor=#FFFFFF;align=center;" parent="1" vertex="1">
          <mxGeometry x="-308" y="451" width="240" height="220" as="geometry" />
        </mxCell>
        <mxCell id="MT3VQ3Qza3Scs-Q398Xu-56" value="" style="rounded=0;whiteSpace=wrap;html=1;labelBackgroundColor=none;fillColor=#182E3E;strokeColor=#FFFFFF;fontColor=#FFFFFF;" parent="1" vertex="1">
          <mxGeometry x="737.89" y="159.84" width="155" height="50" as="geometry" />
        </mxCell>
        <mxCell id="MT3VQ3Qza3Scs-Q398Xu-55" value="" style="rounded=0;whiteSpace=wrap;html=1;labelBackgroundColor=none;fillColor=#182E3E;strokeColor=#FFFFFF;fontColor=#FFFFFF;" parent="1" vertex="1">
          <mxGeometry x="737.89" y="99.84" width="155" height="50" as="geometry" />
        </mxCell>
        <mxCell id="MT3VQ3Qza3Scs-Q398Xu-54" value="&lt;div align=&quot;left&quot;&gt;&lt;br&gt;&lt;/div&gt;" style="rounded=0;whiteSpace=wrap;html=1;labelBackgroundColor=none;fillColor=#182E3E;strokeColor=#FFFFFF;fontColor=#FFFFFF;" parent="1" vertex="1">
          <mxGeometry x="741.39" y="-7.5" width="139" height="61" as="geometry" />
        </mxCell>
        <mxCell id="MT3VQ3Qza3Scs-Q398Xu-12" value="" style="rounded=0;whiteSpace=wrap;html=1;fillColor=#182E3E;labelBackgroundColor=none;strokeColor=#FFFFFF;fontColor=#FFFFFF;" parent="1" vertex="1">
          <mxGeometry x="-308" y="-20.159999999999997" width="240" height="220" as="geometry" />
        </mxCell>
        <mxCell id="MT3VQ3Qza3Scs-Q398Xu-2" value="" style="shape=image;imageAspect=0;aspect=fixed;verticalLabelPosition=bottom;verticalAlign=top;image=data:image/png,iVBORw0KGgoAAAANSUhEUgAAAOAAAADgCAMAAAAt85rTAAAAkFBMVEX///8XFRUAAAAUEhIJBQUQDQ0MCQkEAADt7e319fXr6+vw8PAVEhLo6Oi/v7/6+vpcW1shHx9rampXVla5uLh4d3dBQECfnp7j4+PLy8tPTk7HxsbX19cuLS1IR0eYl5eOjY04Njaop6coJiaFhIRubW0yMTGvrq58e3tjYmKSkpKJiYnc29tDQkIkIiKkpKQrDOYYAAAKMUlEQVR4nO2d53arOhBGDyMDJrjhGre4xiVOef+3u8Y+jjGgGYEKPndp/8paSRAfqEyT+PPHYrFYLBaLxWKxWCwWi8VisVgsFovF8u/Rbs7G09aF6XjWbFd9P8oIXsY/p84GMkS97c+0GVR9f1IE02VnHoupMScDq8W/2fRO03rV91mKcHqKtdXcrLSMzGg7Dau+32IE+yMDILQlVJ4fRGf9z2gM+z0AP6dTUm/ybf8vaJwdHPCKibvhgTcYV33/OO3+CqDgu3t4jwDz/ROvIKO5+Ljj4cL34jklthcFphXiNS6fcHkcRdBQIe8q0VlUrSdFK5IZenkSvX3VmhK8dtR0zkeJk8+qdf2l/QE11fJiarB9iqE424EOeTHw/QTL4kl977zjwqBiec03ba/vCgxfq9TXL2uViePBujp9B7VrA4fKummou3v+Klw1q9DXjAzpOy8YXgVL4lTn7JnGhb5pfX0jw+8XBoYttx+z+s6AUfN7bWz4VaNwUYG+s8KTKX37SvSdFY7+3/pMKZxWpu+s0MBqMTM+fyZgoN1/CjyD63uewhe9+torLc67ON5Gr5f/XuEAvAIdnfp+Ktd3VvihTx9ngmFxos9XOjbdS/IwfzrTONG4uSKY97H+OR2HoCq45gGsjtvRerHhPE9dw3CQ30HhcP11c98B+RCGC/C2fr1mJ0acBrt69PU5AxBmv3/SXn/JvUYPVot7krDJyQboCdO0Oa2584dk0LhXXqIHw9ZDm5P8DsFAR6a0y3uB6ZjQrGQgn8FkmroUz23xe+r1jXkrRI59ON5lJsCG69X8WwWJX/Pc9B8wcHIuVKBRWRq8twJ5kdm183tr7KIrWk063cH2tFyetofucTKM4GEh8POXN55ABqqTpJwJLRaY+/dh99xPLzUiXvdjP3sJ0zcUvnz2F+/RdQVtwCQ/MrjhPlbF3u8L14dwh5x/GUewOY7G1JOerbs78Hk9jrMyxa9QbUif25AD77z/CWeCC3L7kxvY5QdH4FhcBZ9Xvg2q0zREoweJ5VcexInQG0Zo8RuuKXQrPhEnQm/yh7tOOEqNbt4aX63AmrLVvol5gXoFohEuUJWS2aKtaB2DPAP/2jR3Ai9G6GFxNFiqaSUfNEfAQE3eEE9E+JqcsysfaNuK0hUOGghlkZJGOHRQ14vlm4kFmRGBJiWN8CCizJD2r8pARQp1BpvR+fuMr8BeC/AeqneWofI8DV/etUcn6hh3p69+tUdFPxRkto8+1YbGUPOBerreRLoNsom5AiFcOlTz0jFSKhuo2vFMEXBd+ptA2eAM39NV1AAB5sjEyNoZ7RX+BHXE7x5Z4gqZZDqNeICqrEEM4hFLOvZEQYxeS/sK4tRfbkHOm+mii4QaW5BiiCZ0JN1e3BY08QKpV9iQesi4LcjAzNZGfBRK+fX4KqjXFbyDV45Bi74CF8LfVOGsCPCC38VW4tK4IWpkionZYX1UKj46xK6swhkTA+2j7qq8NxMyNNxkrN4fi446zC8/1SEpCUdhWJIkzNumfr+P8uY+OomyhrktxehQkZhGUUPN/VKogACd7OCn9HXRwa0yu0OBx9bLJ/DQiIHJHTdojZzEjaBhVzOG6BU08iVhbuNj21CJeAxqb7ur0tf9Rmfn8mO7MKhAieQBunH8ad6ghFdqIrUjBO4S6hKotbzikWoEyrgpBcFzFLoEGlwH+YVkGgWa8udj8OCoJoGe9pjvHTxHKSEQWwe5VXgaQE0qiWUCzX02InPu0hdmUjGn9HXRWIhjIGz/lzDCLA53V/rCnJrwm0BDQTUqPCuRBMUD9+aMUXydl5jO8dnZV1RJRUOEZ5elL4yvr4ypk4DTw4dKeaufqLAwNssQt1E+yUwUOZk6f4G6jfIpUDwpYCy0fSIElt/1GuTvb7vBIjOHSqGRE7ksPb4QymWuhCF6qFQtEFFEYiY0igZFJd02qhjOxDzapu5BplwNTes4Zs7PoE4+kSvnJAu5NO/bP79AsphL6vJEFY6BwAy1s10i7BtDFFJJJeeECMgbWEpdnzx6RN32k3yoYkBZpy30qFNRK9wYEsM8ybgCsdQ7ejPZdfJsF+mSX9xjinH1xWbaK/rxynYgqiD1jK8tvNajG5fvP9SugriRiZ66+yOtTyKidoNcKGKFbzoUCrw/FWlmgT56bmejfDlsCp2sq2KGw72xv3iqvfuWL3KuiZLoOj2PxjA4KvR+g67Y2V9KFmHSWLo15iirXVuLHl2q5uicTPgXIPc8IgYbJf20/y16dJuiDF7aKYRDfzbeD3JOOHJh9SM5nwajnfhhLap29r09jPdf63bayz5pF6A7Ld1vwtaxyBcPvDc1+lKBi0SkqeXmjBUfou6+RCjjdX10ix0mpO7U2Idt2My5r3nt3N1hlxNk3kfjF8FXGTSniyMU/k4Mc1XpS3nVrpcIJfPq9S4i55PulnDXptvuZMP5MhOBwuxWKi7CYHufSrCKRNcDsqD6C9Bt+sjFNwrtw3RgBHZ3Ewnbw8gcsp46+C55pJ7a9GSUespuYoZ2+HcoEk+gtrFzcNXu38+EDhJHmfLjNmLutoBXlINq4zcTukjsbeUGhsQSW69lvoajYHfyI9mO5P0GJAOOaeUJlq3j5znko/TAowvZ13Q7tJEb4RedBogtkLmXVl8oF2ZjF3dvM9+lEg0KU+mVLMzREOjKPueELZgX2GC+6KW/ih7aqScxmY2RJNr5yRrJ4hlukbjPQ7t6wunZTposopqtUpNhTbzmueDZ61o6aEy2kz7MZaOzSXk9dJJ55x8nLWFTquBary9znrE7Uy71dPDVuBxF+TboF3EKqWNjUvoO9BVLkgmlZ/fuhc1mU9RN+oUoV3nEk9gQSZJJhqh5mvUCzlJD79bvzDBUkgCtu+LGmu7SlbTjpOQ8oAIC9ddwps85VHEgkLhAXUdsJ0k7uArarGeONObpM1J5NE8rlM6e1QWjFqD1eKVfgvQ3J3xZ51NQYG1l6IuSYSOlkEFHKsYstkzUzG37rs/TLmoNVut00ZP47QgJrO0MftY9jDL1+C7A12A9nTXD8OVz3Bq9TxrCN1QXCPn6BvehnAmGOdaVC0lqNXGBdDoJhoa/6Nomv67IPIUC9VQB4FCnVjLxN8g/h/2mz9gWjSQf+G0VEohaMszkbtokLfQDKAWOQcHdJc9MaXgen2mj5vG5qxEI8yq/if3O76YN8WpgxKNn1Qy/O33g7lBTIVDaCpSn3uG9RHmBZxPQoPXCZQ2cyL1wop4jEKr8SnSSy+dPlAt0oWvUOEMZRzn9VEogg+gJvkWfYJ+tvpIRCJHhDwvTBIt0dVdpgQxgYdi0FqK9aDxILCmQQWNh3rIWI1z791qlAtt+Esa2B/76eeaWHFo9+Gs5FznfuHe1FhoAvcrsTmFeT37s7UKRmPfr9T/8k+aNQqoYH3q9ZaGOFi57vcNzrQsWi8VisVgsFovFYrFYLBaLxWKxWCyWLP8Bd0OMHy9KQeAAAAAASUVORK5CYII=;labelBackgroundColor=none;fillColor=#182E3E;strokeColor=#FFFFFF;fontColor=#FFFFFF;" parent="1" vertex="1">
          <mxGeometry x="-308" y="-20.159999999999997" width="80" height="80" as="geometry" />
        </mxCell>
        <mxCell id="MT3VQ3Qza3Scs-Q398Xu-4" value="&lt;font style=&quot;font-size: 18px;&quot;&gt;Stage environment&lt;/font&gt;" style="text;html=1;align=center;verticalAlign=middle;resizable=0;points=[];autosize=1;strokeColor=none;fillColor=none;labelBackgroundColor=none;fontColor=#FFFFFF;" parent="1" vertex="1">
          <mxGeometry x="-233" y="-20.159999999999997" width="170" height="40" as="geometry" />
        </mxCell>
        <mxCell id="MT3VQ3Qza3Scs-Q398Xu-14" value="" style="shape=image;imageAspect=0;aspect=fixed;verticalLabelPosition=bottom;verticalAlign=top;image=data:image/png,iVBORw0KGgoAAAANSUhEUgAAAOAAAADgCAMAAAAt85rTAAAAkFBMVEX///8XFRUAAAAUEhIJBQUQDQ0MCQkEAADt7e319fXr6+vw8PAVEhLo6Oi/v7/6+vpcW1shHx9rampXVla5uLh4d3dBQECfnp7j4+PLy8tPTk7HxsbX19cuLS1IR0eYl5eOjY04Njaop6coJiaFhIRubW0yMTGvrq58e3tjYmKSkpKJiYnc29tDQkIkIiKkpKQrDOYYAAAKMUlEQVR4nO2d53arOhBGDyMDJrjhGre4xiVOef+3u8Y+jjGgGYEKPndp/8paSRAfqEyT+PPHYrFYLBaLxWKxWCwWi8VisVgsFovF8u/Rbs7G09aF6XjWbFd9P8oIXsY/p84GMkS97c+0GVR9f1IE02VnHoupMScDq8W/2fRO03rV91mKcHqKtdXcrLSMzGg7Dau+32IE+yMDILQlVJ4fRGf9z2gM+z0AP6dTUm/ybf8vaJwdHPCKibvhgTcYV33/OO3+CqDgu3t4jwDz/ROvIKO5+Ljj4cL34jklthcFphXiNS6fcHkcRdBQIe8q0VlUrSdFK5IZenkSvX3VmhK8dtR0zkeJk8+qdf2l/QE11fJiarB9iqE424EOeTHw/QTL4kl977zjwqBiec03ba/vCgxfq9TXL2uViePBujp9B7VrA4fKummou3v+Klw1q9DXjAzpOy8YXgVL4lTn7JnGhb5pfX0jw+8XBoYttx+z+s6AUfN7bWz4VaNwUYG+s8KTKX37SvSdFY7+3/pMKZxWpu+s0MBqMTM+fyZgoN1/CjyD63uewhe9+torLc67ON5Gr5f/XuEAvAIdnfp+Ktd3VvihTx9ngmFxos9XOjbdS/IwfzrTONG4uSKY97H+OR2HoCq45gGsjtvRerHhPE9dw3CQ30HhcP11c98B+RCGC/C2fr1mJ0acBrt69PU5AxBmv3/SXn/JvUYPVot7krDJyQboCdO0Oa2584dk0LhXXqIHw9ZDm5P8DsFAR6a0y3uB6ZjQrGQgn8FkmroUz23xe+r1jXkrRI59ON5lJsCG69X8WwWJX/Pc9B8wcHIuVKBRWRq8twJ5kdm183tr7KIrWk063cH2tFyetofucTKM4GEh8POXN55ABqqTpJwJLRaY+/dh99xPLzUiXvdjP3sJ0zcUvnz2F+/RdQVtwCQ/MrjhPlbF3u8L14dwh5x/GUewOY7G1JOerbs78Hk9jrMyxa9QbUif25AD77z/CWeCC3L7kxvY5QdH4FhcBZ9Xvg2q0zREoweJ5VcexInQG0Zo8RuuKXQrPhEnQm/yh7tOOEqNbt4aX63AmrLVvol5gXoFohEuUJWS2aKtaB2DPAP/2jR3Ai9G6GFxNFiqaSUfNEfAQE3eEE9E+JqcsysfaNuK0hUOGghlkZJGOHRQ14vlm4kFmRGBJiWN8CCizJD2r8pARQp1BpvR+fuMr8BeC/AeqneWofI8DV/etUcn6hh3p69+tUdFPxRkto8+1YbGUPOBerreRLoNsom5AiFcOlTz0jFSKhuo2vFMEXBd+ptA2eAM39NV1AAB5sjEyNoZ7RX+BHXE7x5Z4gqZZDqNeICqrEEM4hFLOvZEQYxeS/sK4tRfbkHOm+mii4QaW5BiiCZ0JN1e3BY08QKpV9iQesi4LcjAzNZGfBRK+fX4KqjXFbyDV45Bi74CF8LfVOGsCPCC38VW4tK4IWpkionZYX1UKj46xK6swhkTA+2j7qq8NxMyNNxkrN4fi446zC8/1SEpCUdhWJIkzNumfr+P8uY+OomyhrktxehQkZhGUUPN/VKogACd7OCn9HXRwa0yu0OBx9bLJ/DQiIHJHTdojZzEjaBhVzOG6BU08iVhbuNj21CJeAxqb7ur0tf9Rmfn8mO7MKhAieQBunH8ad6ghFdqIrUjBO4S6hKotbzikWoEyrgpBcFzFLoEGlwH+YVkGgWa8udj8OCoJoGe9pjvHTxHKSEQWwe5VXgaQE0qiWUCzX02InPu0hdmUjGn9HXRWIhjIGz/lzDCLA53V/rCnJrwm0BDQTUqPCuRBMUD9+aMUXydl5jO8dnZV1RJRUOEZ5elL4yvr4ypk4DTw4dKeaufqLAwNssQt1E+yUwUOZk6f4G6jfIpUDwpYCy0fSIElt/1GuTvb7vBIjOHSqGRE7ksPb4QymWuhCF6qFQtEFFEYiY0igZFJd02qhjOxDzapu5BplwNTes4Zs7PoE4+kSvnJAu5NO/bP79AsphL6vJEFY6BwAy1s10i7BtDFFJJJeeECMgbWEpdnzx6RN32k3yoYkBZpy30qFNRK9wYEsM8ybgCsdQ7ejPZdfJsF+mSX9xjinH1xWbaK/rxynYgqiD1jK8tvNajG5fvP9SugriRiZ66+yOtTyKidoNcKGKFbzoUCrw/FWlmgT56bmejfDlsCp2sq2KGw72xv3iqvfuWL3KuiZLoOj2PxjA4KvR+g67Y2V9KFmHSWLo15iirXVuLHl2q5uicTPgXIPc8IgYbJf20/y16dJuiDF7aKYRDfzbeD3JOOHJh9SM5nwajnfhhLap29r09jPdf63bayz5pF6A7Ld1vwtaxyBcPvDc1+lKBi0SkqeXmjBUfou6+RCjjdX10ix0mpO7U2Idt2My5r3nt3N1hlxNk3kfjF8FXGTSniyMU/k4Mc1XpS3nVrpcIJfPq9S4i55PulnDXptvuZMP5MhOBwuxWKi7CYHufSrCKRNcDsqD6C9Bt+sjFNwrtw3RgBHZ3Ewnbw8gcsp46+C55pJ7a9GSUespuYoZ2+HcoEk+gtrFzcNXu38+EDhJHmfLjNmLutoBXlINq4zcTukjsbeUGhsQSW69lvoajYHfyI9mO5P0GJAOOaeUJlq3j5znko/TAowvZ13Q7tJEb4RedBogtkLmXVl8oF2ZjF3dvM9+lEg0KU+mVLMzREOjKPueELZgX2GC+6KW/ih7aqScxmY2RJNr5yRrJ4hlukbjPQ7t6wunZTposopqtUpNhTbzmueDZ61o6aEy2kz7MZaOzSXk9dJJ55x8nLWFTquBary9znrE7Uy71dPDVuBxF+TboF3EKqWNjUvoO9BVLkgmlZ/fuhc1mU9RN+oUoV3nEk9gQSZJJhqh5mvUCzlJD79bvzDBUkgCtu+LGmu7SlbTjpOQ8oAIC9ddwps85VHEgkLhAXUdsJ0k7uArarGeONObpM1J5NE8rlM6e1QWjFqD1eKVfgvQ3J3xZ51NQYG1l6IuSYSOlkEFHKsYstkzUzG37rs/TLmoNVut00ZP47QgJrO0MftY9jDL1+C7A12A9nTXD8OVz3Bq9TxrCN1QXCPn6BvehnAmGOdaVC0lqNXGBdDoJhoa/6Nomv67IPIUC9VQB4FCnVjLxN8g/h/2mz9gWjSQf+G0VEohaMszkbtokLfQDKAWOQcHdJc9MaXgen2mj5vG5qxEI8yq/if3O76YN8WpgxKNn1Qy/O33g7lBTIVDaCpSn3uG9RHmBZxPQoPXCZQ2cyL1wop4jEKr8SnSSy+dPlAt0oWvUOEMZRzn9VEogg+gJvkWfYJ+tvpIRCJHhDwvTBIt0dVdpgQxgYdi0FqK9aDxILCmQQWNh3rIWI1z791qlAtt+Esa2B/76eeaWHFo9+Gs5FznfuHe1FhoAvcrsTmFeT37s7UKRmPfr9T/8k+aNQqoYH3q9ZaGOFi57vcNzrQsWi8VisVgsFovFYrFYLBaLxWKxWCyWLP8Bd0OMHy9KQeAAAAAASUVORK5CYII=;labelBackgroundColor=none;fillColor=#182E3E;strokeColor=#FFFFFF;fontColor=#FFFFFF;" parent="1" vertex="1">
          <mxGeometry x="-308" y="451" width="84" height="84" as="geometry" />
        </mxCell>
        <mxCell id="MT3VQ3Qza3Scs-Q398Xu-15" value="&lt;font style=&quot;font-size: 18px;&quot;&gt;Prod environment&lt;/font&gt;" style="text;html=1;align=center;verticalAlign=middle;resizable=0;points=[];autosize=1;strokeColor=none;fillColor=none;labelBackgroundColor=none;fontColor=#FFFFFF;" parent="1" vertex="1">
          <mxGeometry x="-233" y="451" width="170" height="40" as="geometry" />
        </mxCell>
        <mxCell id="MT3VQ3Qza3Scs-Q398Xu-20" value="&lt;font style=&quot;font-size: 16px;&quot;&gt;Trigger Pull request&lt;/font&gt;" style="text;html=1;align=center;verticalAlign=middle;resizable=0;points=[];autosize=1;strokeColor=none;fillColor=none;rotation=0;labelBackgroundColor=none;fontColor=#FFFFFF;" parent="1" vertex="1">
          <mxGeometry x="-63" y="45" width="160" height="30" as="geometry" />
        </mxCell>
        <mxCell id="MT3VQ3Qza3Scs-Q398Xu-29" value="" style="edgeStyle=orthogonalEdgeStyle;rounded=0;orthogonalLoop=1;jettySize=auto;html=1;labelBackgroundColor=none;strokeColor=#2D7600;fontColor=default;strokeWidth=5;fillColor=#60a917;" parent="1" source="MT3VQ3Qza3Scs-Q398Xu-21" target="MT3VQ3Qza3Scs-Q398Xu-26" edge="1">
          <mxGeometry relative="1" as="geometry" />
        </mxCell>
        <mxCell id="zvgNvQxq_wlNGf-tIKfd-24" style="edgeStyle=orthogonalEdgeStyle;rounded=0;orthogonalLoop=1;jettySize=auto;html=1;exitX=1;exitY=0.5;exitDx=0;exitDy=0;entryX=0;entryY=0.5;entryDx=0;entryDy=0;labelBackgroundColor=none;strokeColor=#2D7600;fontColor=default;strokeWidth=5;fillColor=#60a917;" parent="1" source="MT3VQ3Qza3Scs-Q398Xu-21" target="zvgNvQxq_wlNGf-tIKfd-9" edge="1">
          <mxGeometry relative="1" as="geometry">
            <mxPoint x="191.44000000000005" y="63" as="targetPoint" />
          </mxGeometry>
        </mxCell>
        <mxCell id="MT3VQ3Qza3Scs-Q398Xu-21" value="&lt;font style=&quot;font-size: 16px;&quot;&gt;Pull request&lt;/font&gt;" style="rounded=1;whiteSpace=wrap;html=1;labelBackgroundColor=none;fillColor=#182E3E;strokeColor=#FFFFFF;fontColor=#FFFFFF;" parent="1" vertex="1">
          <mxGeometry x="-258" y="64.84" width="140" height="30" as="geometry" />
        </mxCell>
        <mxCell id="MT3VQ3Qza3Scs-Q398Xu-73" style="edgeStyle=orthogonalEdgeStyle;rounded=0;orthogonalLoop=1;jettySize=auto;html=1;exitX=0.5;exitY=1;exitDx=0;exitDy=0;labelBackgroundColor=none;strokeColor=#2D7600;fontColor=default;strokeWidth=5;fillColor=#60a917;" parent="1" source="MT3VQ3Qza3Scs-Q398Xu-26" target="MT3VQ3Qza3Scs-Q398Xu-13" edge="1">
          <mxGeometry relative="1" as="geometry" />
        </mxCell>
        <mxCell id="MT3VQ3Qza3Scs-Q398Xu-26" value="&lt;font style=&quot;font-size: 16px;&quot;&gt;Approve&lt;/font&gt;" style="rounded=1;whiteSpace=wrap;html=1;labelBackgroundColor=none;fillColor=#182E3E;strokeColor=#FFFFFF;fontColor=#FFFFFF;" parent="1" vertex="1">
          <mxGeometry x="-258" y="134" width="140" height="30" as="geometry" />
        </mxCell>
        <mxCell id="MT3VQ3Qza3Scs-Q398Xu-39" value="" style="shape=image;imageAspect=0;aspect=fixed;verticalLabelPosition=bottom;verticalAlign=top;image=data:image/png,iVBORw0KGgoAAAANSUhEUgAAAMcAAACNCAMAAAA0GJ7+AAABO1BMVEX///8AAADRpBr/3Hb/3nf/4HjWqBv/4nn/5Xt6ajn42XTZqhvS0tL/6X3Y2NhjWC/s7Oz09PSqhRWXhUdbW1ugikrCmBiOe0Lj4+PKysqHh4exsbHExMQODg6Ojo7rzW5ISEg/Pz+kpKQfHx9ra2spKSlMOwk+MQgXFxe6urpTU1M1NTV8fHxWSihvVw1jY2MhGgSZmZmbeRMAAAooHwVhTAyKbBFGPCAbFww4MBrewWe3jxdWQwu+p1ooIxOrlE/OtmIzKAbWqTavm1/n5MVDQDFwcnn/9Lk7Niz/+a8RFBz//c1AQUn07sP/44Xz4qnMxar/8ZpSSjT34Jrj0JBXUUPPvnailG51akojJzLw1ICLfV0AEifAnj/at1WggzPQwIqOhnWmnYKspZjCto7Yy6KDayXUzsFzb2Gskx+gAAASsElEQVR4nM1d92MaRxa+gS0UURbTBaILIZoEkkBIFElWLvH5nORiJ2df3OPk/v+/4N6b2V5gd8GHv58M2lnm29ffzKz/9rf/E+L5Xd0pmdzVnfz8eLVV38nvJw+raWkXN/KHDiGkdrj9fQ5rhJwcbH8fn5CGBNEtbXebQo3eprObSflAksg42kK5kufyTYq7m5hHoFqNmUgKfu+RryoPo7bLqXkCqFWiL8/i3J+ZHsrDey1C9mbo8NsPOeVxNn3ollRURpfARnbmwz0if0LIbKnMhLS8P89TVaeePu7P0ME8xtxqqhGJexufrKlDv/t7eH+GDo7me7HSVydDap40QzrVRp7/APo5/FoT3YAeIWFeDGuzIQ0vw3U0nj2NLffmsKQmIU/40FzHgzTdD+/phlX/IcJtul9vruuQhAe65DmurCfiOknp6EeVXvArsK/9pIpxMNO5GIzl9DPqupxLvqUb9PyfQa4CWunRT+wIhRMyXvHBYEXPgxy5GzzUj+m8CAYjkClumaf5RAF+GXlwBoEQ3RWSlIwXCiWGwkE8n1RCTF4/Iv0jR3mU9xNAQMO/nyGPysTwcGH++VK9mK7Vut1Wq9E4YWg0Wq1ut1ZLF+uFZFE3YPwTiIMDHuR8LzwgNfpXBZ5k0Oiyas0T4gnFn4PIo+xaJ78Wj2Aot3m2jhj+EqQ8FvsK6HVC+oyH2UQoytPpYjFR82FSTiT614vFdGq87PQlz3iAcvb2wgPSkkQlyHiIS10UuU6Ec5n5alYJxWIxNW9JROBTLFiZzZe5cOJa/rb6UgyqPJp7ydwpDyaPYFBcMWO/Di+BQDAkijyESPgD/0Se8RN5wrwYCvGV2WoZBi6vfhWD++ZxpOcR5IPzRWIZifA4f/Vb9GYLSmO6EnVfchxcF6nMK3zwG+MB1h6LhYK6zzJiLJGc8JY/cZyofRcB/UvvJTE5V/3VWvAzyiMcW3/ZN88jyCeQx4xff9V+ebxxw2OF5rGBBuVxutsKPVkqxV1YHMTBRwceoPnglJQP6Hpzm3ig1HbKQypCKCiftI42cQEerZXd9Dj0RJnlLCL/MZQhxPZCPcTEtnolJfPxeDwvydPW6rRufW1B0JHzXcuMIksWS/qrEHvUkfJkoyGhPIa+eUido94wXa3VatV0swmZqGSo07q9NZIuQar6q5VHaIZ2vegDl8WMxYxYIsy54eEzfkiHVWJG2fy56PiMoP4YP1h4iKspmYYrELXBLBIROn2ushStMzcC7dwXj8KRNbezQ8upSjvAdqKZhwjRYrKiNh4CRrLebZQG4+EjT5SKDUV3mkf1w07nsH7Uq9pXDj37x4Qd5t9MPLhIgkxkbQqG+iSzgYD6Z5qXeM/bWXu4US2aLFnq2TKxtZJkmpB/m+YJWeFCTaRCS0Wx7AAJFsxe+TutP7zWURJVqXLPRmPsedh2ALB/9cqo99xsQTIhdaYrcu3AgxPFynz5JJdYhhQexHtdS5sVaVunas+DNOxaAHDt6xcmHhOiMcPMyp6HGJuHmW9W0y7k4W2FTurixOr2f6w7mbuNRCAxGb8xGog+g4W4Yc+D42mxMumHc7m5Un9UvPZ9kiiNmtOior55bJSIdQQa2YNotnTdPyv2PEKZMpnm5lguhhTpidhP9JSWoOasGZF3JGIJJAcQbBbhWczJlME+ylYeHKYpUNiLhr+IS499UVxVrK4dUEh3LSTKtabVQqQGjZuJWcQ+yolz0rfywBlnzFKk3VUvfer4emnIFx2eN6tKA7bcTffqHdshXTn+h2e8XRoIDz4RsYgDXFpOtLCL9T2tf9AVbzfmhMnjASKu62aaAY63TMPpIlyx0S6oaHPWCSfIwkqDC117crt1H17aGYcKD0DOktFyoQlZmr/EospSGnI8D1Ii7jc0SKAsp7srHrHb/CqTySzn89VK4cHFQgyxyDVZKR8UoIzUD4r+8asc9rPcT6zuOdishQS3+88LXhRpt0rR/9yTHMWTcHkafmICTDi8zMigToALLvu0x+hhvResMr07GtRAar8aVYc3NK3XYsq6kZCghBMLL9kuBi7fGygskOJ1iDXjD0Zt51dhBddkEjbjmvTVf+dkpyyCCva9KAqEwNauWBz0TlmY+S1kEAgHOSwD1FFLMWJEZULm2nfaIDRz108YF/Qc0ipvyBd06eRzCIO8kQkFi+YmQKZS4dVPBmV032SAgtqDb3OC1Ckq8f73V4/geZ8nlpWYNQ6KOTIx9xA5hwyYD3sxj/oOOnb5Yk0u4cfph7f3V+hnsMs+s8yOPyPzkOk7Kg8rD04se9GU4bYrPvlOjXF4dp14eBeNCkKAkpr2ExmLOFZ2j75ybcNDDK3s0lAnYBDcJpYfFGUWrfD7t0AiAIgeA6n/rCoh85MPhhI2SQmW7yYhcaHIagnequp6HhC1yv6DYGkoJ46vHu4DAiWBPEagYCaPxbQKPNDcmgZzkDoajIaLZCY0CrqfWRKE5zN6JA9l0/5XGCQR0CELk3hl0+Xlcza5LkaXxcKUXokzmpS4D+ZxrxWXyqKu9OvG91EhYMQA3NYHi7fiZtdkHrNDmDwxlcI81h4eNtgc+ORxriurbsw0hBR8+9FqHTC1hC0mZGoSCN1H4GErgy8eeWPjYRANmAGWPv7FpFi0i+OIhJE2BkEvSbgPHlK9ZpxCO2sWSPSK5iYmeUSWqPMJNbOVsUSTDpua9OLEWwcu73lnELPusZ7IyMwjEIBvH80CCfIRCNGLTETUchKedeLnvNGNYZer7GVekrcOkVSi1j2evE9dajwuDcaBQIGMP73gGdSSlYut+tiyVpdpxUgGhVFRRCfKI0IJjzsTJU9eOt6k8/7+fRYc7ZVGJKv3VRTI8jGnoKLpSwUnnquwxx9awXwXc2WNKshnlBGga8PzI0TRldpji82tHkpF2nofvw9QPRJu2gqPq6hBoyzQpR0cP+vj3EVc9X9SRmFolhGa2Ax2py49t0ml1JEXEMajqKJBA3l/y4WOx3H7mAL/9KrPoMkDRRJDe0/MeKpjc31WLIbZ9UCnXD1lqLrLxt3muwfaprupatZCShaJLoRkZUAsJJ8iFQqjuXPiDOz9OrfQFEwBu7yCy5v5pAx3Qb3kymFJ5w2dpDU1EjB0E7sQImTh6+qPorE2UuxAXOEGk+uZuWlFr8blK8/7wXEBaeMYdqhkMZD16Ez3+KOpYxpCjP5Kdlnk0wvaNzETESM0aPRXnCl5EenlfT+dj+bGPEY6pwVF4kYQUrfs8etjHtWglMpsoOASYkw3bPJX9KFTNzWZ406AiiFY8hm8Pgw/Nzwqyui5DCPYo16rggc08F2M0EsJskWk9JFPSN3pmG3wVzBZyNNJOQcFfGZKykt9FzjUtxnsMrzhQYc1EUSiJ3zKl1nFSUVHIJO2wR6igcFUVazbYxV3MLJh9lfUTfVX2PqNYSxPrDQjQX+F4b2R1nDqtntQW6eN+TS1jFRAE4AQGN2RkYGIIIxUCWV1AM2qfTD6qxBaxlJ2U2An4P50XeBKJYItu3MpqcFtEdKxXVdiOGRuypQICoGrdjZg+soGWBiSj28M/goyp4nmpiAqJsBt6Zo9uNTsb2++dOLUakgqHamUJaHN3thN3AJMTz4blz35lWGFh+cz+uIcmz2eEkQdjuAJ2CUx8bRiajYVhisI2QuoDH80xjpzzNB/pruX/fY9Dux7Jh30tmxn7YVPHhBdMBq+3LQ/Sad04HJ9b6zs2bhe5qfuUtTPTi2lq2siGFx6v7ijQYvZsv99Y7g+aEp6JZqhH2cFIXtJjAmtR2Dk/PyzKxpoHFstxTTN58qSDWYWKAZhdGGslDxByLattm5Pg+6I32pbfr5szN4LSGOqxIjoza1/xYIyBW7+7I+Ne604utjj3zgocI+MFkM6LWMuDlmtWoJbelUbQaNI64ulDWQCO2ixZcscs151NYfuX2pn9SahTf5qlLVO1QWR8Zf1EqE0/EYODYea36aO6tLSy2F83j6C0XsViYAp/Ou1RLATv5OzUFUlO6Gney7tEw3g0bJt82wiMqCq5bwLPERPsu5i1RiPv2OBS2k4PnEhMyYXnhVLlgj56YXD7hmRHizeyfIeXUYvbqARCICHv/XBgxF59ulnOyIcv0MabJNVcwONAKjfwJcLFq4giR9//MGaonAiPdWys50hSbmvM3KO3cLb3/2YB0V0hPna6RdzROQj/R1KA0F3TY/XTTP6MCZnliTeNRG05eeffuYNwsDycJs1MSsON6a2Ucgc7uw9sgsIqQt8UB91eTwfW9ITRrvbUKEeNl5nHdH/mktzb0SytN3y+qdf5B3VYoUeZ/F21H4DMKd6hiJeo1hRqOVv/fNQ23a9D+i4eG5O+7nNXdKgGe6f57TYcJzpu9f+a0MZI0qk+/GHUCjCDns57DD3SYOqVHRWtGkraI/zXdm3u1IQzbKW8O+fHxijnZ5nxmP8ZABy/5Bm5ZM9j3nZpufgEYJ+4WTX7/XA+NemOdUXiBDk1uFZzsfOwvKAlO44rf/jNjbAAv1Y/pGfuvSD3WwxfJCtWVBzp0zSf012eq4OA4faQ7//o0WUTjTtmyPkFvpvu+HBuvSvD5++y94BkV3ZeaFsqP7uP9PaHAgEblKp0RVgNEqlUjdZAXkwVtsSEQKpDy+x6CWeti2sQ5wGDZ03jX5GidAusxXj28FgBJyyWSqibZjQ37qZ7oiIVDUGcSF6/2A96mXGRft2cDVKZQNR7wW7gQ12HHdyVh5t/FZrKURX4Ufz+TRHnN21b69S2S00LcoWhrZP2rFT0lYmIdzP/ytPseE0915zeFprGb87vkLr8cFFGMl32PZtEpgc3ik2Lqz+/ZretXtUkt8zZwUMSsYPOofnvbSe6xno2U0g6i1pYU2620F5W4ngm2jKcoQW3v3G5n56gJ5QcnhTh9rmkqRkvnA+1F12dnc5ykY9iAWr3bsRa0NsE9glzELk3u39/DuqT+o+iKT9IRxLxSMVQDTadqyLAVq/Ky5CihyP8NLo5XalFGaFlzKNP57jLJq6iiaZtuNhu+QjxTvn2qtW7i6vbgQ3VC5HAVkRL9ecEd0INA65+3H/GWsP09qoZEfk1OluUjKu7vUjZ+3BjQvDVx0M7jzzu2KAAfCCpX3vaAy35GySzXHb2tp8SCoVh4qOTUHD3BqLgJtlvb5LjoGqDYvjTBpHNomO9ehgY5P4pYNOT1Gx40HKna0IdClx/TNyAD5r1osSOri9zd7zHVqIuHH1UqEnh5jp3aULBVM23Hh6lxwDbtBndcb9X3gLpwZSwXzgbv0BPd3Ao6GcGNxhZFkrjAHdJwiXV70mv/QdZiwAfhk6SgMRN2dbrv0KeOSabPaXV876JW+1GYxGF57fM0jX/6hxCG/QBtalnMmmydK9/E5cUbALR/26nJYHuKoiCFgoeiNSV42DatWGrbImt+Ux9HZ6skTbEFYsTLKQz0TlfIYuU3vpn+DhOLbtVvgnhO2TTf28uiFJcWsh2s8dyiK9G6QsKZg+YtJNWx5yxqpqHLPPrkYeGKzdR3aaLHap1Zcxn3J2X3R9wXXOiHoip1VfTt2d80oaXgp4iC+tKx7VS15CcEc2lSm4L0cmVCIuU614Q22P3JfcDpPOdTxOaorNe3pVcLzekm0+JTg5Ykx+T9xZIOjIhVxzPD11vx++ZFsnVr29z7Vw2pBt3lG9MIt349vPNa26xxzL9RJKvmlLxAsPQPyICfPMznsFlBRlc6pFtUqW6o9FTyfu7fJGHxVQXj7JczG4sQuOQqDtsJPKMBd8qHJzU3ja9Rh4StbXAvjqdpRk9Tq2M3khe7z5OAcmfkqb591fJx7SDAob3fLXfooXmc3fjqy5F63bNyS/J1orV3i5cdOrFQa/ReH31ctxuSi4HVmcF91cszawY7tK7YG+7K2p7xyBb8bSw/9yknK0p2yJjcLNGRDB9yfY7xfF1TNtRenpcF/vIVVRZ/H14iprlAlNtRCN9FGnYNmtBwI40/Yj/FXd6asAfCFZqCoBxbi5eaRpbmNoCrcFol8Yu0cXvJ/3DRtwwJpg4ytDOR8d3VWrj4+P35/QIsvw7rCuZuTIA2l9AzzADffk0KjXLiH68s2bN7P5+z+xziItLV5jMqVbIaA8drkEvwXizE7u/jR7YQHy+uzojopEufhUi+R4xbfEAyNTw0a7FNFcnRF1pR13Fo902+jfdr4VvWKQ34xg8V3Mf2FHhb0GBNugbT1qfrKjrwn5YF/7ytq4F3AtkeZA9o3n/byP2xGKdo0s69tCYAoRs4T/IZIdD+/x/CuDade4DXmXYADrQsAV7GVJJuznvftrIR90OMZVYgPa7v+PgW8D8aHjGuU3+NzXoWNbe5L9/Yc5fiEd2JpzNfk/hMkPnlXuErgAAAAASUVORK5CYII=;labelBackgroundColor=none;fillColor=#182E3E;strokeColor=#FFFFFF;fontColor=#FFFFFF;" parent="1" vertex="1">
          <mxGeometry x="433.28000000000003" y="373.5" width="70.58" height="50" as="geometry" />
        </mxCell>
        <mxCell id="MT3VQ3Qza3Scs-Q398Xu-45" value="&lt;font style=&quot;font-size: 22px;&quot;&gt;Data bases&lt;/font&gt;" style="text;html=1;align=center;verticalAlign=middle;resizable=0;points=[];autosize=1;strokeColor=none;fillColor=none;labelBackgroundColor=none;fontColor=#FFFFFF;" parent="1" vertex="1">
          <mxGeometry x="745.89" y="-76" width="130" height="40" as="geometry" />
        </mxCell>
        <mxCell id="MT3VQ3Qza3Scs-Q398Xu-46" value="&lt;font style=&quot;font-size: 20px;&quot;&gt;Server manager&lt;/font&gt;" style="text;html=1;align=center;verticalAlign=middle;resizable=0;points=[];autosize=1;strokeColor=none;fillColor=none;labelBackgroundColor=none;fontColor=#FFFFFF;" parent="1" vertex="1">
          <mxGeometry x="498" y="373.5" width="170" height="40" as="geometry" />
        </mxCell>
        <mxCell id="MT3VQ3Qza3Scs-Q398Xu-47" value="" style="shape=image;imageAspect=0;aspect=fixed;verticalLabelPosition=bottom;verticalAlign=top;image=data:image/png,iVBORw0KGgoAAAANSUhEUgAAAOEAAADhCAMAAAAJbSJIAAAAvVBMVEX///8zZ5EAAAAuZI8jX4wqYo4oYY0fXYsbW4ogXovr6+v8/Pz5+fnx8fGKioobXIrw9PdoaGjJycnPz8/a2tqVlZXj4+OkpKRbW1uzs7MPDw8qKio8PDz09PR7e3tsbGzj6e9QUFC4yNYXFxefn5+9vb2EhIQzMzPJ1eBmiqmrvc5SUlKXrsNHR0eXl5cdHR3X4OhQep5+m7UwMDBehKW0xNOgtciLpbw/cJh0k6+EoLnE0d1TfaBghqYAUYPh+NiFAAAas0lEQVR4nNVdaVvqPBOG05W1CMguVBQFREFEFtH3//+stzQzadKmbVL0Ee8v5+LYJdPMnskkl7s4lMrFerddHT0N+ne9Xu9f767/9nxVve/Wi+XfHtvZqLQm1au3f/EYDF/qxf9iJKVSKcttlWZ90r6uPjwMH6ov3pzUG61gVir16tMygbgAzw/1H5rM5qQ97AyWd73Ta3q95ePtqNqeNG5k7i1Oqs93ouHeDa7uJ83G9aMUcRSdrtRrpXHTao8Svq/HO5MEGalMhmrDl8PV5LtmstgdCb9+CP2rakMgIpVu5zxCevF/Wl5/h0xOVAbYe67WOe5pDhMGGIu7zklzNiuVyo0H759Kc9J9GT4LLr1qnkde5TrD+B7v8a1N5elbdu4nrfjx3NTbnTA/dc6gsVgVDaLXfxwMngeDt2X89NwNvalsRehbPneG3ux0J5Nu++Vh1Hnus3/1VGQCcQGa3RCVVxl5tRSev7urh3a91SrelEsne1GuFFutRvd62BHqoGWIvqvreqsSfsdNsdl98C8cTVSGWZmMuIdfZ9E5dW7cdw+TSqwJLJUb7Yckbd+7biTZz3Izg1Ysd9k3Lhuq99+w32hwL8k9V/0wbSfyhmcqg/gXXjGvGap9pCYzgQ8qA2x1RzyV/XYWy1yquavxfLH7WK8P6/XHbjE/rtya4HWMoe2rTGOX4fCI7KSh3GT8k64y+7nT94+v171pF3TdNHyYpq5btrl/PWynYTJbzDzeS78kUKEPGV2jYtt3n6sC6autVtPpdCWckhOmn/+zDC0vgqaZBXO/PvJPbQzocK8kvWUqgrdh8au5U491DrOvzWYzO6x32/nRrcXMUus6dHttNf/Y5G3b8WF7yG/W22OU0tXMMoQUEjINx5qNuZvalMRHKYVMCWxz/+2OT+NzPNbRDM2DoRk+82ivX+vtyk15qDuf5R09PDfeIwrOfrZdhahcbex4Ek/3Wfn1irm+9UTVmoTSGIqudRefhmXG8Y6hW9p+Np/G8sh4YxTEN59g6IX8gZ+V3DhvJtKYN6zPMXP9C53GVH2DMnjLMN/x1dbjB4h0evP5uV1FqSxvNSvt7rxWsGf8F9olfBNyi7NnaGxQEuvJBKIWvQr+633vpA4QX6o7xmHusg8szfOW5M12fsHeunrV0+5wPgNerTxLkdiMEDh9laYPXlswX4/MMCXp82FqrHiVdsnS6L9sTbm7RO1GAqOWwJA90f9Yp/GKAPoXZbdFOn+GaNQPzDweY0SfvSEffE5q/uPVzQO5YIC/3X2KvAvfucHba58qEwgw7F2gdGqfaZyaz9trqjJQifTijAZKK/59mv4Jo9D2OMBVPsGsJcDMzwOuWqdyat7c02nHcOgxhsI3XlLHqQpUBANfN43xTCTgfNEx57bpJGoa5VTgwn8jIYHgGgzh5zH90QLY+LJjBgkOxqwH0/iezuqaQy9Hf0Xko5ZJyN4Hrl5lIlDf4QxmEEEWzoFKo4yw2Au8GgNvgba5J3+ZkF+1fZYp0F5BjbpZRJiDuaeGQ4nEG7AHtxECb5bcH2YZtGg+X4BRlTN9Hx6a/k5JlNAIBSSxFWf4u5y1nDtZBmUijx7SlbwEbHycN4sSV2/h4kmMPh2wU1jLJITavnzO94nCWuPoZNSejW7qk1ASG9wUrjPxqANs5Z6pZQJYMxzfXIJEc8XR8sBTSDyePvmxysRk2is86zObpRdB/8IBLiSMBjobxAnv83EOIRuC3kOmITpTcreEAZOHSZ1cCdnWD+TStoBN66y/5mZShBr4o9nsTOqoc6VXCZvh+pe2BFafMGmH/NhmYlILvJnFt+jRAAVUNxLijQ7HW9R1I//VJT8yGnuYwkxKKgkOWrqjhIomV5JQccAIIkS+JDk2zeavgSLdffMUenDQDKQ/G9gUBJHJ9bbZuHCXaRYM8sHK36lmENpKVhRBVOrsjPkYsQYk0yDMj3NkOAXUlUgNB8wty5OB41YaMP/hZoua3DNkOBUmmsVFIflCg6ilG874eaiwtiKTOUM9c0wZQVbYGACm8KkBThAh6JpSCG4O+bHOYu5N0HeHH5nCfJA6SIk7tU+WwmpI0XSkvpIYFhlA7fv8tRAMGHqKy4y8FKawysxpLcv78dO9/xCTeihAcFRLnACkkCz0DymFHcbeZ/K6dWDS2Y/NIWWT3DbpKyKFvRCFSyZyOmZRNBDb137CGCLQ780lTSLPpQGFrAewzWLvwV6Nf45J84FrM05w3ngKaYRYJr/JKD8yMJoGOjpb1CX9FrT7CboQJzqkaYgH0CP3Z9H3mN38KVMBQGWTYLFj7GGD9Uq/MgzTJmK4+kkx9EEmoRTvOIFPUyIUviCFJDlFklAycWYENnnO/Cd8UhaosuOdX/A8WiGvrcsY/CyZTrSGP+bQUFhkEuMdC5AXcNImPIUkIq7t1d+LLtvPeN0sdJDEjziFD9ETpEzpUmmbMR5ZXJoCUePZ0jtK0PIkCo2NoqwVM2d0mfBsCiFymn5THjgJ8DFjDYZD8okPoRj/XAqNcor8fx+Mr2SlZpE/Eze0XxZSmEHRgB+RKeySe4NhmoWCZVkFHfjFFfMLDoVE9LQc4dw51CCjuWE/zqmOSLcsPVIHpfx008rvZ7vt+/h4HL/Pd4RNS5/Cx2KIv2R0Z4RCdV0KK07MnUbB2X+tF/P39/li/ZV3sk+u5ux3kXrEE8TpMjAWzXCIf6a1gMfWwO027f36na3Hqx3XGWnUnM0xppRM7OQXiLEIm8NzLT7YIF+Da1Z+t4qOp3awMzCruZ+KyTu9TSiINvmwsJwdrFsQ+/hMfogZPAmOi1/VNGZxY5qqf7nCIaFcVGiatD35I0mO3gUJYZI/hcUo9TAdkkRz2/xw44dUU3V4C7v4h8UE6qjzntlQ4oQmGx9m0PmENXbrmKpfJFFtFvU1e3PJDVUWCykEzxySo0z1IUTApOJZeekI1yUjtcK1lQfmf12Vb0eXW70Hj9d7z/IUPHjWx57GUwgrmKBousxYWMFUzkTQChOWuONuo9l+sfP+g2oelejKxrvcD90yDcNEuwp/EEbBGqdo2BLFPkOzchiLsVNA3vtMc2gJjGYGxT/yomjguuhY0zVH26x360+iW8CpEbmIOJIRK3UEZLmNLJkqRwg0B0awOuQLBtBmOY6lG3kd19fH0l/PgSl8dzybOCVjXREKybNEwmTA6hBJlvbZUVUZk5+QIoihcMY8afpqo7QZ+62nGo7bL800UKiki41hNjyGMoMKNzJvRCZEChHsfZFMYZUZFrhtb+THRpFCI6BwugkMu0ZLDNydbkHkKrs0iaVHM4PROL4hw98iowZmqxv2aHKhlRnVdCKlkHdcCkHt7knFEN6SDSHBTfIX+qgN8he5weSJPG+098NQcHgCGBCyZPquaC6QS48aN0HmlnkBFhOVJfkDnYjCScyBF1b+l0c3X3ATTvwdy5GAcp+ZV9W6SdQ0EfkNdFlNQ904kySRTJwvbMb+6D2pBhVD4OaL4kOwhpBnCzL6PkhMTJJvqjVtqBXCfGMG8rk2MF8tJ4h4NVEJXgS12RgmR4aI3W0y2d2ovc8h64Kbo6pLX2McWnNGZqJ0WvIDJS+3/KbtSzxbaHRMBeDfqChpkOCATQmhYnaiTB/VOIkOJ245wDAXK3e19T8/6g4pEUAKBR4CmFYBLwD/3vTZSIkCVi4I3aqrT/BSkQ42HdshXxucYrkAGz9aVGGiSAhmAZwdcWFirthjPDnlaoPYz8oAbYpk+FmLYQuMj6JuCdIOey4iFcKDc1QN+XhpQUkuZtBKj8SynegQcU2DUNKLbA0dMX6banZed2WY2y4riACkrqN6CaysYBLgFnDZOmECQdU8q3xnClBvKQlhiHrkRKBAHIRo8h5y3tE/oHK6F9qKHC0Ey7TQDSKeEv3h2KQ8JnBPSpE/WHHmEB2agcBl83HDBsGKCxCOFIXAX3KBPtq2iI0FCqNhGNRKgP85yEVxx4SIinlvJyHqDgDpaEl/AqL1COfrcQKaZ6VNuCdoyKoatYyiHftWbsxx7qv4mWSuIgmHOAqRSZ/ZGIIHIf6O/FDLt0lSCLGNXPgJuj+y5h5HIYwBvO6wQ+OjyUqoWvGWnBxicC5pECHQDbsRYBPC6TK8HJj0JSdAiQ2MV0rKVE6Xop8iGWDDQ8Oq1xLnEnH1O4FJcSsNJDfkyctLUwhRrWQ+Fkt0QmILDnxY25tuKpOiP5clvJDzaXDPjmTSFN3MkDbFAJi3+JhmAJ+UbwZBATb/RmUY8Hy5ydGVKMTvFvLPQAOV+f/FnNAyztz7KLI+uXjtKg4ysUWgBiWTJJjn4TUTWlX+M0Gw1YjzSQFESmHdVCVXkxAfiiiU1NOoHvndHxiEceKJxvCK1ZYCEJsPGxAV1ti0V7mSP8U5RLXJux80AmbHB6oOPM9/cQTCOiksKypUjuBL00w5Uij7ZEzPcZOuCRgGBxDaix5Fi3W+FXZyayLGEUBNl3rQYdWOe7DAYXVAzwxYAoRYMv5AWZpA+q3T+BrsoTx3oBnn7gCOZCYWI8NGojH0MWI1kXwULFbgAsipXAZQ4FRmKYyafPwQV3Gxb4AuZxGltalF4vH0zUSqny5fAL9mwXwUgcknXw6sXS+pNxlnEV1pZooNu3lgbKEQmdEtjcxYMCtJiTbBQr6k6ZkTeoxFlF9GlLRzaMmk6csHlYjMvsPIygy8Hlbqk/RMDmsWYdFGuu5ei1+UZYEfX6lcAewAk3SAhGkZA0f8cCBiovQFgwkriPIVC3JVKpZKJgrhRPYWYwYHmR03kD+m+DMEFfaqmvRQyM1pXhCoebWEOpXE4H9gWmFLAV4ApmKZ1nTvlhVW2cIJyeyECbOhmKkESZzjhwmtcuMkQ8+W1M6JJL5akh+yWVM5CoVFqOlADZwL/gOSIQZLb1PCVPhoZHLcuI8aB8hiKxd3wn25d4cnmVAIwo1L98mm4oTKkp1r2UHEl38wsKBUQXWTMc4ZCg1S6H9Q/GNRylT4uGIjKMmcUVzylgMqdfWd8BY4NlBewGkacKdwCmNDXwbcPgWZFgZ5anKTrQs6YFn2HEG5CckdseuQOJ8V+SnECArshdxo2BLhtGHGlNgnAhcGSf4b0hh+SIUbEmF3xVNOBm+sxMpl3HAESVyK6ZVMXUGgyIHscUbXiJlClEK5PsLQtI4IsFxKBfkmKWiAVHW2dg0YgPp7cEF7npgBM2xVlSnkmylJlilCYiGh8BDVQ7aeIvT7nDgAlmO9l+FSD05hSt9SCnI1VDLIRTqwupYgtigwinUsCMyTeG/AtJdHLGaqwu0s0wCKl/yQy6lgMi92yxwKjJu1dQ11wE0U6I2GZKtOIaa+ieKVq8pAuxsbNqCpyNy6Bp0zVwPFXbZoq5GR4hTmbkgYDCs0cuYLljPjQ0oiqJm6NcAbYBLXGvmYUwdD+6bqFKJbAys0ctka3DIXk6rBGph59t36lM9BINamASYEgopol8R4TDg2lctHYWH9Vng55hnO2USLgS7RM2UTi47rSraQoMKxqVx2n5Z6bwSXo6nI1g8VYHyxY3x3cAcELIle5VRA5v2RPEKyuh41t5uPzhOudarWj4vf4OMT5RKbc6udL8Gzqdz76a6SVbTVKDhd2ZozBW9gdnUcbeQZIDA9LuRQ4u6SLMug3UMjrUbRqTu3UZ1Du5l6UwhqBns/q57gMGKNvmzVN24BiTRIRmudqXURCw2L9t//B2oGe7HKn2sBqHMWRlIDanTXgLvnZkuDDS9n98ygux7GGPaDpeinJdiiINpUsYmi9klf9MF0YsedOrEunTxow2f4lqAwghxpudV9GT3d3g7vEw/uyVFflkT60vW0TG3+akOb8YObdYY/E8Dg9t+WoS6hczpUqVXnj/S6Sz49psmxt/RiEe3D6WE6s+GgEfLBJTMiyQjavZ+AambwNBAeUZSY/uZ2mcrXYursLrbafGbqlg2W+nu6ETBsQtVMPJIUEKyIgyskrQUZhU7grqbAWJZ5bucBH0Fj8twgmbwTEhZLIeaCWkxZj9nZxj5wNftYb8xz+tD7MK0N8ulLMnEECefqwIoxkVZJLeEs4p9HnjPfn2UyDGvn0ocJD71bjl4mjWajfQu/E3wdSNdA+ZCUO1IAs5ArvcR/uvkZvKpvWD2Tu2kzJ9rdvXWuu0x8gSFHgrMD2gk+vsSnDxSpN//D2GBmlTmE4nevE1SaDQ/N6Jl8qEkSJJG/Ir2BuYm7BCHRM6jGHMAqij5kYMyEj4sDbMAP7w1iABVUEOqnxgWBpQrkozcYtbtRo5TtVAlmK6kciCgmrWTASGGEKT5XQGBYxdEGKmXqR2XKR+lUT7vb13idHYA7JkAIMKiQSE7ZJQG1oNyhez6wB075oL1uYU9pJgfOxvhz4+ia9RnX06WEA4k2jogCDAbojMQPj0kUqsIQAyCq9KnnNeu1JvEsMXAFeUr8Xe9Zi3BfntrquJjtcXs18FJiXAXOKR4HkbQoMeZvCYBmY+bThMckZeiQCs3CgyIfzbQMv7fSu9/HaPaaNzwX8TU0hSkJKjglAsJEcRrNJxDFIuIp4vM/wCnCsgN1iwHxNe8ia5pp+q2oTONkZjU9cDkgzFgmEohWH5PJccOilr4SPhMdk7T0aArMtai74U5qVZJmb4LYCs8niylpD08i2MSYdaPghK7QicsdZFHGPGTvIJlSK8Cfo4cE9tneHwmTuITrhGY/aN3CHf/br9JNHbVgHzZSqNrTICgxEfKRpuvsWYjBIXrpaWL4FmDTRD2CtLwL1waHug5GXSZ9WWZX6KyMc4gURvPTnsbRPxds7N+g5z1f51KBqgPmQxAK0z45sHWzc10v8qZqxlCDKUf1Nkaw9jTXbN3UCDzdWbCNzW7scu97oF9aKg8OE4OewSJMIj2dx08KdaInM5fZs++oyCqXnNB0cGk13x02n6+fm9l6+z51w4a/EeQz5Ba9yyGdFDrqxUL1fDKEI0HMNGVPzzOoa6fcjFnS7S4yZwPLrmTgObTApyXuJC96PMppN78g77PiurkEIqtuLQxB5BSljw2Kq+nXAyAbggXw5U1g+AsYEZYHAgLd7SeX39c0SqA6hWZa+sBjI+b86uRy9vCNcAvNB6whE6rZaOlPdoLnidpxt9f59Qv9lXEjlfsNM2cFClFsc3mpgdRB6Qg8FZK6B+O9Y2qms+cOVaRrzGV3/rG3w0cHa84HqxOUKQTPVxRQ3BS7D6F0qYSV4IBfJ8idHz8OH2P6Nl9UwQBOD3s72rBUs1/5borKRSdglLq31XqzRXIH5WKrWW8PO5FkcEf5rHrqT4trAUhECN5DbWcXQgRqpr0fhz6+cmtGiD9JSHTX77/1+8temDTyR4WKBQpcABGKbzfEGKXjYZ+3Cvrp6G7D8/yNPdvss5WRQkhhCDOILN4UNAwL+uBoPIlSym3bdFfvi/XBw247ddmrG/+yUYiFUFdiuhC3KYX6CaBP7vBWvRh42zIexP2/rBSCM/SYQF7/Wln+WASBUTVwzMrX7Bue04rIi6eHZKQQLG8seU9tJfsgwlPwtOGkWLmpFLuj8Gu6SauSFcLq2SjETieiqXsedlVqaWJR4kVArMceu3FJ9BaKMlCoaC24Ds9Xw9FodDUaDattz3SkxbgKeBASdQLjTtyNJlH/u9gNOID8j+oRGlBLQ5T62fwYi0mYMsAwlEPsje4nzZuSj6Jnk5fsH7NRqLPHASSsmJ2LYkTyTpx5srANMdcKQJ6krGlc/zZfsy1Tt8Wcg8ZTaMDLNtEulfAfvpdCyEP5uqCvWh2kiCbrVnQmgfYMp/OTKcy298kX+Mdv1C0xaE3uPW1WjejodjhdymPQCyhUjC0wwvefMFAvD/o+NIZxTsfbQ5NUv5ALVSkkkShJqSRtRv8PUG61o1Re3TfL2CKVXKZIIWcOJXdV/Cxak/Z9dejb5G4dFUOJpVBN03Bni8rs3volPAYUKuZpbNYcqlUD/6fwNWGm1v02Gx2Okt7xu/ApJOZaMSOskwcQ1zih9uC34UdgxOVSoxBT+qT2QLla9r+DTyFxm9XWLbDHAHew9iXCnwISh6v11oR0MNe14yLRCShUW10Dcwg5v28Jd38Go2B8amcqF7ijts/KxvwshgGPqR0Swh+X/oPh4bnwzRnJ96kdV2uwh8WlVFf8KtoBhUqd+7G3N4m/H3+ThBR0A12vtPcCY6fnS3dLSZ6HrGAp9SzkYieFlc//Hj6FZH1Dqe8A9E+EOq4LNvhE28P5fCoUWtxhcRds8EkAC5GBEoUkdgJj8aOZtjNRZCJ0JWtBjAUskvwiAek4DRDKABXa8GBk0bmELE0KGHOm0JWOS7RdtColbVOWyqebY8OGy1elwGfKITC0EWpdvFeaA8dUOXyCEwHIulBqwejvoh2ETwrBhU6Iur70NNQJE8YxlTaIfJImrar5l1EMlKH8STaoaMgq5M+tjn4LSgGflaQNIrRNIRl9+Q4tv4SnwGRLryAaZKmp/QesYQ6UKXEsZfOJWFjaufQsFEE9MBeyqgaYlIROvd8cvBR8VQM5azm/DYuhyKKM8FyOy8JJEKEqXi6hiB3Zbv+AQ+OjHYwzepJTwhS2Lj5Fg2gxClGmAxXsdoI028XrmRP8fBmUGqRvYMM+dmQKVXpd/R7ajOuV2imDtjLpXHyGJoCv9bGdzDrRJmo2tqAgYcVFVChI4JaZxNJngmNj7bF4GlbVLtwlpZiwCbPaPoZETc9vaWHQ899w2BBlP92C9RS1T5FCNZz8Nth+Qlbv336zEkoN13y6ZaHze0803dIO7OYMqIe84FXDMKCjHx2x+7F3dMPQNMMwC9b+a8HtPanwG3X/BsiukGXggZVX2/Xs62u2XoxXoS32uB30zwihj1IvTGLslbgb7cKzMxHAEkuaE1aCfbfKLQMvAFgTnxQMta5pYfXfYlEC7HE0iHHEKhNm5/ufUjKICi3ff46Ov9lmOxeo7ZW8HFSYHQqddrNyUy6VyjeVVvc6VBF/wUVsKajccoT03gaDt+iOhuEfCOpjUYrfgoN4+KMMStEQ9ToM5C9xm9hfQTemsn/ZOX+v3YWgVI/uM+pUG5dcjKCOUrP9cNv3lEyv/zy6737nZjuK/wPXFkgcthKiJgAAAABJRU5ErkJggg==;labelBackgroundColor=none;fillColor=#182E3E;strokeColor=#FFFFFF;fontColor=#FFFFFF;" parent="1" vertex="1">
          <mxGeometry x="741.39" y="-7.5" width="33.5" height="33.5" as="geometry" />
        </mxCell>
        <mxCell id="MT3VQ3Qza3Scs-Q398Xu-48" value="" style="shape=image;imageAspect=0;aspect=fixed;verticalLabelPosition=bottom;verticalAlign=top;image=data:image/png,iVBORw0KGgoAAAANSUhEUgAAAOEAAADhCAMAAAAJbSJIAAAA8FBMVEX///+kISLYLyetJSR5FRShICLbMCefAADnzMzXLyelISKoIiKjGhzQLSbULifXKiGwTE22JiTMLCbFKiXXIBW7JyTGKiWvJCPXJh3WGQu5JyTWFADAKSWgDA5zExPpl5T65+bxv7399fT43dzvtbOiFRb54eDbQTr209LfXlnqnZrlg3/dT0nbPjfzycjoj4zjd3Ptq6m5Xl7SnZ3cS0Xke3fspaLdVlHha2bmhoOKGhfibWjFf3+9amvbsbH37e2vQ0TNkpLfurqqMjPDT06UHRqrAADLUU63BgCsOju/b2/QmJi0VFXKiovkxMTDensFnJPvAAARTElEQVR4nO1de1/aShM2UBa5pmiExIgEUAFFxIqi1ZbWvreetqff/9u8u+FiEnZ3ZlYsen48f5yen0Kyz87s3BO3tjbYYIMNNthggw022GCDDTbYYIMNqGgNboYj1/d9tzO8GbTWvZwVo9VtjH3PcW2WSqWY7Tqe3zttr3tVq8Pg7Nx37FQctuONG/8Ikt2znOcm6c1JOqPLN66uQSPlu0xKb0bS8+8H616lMSaXPd/R0ZvC9TuNk3Wv1QSD+5QnV06Jtnq95hvT1qDBPK12LgnSc87ejtlpHaG0MwHm+v3LybrXjoGwnUjtTML23OvuutcPYHIzSmonSZjM9To3r/hEDnrLjp113KWf6QXp+Lev03+cNM59d3nB7jBodGS/EOwdLyf7ueufvzr/wY2LpzAufpvH3PfLpoc5/vlFuyP/Eo92bpvrJhVB+4zbCKXW9cVHJjfl6AHlHrB8wb1D11F9jfuP3MXrEOTkcqQPzLyZMAZDNjWyXED9xtRm3is3Zirl8dHazc5g6EK+wR7NPzy5HPuO4/cXKUUARQW2l7pbp/8ITjuYyMU7evpK9+w0onqnaiV9EqTTX1f+0eTGBeUH7HPVCs9RzpIf2jUEAu0Lho9cvFP5RZo+9gquP7oM/iA9jW+QysDz5UIcE0IBbq2HfyoQ6A4J4hMhyvlNIL1QGy3CECKiO5VfaZWY3JzrfcPSoi6USdFg5NACOrFdvZcNBAZDyppcrwxYiPaFKqBTX/QFI7rgdKSOXGTbfY/I21uDoU9Mtrj/eJGKQLNHEp+Dz2ZblyOk23m6vGffrVaQJ6IoQVnCGc1/tS/OadcXEV1/ZRGdSVGC5Trj++uL06Nu+wQnS26habfg/oMRN1KO9lmZuL1Tirbtuo7jeZ5b7vR793c3zYHcqLbag+blxbDXN7iJ4z03omtddgi+QU1WsPU8P+qxJ+3m0elZ79wTcGYdDTq4QRuaC7J75pjWlOSr6SwuHXi+j+LFymXoI64ypNAjuBlRXRUI72Z+dURSIcBKe+l3xR2Io+245IrA4BasHzGhfVz9xH+RKsacudXpIHSDpaq1dDp9ePju4x5YsXO9c0JFIGjY2tMn2n+em+uM+uNe77bXG486ZdcT3UFo0e5wegdMUsHFF+Lw3bt3h1yQEEl0RaDVvNflDdx8eaPhxVH3ZBK5Wmty0m42hn0Hct3e1Nj0IP0oVyuF9BNDzvHw436ZgRUBG/QfetfLtyl31wzUGzUZNEbLJdPoGsKKxolWhIztzMQXYTgVZBXiyEP9kS7/OOrrZGB7ZUzPNrjpaDYpNDZ3GjvDcru1dFrGUJD8uJ8DBSkaWdKVde88nW+wVd+TYHCr3ih/stVSGiaWiolviaEQZKYKmx3//Ci5prAKpvuSc04yx92+p7r7/daR4nesnBBfiHdJHH6sIE5kP3YgT66hrN0fUoOjC9VZ8wZSO8NP3/4yvSUZzgT5712Qo79wvlsnt2Bk5jSI/DhUkkrJbsbKB7WClOCyDGcka5Ag/bnWNeDQZe7GaGjg4pbw9MnFp2E4FaT2RLq9cBmtnmqro7th1prFRTpCfGp+aoZT/yHtXU1hj8NV3CM2evZRMs4wcW21oqOnZcg1taRb9r/EIlAFPTMlxYXXJb0A1Qy5kh5oDyLbeS8WMUDoaDTrIUHbWFosJLWjl6Kc38daSW9o2G4xZLiNYZjyjXLMCdrScD+oMKRpmbc4PARsjNi3SmbG8D+YJdgjk1LBLT695M5QKchl8cEOn1XzGWvGMFvDrMDp0SleY0U4W5Q0oEkyxPh6njdXMpa1YJgplBBG3e0QFTUY0wim5EFpnCE/faD4+FZVLEFwwdCyMvuImRfbO6M4xYZrVAGRncin02eByVOEX5Qh/8lBDubo+NfIwbPggtJ7S6yQlfYkDA/ffaykEPy4fs74xRhyjgUMR9cf34C1kODyVp+lwCTLu5U4Q0zuG5qr2hO/BEPBcQ8s24XZZX941FaZnXbzbuyY1I+Ta01FBImqX4R1q3SE3jJDzjFTwdgc2/Uce3R/etTszuv1raA9ODodjpijGndWrcq2XYW8Wa46M63FHZge//hBIc5PwlCQrIEVrdnKwhJ2BJ5Hq1pPx/XtTu/6VBk78xNZq8AJffjJfSvJT84wPJAIZX0Wptz6w4ujtqhp6XIshjAOYbSQWeanYsg55lHKSsdUbL4zvruJlOu6tF7+8lVZ8viBDMWBTKN0A42wL+PkOreNZjdhpFrlZzVGeG6ZV/DTMVyhsoZic0e9s5uB3ACfPcOxcItbkRw/HMOZspqTnKqkMxo2pqdNAVTypuJXrUmPH5ZhqKxQjqKi5onTdjkINIHBVEdzpjoq8w5khoKktUe0OuXz/j0/bcgQFlNCkaIkt550hkKQNYrVsYeUZybwY21RwOpJYmgRrY6bwk8RTkwMNkY95wx/IhnO4jnkakTzZ6lnoNBRegDLyrLgRYHsFZrh1Opg4osQtudg2rFHVB3lGTJOPac4/rJFYGiFyQfa6vAQHHxkIiCmkFw9VcGLFPUvUycV1PPo72SsGibMn0JMSmotao+ko1w91cGLBPnsX3Mv/BUtxJBkHm91xOie2urcEHw9UT05v3rh8elWD1m8FAVHq4LLsATE02jygOaEMKOa2yWpJz+B9YfYXa+yx6TvcxdJsTpl6WOFaB3lSSLWO8xQzH5K2rngZ7ZIugZXVkzJY7ZExxkvtY9PcToqKi947zAj+EFmxx+/kzlSYh3bc+PzEbgBb66eRPEJY1hSDLx//kKyOOHVCLEOdx/R+/YxE1FlqnoKGyEcmnhyOpBxrBGvR8ywXK8/f3QS0RxmO9rUT85vcXRsx75Luqrutc2IJjm8KinWcbywptyFDiFLcetJ5VeIpXr89F9G+TX7YS+flWhudXppSobl+uPmZKTXUVZGx9aLNXCrkFQm5l8/8Rv5tvnVw+NNsTopLUGmr0zI+clrZ/Nxk9ZtbJQGnX3Fb4LqCszvoP4Vq5K9Q+T4JTAbPwjsJd9LjQGnN8oQYh0FP7p3sLgdUNq6GcOxLLigxvGLu6EFKblneY+6ryKC1Nhy/SwGOdid3pKQYSXuZ3D8ABPHDqBZDINNDa0aPsNa3MnAUcEnfx8xixE2rEysDqmazL2fQXAG7CMrpRezGJqxqbAjSyiMLBaQ38eXA/CVJfzlWerAeqq1FYANN3aRGGXl/MjmBU7CWbUQncWwrF3oCwY5DMpFcn7E68qCl6Wr7sz8QGQWowbqlEGgr/PFs2tS5Ydo/IUBy+zj0Yowor8tBszpgbmlvDDdUiMsWBiyL74Qn8VQLyXydVS3ILEsqVrR9R7T0+T2JaZoyVkMTA/fwPCJ3dvfiTxCwFhuhyw+jABKe4n9X+5bYKIuEeuQrU4mU6gdVEulcrlUqu7V8kRNwDhYWUwkncXAOGujWIezzFj5fPgP8Yu1KmiTmTQfUsxiYJowZrGOCTAzPsqjo+yu8TMNpwhcKwwESeWHUs891anR9A9RE2BGsQ6JH0Y9dQUr/SyGPvOaXd8ow0LSQyTUce9HZGiFxSuEsprEOgh+iJo6vzVg1OEuNypFMKvr6Pml4Yg2pZj0ojFE1u55rGOQYWluiVPPVc1i4KpoRrGOnB+sNiyHPBn4WQxMFc0sw0reqXAAl+vwwfHxByRDC1lFe67VQfhhMVaLP/TZz3iGWKuTM451UMePdhayn7YoDLEdQ4OqoBW6X0xsTdm9/Izg1sQitEaRgTnV6qBSW6JPOq5fLdqGpEGFF4h1MPUc6qbls+8jwwNXxAY3aiaTlfZxHDMFOHUnu9t6/XOsObr9jTA1FK4K4bSWSgoqfqtWT37R46+J9u9W6xdx3iS0OohyQFXfOOfuAdB4k2Zpfs/uLb+A8OQTdRYDl7vpokfYNBu0pKflYvECkCWOwc+iQakQYXXk45Jw7m7UrcnPjRZznLP4MFaz55ok7ZgMi4fJPJ6LXJr/PzhUZdYsjSm9Y0eG6i7DRr5ZgwIR67DwYbR8JkQ+vV+FntMyaZby4DlxUduZe4zBaN7IN9k5bKyTKpd2dnZK5RwcxBuN0kj22b2fErzwI4MKhk0YwpgbuBPKh3zUt1fEDNOXUG81km1usybM8+cUDO+tUSH7v6ENlcwi0wc6w1vBtQeIn4F3sJaOX2S7pn186aQCqgyyfDtC61dyT/r5yFgan8zKQB/fzLLSnj+J3I3eywdCIlad9/H/p94E0+kostUxCc406hlesfL0ToUD3XrM5hRoj2gajQppR2l41C+uuHinQkU7aWbmIvGPaJqMChX0+dtsUOGp1gakMPregHIVuMcWiKUJCx6liTjU6DsVgFEFwzkFeKyAbLF5bKGf9Iq2MuL1UmA1tDLegqN2uw3kBwT6iaw72ceHqnlmA8SqIxPWcmiXgibmllo1y+9UgMq+RjOZ4bhickCZlcj1OEA9ZRohqeqDvswo1uHKesBJzlJT/m/pgBq9QAuTu25p3wI2D2YzmVahsrdb3dmp7u7V8vRJL/0BUgVEis4MHHgxtmvShMnMQP0aFOyqO6WadyqAgZeR1TEBqJ46h6PrrmGU1SDWIQJUJ65Nuk6Qvn8Iv27ALNbBA9xl0CLA71SADPRLDpxA3QzMGCGiByyCEkCQJrEODKikjkvskO9UgBvPq5xTCG8J1XywnVJsH1+UpwFBApM7JIB1O3w4i55UQPRhVmZ1oMiRVHeoP2AZWhbiYZgVWB04eCE18ovHEwJDOPN89nQU2KwhVgOK2WlR/4TQ5H7JWAcahyRvX/37/JHuT3XKOsAik+lTb4D3KxOvWsw+vXOg9YVCEVFkomdY4PGjakY++2072jv8QB1V0D8okqJlWGHqrt8w4uku1q34oMLW1meLPKoAxzo4FwkFn/QAv5j99mP5VRyTh+wxjaM4OWA5ANx7yHyyEjXbLmYzV/JXjQR/ZYlyRGVY2qEagB+9lZnn8kvqZ5TjQ7FOfjcGonalEgLP3bWPfZFr7fnj7Pu/1fxCXb36ZjBzApXAcrIkNQMoOf2VLfl69q9tPT+B1ucv9AMJxTrifbKFCMlMJlPY18by9CC3mK3/CmB+IbY/ZKnKCs/eiQJipTD9cLqyq6dHfh6HHz9LYV7kCH4ZKGtGL5WwTspy5XKOMaBuTY3f+fH7+QizSirre+qgG+3VSkp+5GQ6X69jjp8E25/I3gP5NmkNPwPvUP9h9rdFBCa/Mtki1epg37QsoUeeo+Hq+UXj/TBoPf40EaTJy2sNjl+9/slMPeNoP9TpVoc8c0LPKovZ4tdgBfwEWjwMILtIxEPzUX5E78fVUxecGeDvT8d0F4l++2CJmBtx9fywCvWMI/hq4CIRj18L80lVT+vXy/xB59bj+xeI54j8wtzhBf6W8xwnvw2UVT35wsj86tmfq1fPOFpXBoG5/EDy3J1aWso8vNTfG4/hb6NMuRr7q4w8QK0SZ8qL2e9X5sELEZOvdXqsk68dlMKgW7wy4qBGrJzBqe2qwa0OPdbhPqGQThfInfxiPf9n1DOO7YcC2X0Y4Y+qZxyTq+9kq0MFV88Pf1g94zApBxBQrGd/r0E945iIWOdlBMmd+7rUMw6jDAuEUWXi5XDykF2t1UEWBv8kWp9XaHVE6vcq1DOBbYMMSwLh3F8ytn4Wgh+Z5yqr8A6vTD0TMMiwIngV3gHEyUPeUJDcO3x9reoZx0S0Psj8RGHwbfALIWIdirKuPTgzwOTXMVpZuff7RPn7Qq8F2D5dvn78EKx7sabAtD7q9bfLTyB40CYfXD9/vcbohYSWunFerBcf3jy/EJ9lYQA3n2vL3V8A27/rMZKcXvb3W3MPAFqPvzmrbJ2D/2M9PL4h747HZPvx6sePq8ftf45ybrDBBhtssMEGG2ywwQYbbLDB68H/AcLfBpzNta6BAAAAAElFTkSuQmCC;labelBackgroundColor=none;fillColor=#182E3E;strokeColor=#FFFFFF;fontColor=#FFFFFF;" parent="1" vertex="1">
          <mxGeometry x="737.89" y="99.84" width="50" height="50" as="geometry" />
        </mxCell>
        <mxCell id="MT3VQ3Qza3Scs-Q398Xu-50" value="" style="shape=image;verticalLabelPosition=bottom;labelBackgroundColor=none;verticalAlign=top;aspect=fixed;imageAspect=0;image=data:image/png,iVBORw0KGgoAAAANSUhEUgAAAOEAAADhCAMAAAAJbSJIAAAA8FBMVEX///9DmTRFpThGoDdAlDNPqkFKpzxXrkdgsk+2tZipqohbr09XrUtVrEhesVJis1HCwac/ozFmtVg1oCXOzbfz+fJAnjA2kCfb2sc5mydcqk88litmsVlSrT75/PhtuF5PpEGo0qM1lCK32rHV6NJJqTXk8OLe7ty+3bqx1KxNnj+Pxoiex5c+ly693bl4u3CBv3osjRpcnk7t7eWWy4xzumWWxo97uHLJ4sVrsWE8pCp3tm4tkherzqZbpk90sWqEuHygx5t6sXORvoxooVmJsnV0pGOXsX2ntY16q2ShtIhkplq6waPF0beio37f39LVdvCnAAAKW0lEQVR4nO2cCXvaOBCGwY4P8EEMAQqlDjkKKdmmSbPJptkuzZ7tdo/8/3+zPrAtyZIss+HRWM33C/Q+M5pvNGNotZ71rGc9SzUtZB9g5/peecTLI9kn2LVurKHsI+xWC8v8TvYZdqsjyxspHcShZfuTW9mn2KW+t+zD0UThcnr3yrZv9JG6QTy1bNs+1PWBqjdxGQPaPV0fPcg+ym6URDDSXNcnS9mH2YXuNoC9aRTED7JPswNdvLILQn2iXu92kgGmhPrkVPaJnlgF4IZQ19WqpwhgRjiahrJP9YQ6QgDzGI5m6iBigDmhPlGmoOKAds/RM8QfZR/taUQA2j1XVwuRBEx6mhzxB9nH+/86s3scQgUQF6+sPkno6Shiw19SYd+wDklCV8cQmz22OX9lWX0yTR0dR3wj+5T/QxevrUhkEH2dQLyTfc6ttUgASxexr5OITX0thraVEvYqCEfzhnbh8SW0KGk6Iwmb+iA+eW2JEuqTc9mn3ULLHNCy8Zt4WCbUByeyz1tboYWomrCB1ebSQAgPqwkb9yB+8xqNod+vJNQnD7LPXEunGCARxBsqoT64kH3qOjrEAfGLyCDUJw1yxYv7PkHYEyBskisapkME8abyHupNGhMfBYZrsy8ik1BvymJxaEQi0hQ1fTZhU/L09nWZEA0im1CfNKKeLoI4hkZvG8Jm1NNLzeCnKY9w1IAWfHmfABo+M01L70MsiPB3UjdmSmiRlihGCL/Y3KW3sBzEojflEuqTM9kIFZqZGSFp+nmakpMoMoqyEfg6y0NoeITp5zHs8QlhdzahZRQiLmIvR+QT6qC/ezsKEEJmNa0ghDzoDzUE0PBYpl9BCHnFf4Imadn0DwUJAa8yZprDIcxrTWUMwfZuy8B0eEEUJ4QaxO8C08UIiVqTVdNKQqieGDqa6bkcwk2t6c0rCYFu3E4Hpmn6WDUlENNxjQDhaCobhqrzICLE05S4iGlvKkAIc6cY3keApuGhhNTeVIRwBPE7lLOEEK+mZG8qTAhyKHWjJYQ+L00TwxAjhNe6LQLTLCPSqmlfhBCgYRxlhFzTFyeEV2v62oaQa/pxbyoYQ2jjjNP7DaBpOBVpKkYIrjk9z5K0otZEpi9KCKuvGXpaTuhZHMLI9PtuNR68ND0LvJwQN323lKaChMAs8TxwTHqaWsRLv9/rT6vpEsKfZFOhCrQihny/sPt9p5pOn07nU0id23KgGSzEUm/KJZzrbsS2bsf6CChN3ww0zWEFkRxIMbJ0Pp+vp6v1qp3rGFCavgs4hCVLJN1iHkVt2l4hbKnermVzFTK0SC6j1pS67znCNp2vS2S5PoIx/eU9QYgF0SQRvfi6zfPrxtYxmC3N2YAgxE2fTNPZdDVlBw5N00+yyTKdBzEhUk0NrP0mq+lchC7RCsrHbh8SQo1p+kSaToUJj4FshIdaKs/ICV1ebypO+BLIaHgxSAmNghCvNcT3Q+KEUC7ixYaQaYnetoTtNgy/uA3KhLxHYg3CjzAu4ruMEDEMjTOQqkEIpHHztDIhL4g1CF8+yIaLFQ5ohBzTr0H4diWbLtayIDQLRM5Aqk6l+QjB8+8KQrE0rUMIwvPfIISI6Xsei3BWhxBC852bBa83dbckBNHVvEMImZaIfnpShxBEV+MhgFhvyrqItQghFFM0hJrpMYLo2FsRtl/KxoteFvcoIfOlb21JeCy/M10MMELkIrLStB6h/JHiKU7IrDX+loTyDfGOIKw2/XqE8jelZwQh0/T9phIe4ZUGraYG/QupeoTy14i3AU6o+VVpWo/wZ9mAm1EiIqOqN63nh/LbthKhydpCZQOpeoTyP6y5JAmZpu8pQ8jcQvW3IXyQDVjOUvZAylGQkLpKbBphyS3wgZQChKTjEzeRsixtGuHJoEzI702bVkvJzjsWfyBVj/BX2YBUQmZv6jSxpyHfh4lYvanl1+5L5W8uljRC7rK0HqH8gemCRsgdSDXtfRhS3II/kGraFKNVdnyN35vWIwTw90oujRBBLC1L+7UI5c/a8Kk+LU1J06+ze2ofy8Zr0ds23PSJZalfh7AtG6+FfIqBV1PWstSxa+0tIHztTbV83ocZdbIUQOON7fFRMQdSZq0dsPyWJpJPLTWo6eMbjFqE8g2/RX3lE2mKW2KdewjjW296MdVc4wkIAawPW4zeW2NbYg3Ct3/Jhks0NCoJnS0JAbx/E9G7GpTQ3ZYQRKFhXkTWO1iIcL1erVd7e/J33ImWDEKG6VcQRmTr93uJxhC+NUnk0QkZps8gXK2iwO3Fgcs1lr9a26i8u0jEGEiVHX+9igK3QtlSXQF4/qaizdvYFxEljFNyXSLLBeQaRmIQogMpDyNMUnK1LocNFZxrKJKmiCVO2/zAFYTyd/i5yA8yMlFNf8qPHHINQTSlqUJ6DOmmPxME3IPwvs/FeF9QB1KiIRzLH+gjYjz0qd13WzRJAQwSETn0IFK2UJZoDCF8WoqI1ZuW38GihHAamlRD4d7UEyUEVEkTMSwR+bZ9k6auGCEku0/FqDVl03dFzD6qM0CehohmggMpQcI92TxlMdrv0rJULEuh1ZlE9LlpqdaIVZorOM+KQozmlOxNhQjHQEZQhOhBRL+QSqqpUAihWUUqRhDJNBUJ4S+yWRjyqjbeMaEnEkIw4wtCdE9EBlLxuMYRCCE4t89FnQ2beK3xGxxC1goD/6VQ9QN4DGNbQRf1JexhvWk1IbCHIa7QpAWxIIxe+tPKEEItpKmo3y1gF7HS8ME9mwjRGnCE0PCrhhhA25lCC9pTGBl+m5UxhPATfK6O+J9FmxWPpyv5n1tW6kM5T5EnlMEnBO0UmWhfnDqiMYReZlJR6mlOqH14z81RQKsKnspTqXwgpf3yGy+CcBtSXKHL/Mme9vsfPEKIL3uqypt9V4QQ4HyNqdIvabJqGnxmE4L3ekznJOImiMEXJmEjjAIR2b1lhJ3fxyzExlzCVENipOFlhF8ZhKDfTFQtiSCmvanR/UInbFKVyXRK+U8Qbdb99y0VEMTHwHWFF9RkIKV96nZpTc1Vo8poIfyZEdca7U8q4fhB9lG31e2ASNOY8I/SRQQ+t+DqEkGMe9Pgc7f7mSQcfwL/6OUIRYwJv3a7X0nAhjk9KQTRjVuabrezUgoQRYx6U6cb6TccsMkpmqpA9CM77OIXUQVApAt341La7eyrlKKpMtPwtM8xYdF8N+ZNX6ns/zH9LwlhJ+tkHmQf7Ol0N0j68HknAeykpt/MXpSlpREhBn+mIez8vRrvjffgbgm30tAPtCC9hp39/f33V3817MFbrfDdINgkaUR4oFSGZrqN3XB/Qyj7MLvRP0UIr2WfZTcK/80IX8g+yq6Ux1DRELZaB5tKuq9CM0rVdUfpOhMpVP0atlr7aQgVJjxICR9ln2N3eqE84WMCqKrfx7pWnjBMAFUmbB0khMoafuubIVTYDiO7iEOoPOELpQkflSe8PvgGCF88EzZbCaHCjXdMGIXwWmXHjwkflSZsPUaEj0oTtsLra8UJI4XKEz7rWc/6xvQfB0dYePp+cmsAAAAASUVORK5CYII=;fillColor=#182E3E;strokeColor=#FFFFFF;fontColor=#FFFFFF;" parent="1" vertex="1">
          <mxGeometry x="737.89" y="159.84" width="50" height="50" as="geometry" />
        </mxCell>
        <mxCell id="MT3VQ3Qza3Scs-Q398Xu-57" value="&lt;font style=&quot;font-size: 16px;&quot;&gt;Collect data&lt;/font&gt;" style="text;html=1;align=center;verticalAlign=middle;resizable=0;points=[];autosize=1;strokeColor=none;fillColor=none;labelBackgroundColor=none;fontColor=#FFFFFF;" parent="1" vertex="1">
          <mxGeometry x="765.89" y="8" width="110" height="30" as="geometry" />
        </mxCell>
        <mxCell id="MT3VQ3Qza3Scs-Q398Xu-58" value="&lt;font style=&quot;font-size: 16px;&quot;&gt;Cache&lt;br&gt;&lt;/font&gt;" style="text;html=1;align=center;verticalAlign=middle;resizable=0;points=[];autosize=1;strokeColor=none;fillColor=none;labelBackgroundColor=none;fontColor=#FFFFFF;" parent="1" vertex="1">
          <mxGeometry x="802.89" y="120.84" width="70" height="30" as="geometry" />
        </mxCell>
        <mxCell id="MT3VQ3Qza3Scs-Q398Xu-59" value="&lt;font style=&quot;font-size: 16px;&quot;&gt;Archiving&lt;/font&gt;" style="text;html=1;align=center;verticalAlign=middle;resizable=0;points=[];autosize=1;strokeColor=none;fillColor=none;labelBackgroundColor=none;fontColor=#FFFFFF;" parent="1" vertex="1">
          <mxGeometry x="792.89" y="169.84" width="90" height="30" as="geometry" />
        </mxCell>
        <mxCell id="MT3VQ3Qza3Scs-Q398Xu-76" value="" style="shape=image;imageAspect=0;aspect=fixed;verticalLabelPosition=bottom;verticalAlign=top;image=data:image/png,iVBORw0KGgoAAAANSUhEUgAAAL8AAAEICAMAAAA5jNVNAAABKVBMVEX////w1rfTODMjHyAzUGEAAAD35M1Jcovc2dhta22BsMTvPToAHR40UmT53r4iHyDYOTQiGxri394fHyDRODMeGhvl4uEWHh8AAAwaFRb1PjsVDxEbGBv/7dUAAA0VHh9FbIMMAAURDxUNHh8gFhPz3cLy8vLCNTEkIyYMChJCP0AuQk8qNj+fnp4ZFhq0My+OLSqqMS7Wv6TPz8+aLywmKS62tbVlY2PmzbCejXqsmYTJs5ozMDG4pI2FhIQsICE4ISIWAAB2aVy6ublzKSdQJCR8e3tJR0dXVVVcUkngz7p+cGKmpaVLQjyNfm1GIyNiJiaCKymtoJDLu6lpYFg7NTGekoSUk5NMJCNyk6NjfIk8P0R8o7VdJiW8rp1UTUhBUlpRX2hRaXVUu24xAAAgAElEQVR4nM1daUMaSRNWxzaw4nA5yGRQwyECIiYSDhU1EYMYjyQbDXsl2ez//xFvV3X3TM/JjGLy1pfNyvVUd91V3TM395RUzbS7uyejXm9MqdcbnUy6w1j1SX9yVpQbTsYGIaRoGLquIem6YRThT+OTYe5X4wui6nCkEWLoig/plDEj3v0/3YjumKLT/LCbRHm4uP6/Y6EdJ8R73ZMe+0BIvP2rEUuUOTFc4AulPBV5Uq8T/E+p5dyFxvBXw+Y0vCCGA3yJkO+33z6/X0J6//7z77d3BZIvydKlkcb/wx7sGsQh81qdXH1eWl9fkmid0vtvtzck30pKHMR/tR7skqJTuPOFL0s27DIXS9/O6sQSJYP8UiEaaoSvpImoXvJFz3mgLJC6+QFy8svQxy6Y5GhF0igKuZ+CnrPw+725CeTi16CvxtHkaAYZ77ZzbdiIArkKgZ4J0udLwYGh/AolmKDN0clg0s5lMrlrugHk5r0/+i2JGAvv70iBq3HsZ6O/RrXVybiby8RiueseUVr5373QU7jzXkS5WP98QzgDP9eQtgcE0feGgD6TO6GSRO5couODXOJh/Xe+BT/TDFV7oLYaGQ9zMYq+vTsoKq36Nwf6adgZqf370k9m4BoFn3p/hn4ypsaTfLcvfjjwjC7zP5OB6gUTnQlKTvukN6ZGiHyxoY8AHrbgjDPwM3SgjTaTjNuAPrbbi1/oSqH+ef3B6IGBq42fxcCEoLXYRdEZxntxuvql+631h0mOtQN1xsBT52YjgG8MYPFjsZNePN7Tlfr3B8q9zMAlKrFmPK0jiwP84jiGkh8HGij1u/VHiI5J92hG9cZTwj8B+CSOstPtAfyxLsN/4OIj9UsYVRvxp4PfRfgjhL+L8ONa6XI28OfVI+aJyfVTwc9J8CcMfsO4f7Tomwx84Qw8VSjU0GF7Zfg9vb41A9EHot+zfsd0uPY08EF69IuMBD9eI5bdfyx6oAEmE8WnyWd0+uVGG+Bfc/iD+tX6TIRHfMl78nReYEhAtzI01myziuZ4oLUCZH9q6OlcfcjvvyED+vgJ8NMwQbugeUo3buhY0NQUK9x3Yt2KtCdLmE9e3d1d/f5deyIVrtKVKXa7I82qUmkDH+FfEusZTilAdb+QfKnVKvGkXp+9E0DbbxR5lUo3DPovzRP+FgP/+cvt7bctNdTyr98RewGGzDqMmFg/QNN1fTyajAyFfPOBv770pUXqpVKeHIRgYInmYHb4SnEyU/QZzSxRGeSCputUD2JEMZj5sYk5wv+9XhcLeTudgaX1e61Vz+c3SgVzjZRZwm+b5UHDOGnnMPbM5C407X7dufwoPLI0kH4I+SHk7vBo//jgkpTEx2aYCWQEHJ2cxNB/ZaA3dEGTRk/4PJ/VWpQK+aOp+Lfm7/dV2CZV7d/ykpAxQx+m89VnORfloHvS69G8i+J/75AedKKAQKuT+7urq7t7MhW+jdQ+S4Y1bWbwR9zm0IQXcy4KHr3vmOL/7F7+e4C/MTjsq0jR4AMHt2SmLiAnCkzdHCQtIx47CPyO5V+HRFDLHzwAuMnAISZJswqj2fJrxhBkZ2KiF/htP7209Jn+dkHZfzh6YOA2P7sYospDKgqfZowSfMT/3mE712kEWVCmm5wpDNxQQ0pmg7/LpBECt6GMnuF3ui4afyXrj4U/Pw+p2IwUAIpTdDNzLviAv+7Av37XUsjxo4QHCTZgRgrAln8Yi7Ud8Kn91Bp2qFvrJaV193j4VIXrijGaBXxsStC4OZYZOeDHG1rrzIGV5h/5x0sPpT5RtJlUUqApoRiTjJlzWTRQ6s7orE9cf3oYqffabBQYrScYHxf8uKK4YgNViehuffFftWaTRaL6Gl7LH9c9wPZnoLyInyrATEI47M81chkX+niPhp9hwR6Hxn2wz/5xlJ+NAcJSfy/nMj5gPltXIfGrV2EZUA+4+donMwlB0fsao5yH+DS0+mFo/Ddh3/m7yBcIXbZZ4T/JnbjlZ6Dk90Nh2oLsPNxbIX5iCZtan4kBZebzJOeGH68p+XDJ+RKgcosajZMdTG1hBWuDvUoNqPFo+FgvB/PvFp+4poURCl6gIHnXKxS/IzfGugV3KhBBPNoBxFnsaUw8rH9cd3lff/jrd3mXX1MPNuwLwN55VWrhq5eFRxdRxrzoQHN2N/6eXgrhakWB6BtpuV47rNtjjSUuargB6lnrsfgvxESVN36tPt0omsX1da3uKqTs50vy3/h715VCQWUOuLj7GPgNcyDMGHma/zCVBRP/lzpxJWV5W7DH37t1UIcNUG9LNG55BAMMfjKL/stD/in+EDbRrE8vlbRW384AFfGSbJZ4KaxPkiXQDijCPJwBJjzJtT8oA9o491D81g4cbGgl+w5gjOP+Dir5lC31oM7yvofBHyP8bGL1dRnjH4q3MajVBo2xpb8h5Ac52ML5GXWguTjOKwXLBLFqS//odkBh7wNzyED3IfB7RQ7/+V6C/qMWu9A1Niem6Q2+F3oI/ZXpyIYWEV+VFNOuqod39618nuRBbupnAv+DolDmtgD+81XArxSl8UhNv0D8SilEaXa+L0pYKqYk9g3oQ5rO/6Qq1mRoS+mrxxuiEho5j79G+EkKf3l5O6G4SBsA/kHrcip+9ZIol7eHR/3+/vFNy5XwqGclpcCDcDD4jJL5G2qWAD82tLViRDfQ5vC3KfznnzYFaBwCzhdMBi60+vT1J0mlUKrn6Qexs+IsRvfzVFZuRcSM393KtzCspeKWfLMGf9EHkeDzemFiD+CL5S+Qmy+f379//+0SX9UaqMDTDZC9L1Fy7hiNIShTRyzi3L+kfGpnx0zgKP7yq6/IgBGpFMd6sInXFP7y8lqWyeD393wWeP0zLqROlbg2PVenMZqkOfUb9xuoUiii4EWtT9+smyL+1Bv8fRKhG9NDy1k+B/jPwXpSUZKHq9axRwsb0AijAIcDUi8VCoVWqe4RQ2OeZaqAjRj+1Ww2mhFiurv2Dlf/+Qf2adtgHmtW6eDB6tPgg9nZP7i6u7y8uzrse3GrHlAVKHlEskcbSnkvldpOoBKHDeVYqyWrLCOlUPrZ6q8vff7MZlPXb2D2sBfWAzPH5NsJUC/BLrklkdqfxN7CQuoVYtBDThij8CcTC2z590B8Ct8R9RWYnxvcCWiSa2MwQGET4EBK0t90F00B//YCZeC8HF4FRuh3E68Q/vLzl2A8oUe0tP49z8zQmUrT2QIoQENTSmELEIEEKuDKpcH/JlYXgAEuxCHcGLP8m+cM/vLzj9R8tWC8CtvjzIZQnd2C2BbiicJ0BQ5B2G+h0an9jwf1ZHkBabWcRJ8zHT/GONnTZUHAeR561Osbd0cHjIE8dTfCt3sajgcwcLsB3+X4WymZTSF+rgLTW9onTHpW+fKnUqcUP7ZIP5+pkFDUSV5DH8qcWImEi0CnMwDDhy1bcEfzr+wbhn8h9RGDAJIJhh9DVOVPHP7yaiqb5DMa72lCpGj5w/l9ivpWVQeERoqDW0+L+CAaFBzeWb1rZd9x/AsLShZ9TjD+BpMeE/4C4OfWB2JFqDeoR9ShqvP7R0f7849oMbqo39KYbpn4b7S1c4GfS1BwMsMaXab0wMeo/BTuOP6jPAaPdF1CTAREp32wbyUrwFALyuYnc/1THzEQCiwIFW22J8Utl4brvwX+kCXb+yRk3hWN2PRky1JiopRfm/gXVtfABgW1lFB5k5vLFvyF1FeKX1lnIw7H+QILEy9noLUes2Us4SUip9vH8MfEn2KRmH9Lg7V5hedaZp7j05pijmgckYGI08PVYoPIOTOEDEC6siHwC/drMvCBVUL88GOfKPvGEn7BNIw4wI/1iUiUDh4t/+6hp3lWsbKySbobiZSMfy8RFIiypAVTLiE9lOAzJYje4BvNauXjzY43fupgzI4OzSZN8y+rsF8cF4flX/sqSw98ZpM6gPt1nNFQ72bjbOdFTciF/7JglQTU+0L2ow3/wnbABuRsttPi+WsW4zfUtmNllvjdCiwXI+bn80nJfDIw57gBnrkkSv/aR7v0cAUoXa1vsfWZUWvx4LOX9kL9QRuIn3CYH2ZDMZXxikOrtuVftT4Ce5Yk/Odm5LbU0q1bdvq3pRL9JZGHYfS8bYcvNsDDBE3k5bd95F0WN2A2yBntk+/OKkT/Cub2Si0ziaGbkVxzLL+pAW4fIMedqVUZ/6syZjCPnOy30fGGve2t7p8B+gK5siybWtOk6M1ugtxtVYx8sn+4l59+JEllTrt/5Gy/A7+Udqrq0SVpUStHbuTiNE3J1j658IsNcOLHwBPrVbLyMvwvYQPqM8kTOUEdd5+n9Ee3ClT0tPzAyn9VJv4u9RXi7CpJY80hq3gtP/0Iht72MWB1/ugxIVA9mczf3R4cXF1u5OHMTovcS+j7Vxjk8uTXAQbF2ZkHnID2ll96Lb8VeksMqIclMni4SkPVXCmUKEG9s7WRvzuS0RMQrrri8L721bQnYkx7U07bKT7CapD5u3nTtdP9yoccjfeifqlVKGhQktsgpbNjSWvnb/N1iFKoiFnJiw0MlpPtGoxFh+xX7+WntIo9MLpQtyi1RzAdXLp7BP75/cvLm5vvl1cHx/tSDqeqB616EjwwRHJe4r8gNNjWmMfQh2uv10dECU8pEeX7d6Zvpa1I53XU22Nb1OdRkVPnD5Q6L6arJcVT/BdMDZaDIIIVt2W/5YfQtcyq0EqyUMBSTP29VwAfQH0QlL5fDRF29aoOdW1WkKHik/3ggwXzGFmAUHzWzn2XH3dAWVMkIu/XPSMwFy3xliiUqFobpHZ3cHzUN1ef70D/6PCswKpjGlbSIRJyBm8mrToFaCSJj/eeUQYWPiayJnx+amc6filOVg+wxoatmNL9zeXlGdIltcMkXzfvgWA+LK9g6dYbyleHABnTxId97NWbRJbfWkKWliLgFzJynDevDNHA+CDlb9W+2aIp5NGQQuqVVPywcAEya3FYtOKhm9/y4+dSrz4mymsS/ukKsMXepGLgqvYvieP+HGrUriz8JT71rQ40H+uJhAKk3Qv8u2D9y5i2Byw/42BhDxJ6VpAOj/+Y8IIFhDr1gh3/HcefbJEz/qkjFB9fMCyRN/sZOB/JnFcwfPwsmt+816kjT2KFI1IQAbPaP7ghG6WCeX0OFLAJ1Ys6uRPhm/q9ECA+woWZVxWg83ozVXw44eaVbtc9FMAru8H3UNuTNwNOVe0f314qJJ/fqFPKU87Ixv2Z1FuCOpZX7Gnix0KEqGSh9dz8FEJ82IehIq3deOBXrzwY2BLG0zY7A2Zz/+j48IDSMft/yQvTLN6detkwbCatM7Yo/sx6hoDPMwgvBVYPvKbhGIvq7cbGketV754YLL9H6iJjeCcpQM8S/xDiw62XpwLsBxy1U29aoQ7i8ZMXAdq74FAArLqdhhUfHj+1+Klf+y97zfII6pPkxv3x9II79RLTlp8nAcwDVK3gIRR8br1KXgpwW6/54zok1D0pLIINYgBuoQqU/gVuRFgdCNW3jKMCYcRHCBDWRJ0bQGM0/6MXeL+GVsrXYRplX1b1ft/6P0xtNv19F8dwiqVcS323Q4sPJSjEewvQbYn494PVG9b+K5TqGziOAgnYBl5vZ+GHTmoyO3UNmRGpmsHblNjH/uFPqMGeIVBLCyqt34gjqXaSFBsiB1vXwgcCa0tDCAeVh2Q5vPgs8BTU0wKpx0TT/PHTvNMV/9Dc3SptqFd1MCZTV5IpMJ4OQO/7Lrz6LvCEnnf1lpwIS62AmWiIf2jwwAZqNJxI0c4kv4AdpM2X0yUBjSDkMJb5CS3+XPx4DOcQIPW+UA8aiobg4e5eqec3Cvc3Z7e29Hd+HmcvphkfJDRAPR48o/mJgB/rwCUvDabGpK7lg6f6HMmX9MIV6odP3mtfwdMkmydg5hOih9Div8DqwEnvJAa6iAFGKIgvfntLUOhmAmARxNxcl5nPqPhhrEYEoU4Yx+RhBwj74uB4wrtwYgMgDOiuwaOfKOLDHaBPFgmJ7kMYuBeJTTI4+kH8LI3KscphIor3wo9vy1mAEwgc3o0uQjdi+YGBaTvAHUBsLq7D259HsJ7waSZ+PiYIrOhGqFsTpE/wG+zSac7AFBfGg5g2Rs/JZDTxT22zqVI22OTZiL6rK/kIp1DVY3bvQ7q5WOE6EKzEvKsynBtrPHkM731Tn8xKkGcUxxjIK6X7kGfIoS6BX5fuPHu2whkofwzMAHAur9jF8CH74Xn44Cf1ShHzxHBHhl8hCO7T00JlLKp6wOtCleazZxYDmx9WA0ChAtIAYsDDh5D4U3sfpDIcjG36SBC7AyF/M3UL1OMBj+oqi8+QXnAG1pRtf1QM/+5cTWGV81D4U6tWEZFrGvGxQZiwaNCSC5rQUtXj+zwfL06/ePbMzkC27G9HWQC0O4eMfnwexvyA4IsibkVZ5PtM/HfgSIE+AfGdMVPnDwYCvVJb3FlxMhBgRxn+iYl/uvqmXp2WedWp0lmxfqV+/9l1hYvAdwWtghK5O3KnjKp6dJa3LiBWaul0RUiQxIBfLBoVf2r7nRCdSpPvNN8Bjdx9Xl93ZgL9o+PD46PjS0DYIgMp74V/9A/PSnl3LuBiQEn4pJICv5D/KegXzl3oJVPRIvdf3q+vSyWoo+8kn6/XN0TCpZVI6+6WMnRE2YLqW90NHr/9hZMBHzsq5J/bn2BnkXq9tikkx0JPaUf8CsWXv6PRPL+x5ZgU3Ngw74WqoXVHkXUrfXKNnTOomQykBQNfvcAJ/Nz+B/uKD1zw08rKMzs1+a/Ajf/YmtgYfL+7ui153JbvpGShtLFxyt64lsh+PP8ATba0qcUvaumAHRD2/4L534BiqSQ6O89c1GHw27s6IQbeqlZotSCUSZYTifKanQ+rfdGqE+Py4Gj/BgdOEx+3n1PCLmFzcVFsQVPEEm4lNv1vT8Pqm3+t/VVWiE7zhRv+sxcMf3VuLtOdjMYNHR5wAZjWXq1uv/5YTmxa7u7+CmvOG3lyenYI+nwEvYBk4h2f2sGzHskViwEeDCXdGZkZ/2D8WX7uh546LC46aafoIHr6Y/CqfGNnFW7hTiZSz58v0zVdfXma2OS7UDhW948PD3FuV0UPTV/Y3Nx7LuZ9l+mPpRcpmTLEGHC38jj+toj//RZ/bU0svg96Sp003sdqHe+gOSmfRVhGFj6Vefc1f7kv5bxwS1Qy8XHZRI/T+ukd/NIXMgPucqhZAJqw/MsTfeo8aPFfLHJa2UnDbXaTTI6zQL+TzyJwFpah9Yc7QF0Zz98x4F8r7/GBNYpgdXUBBKi5IjOAIuSBn1Wgc+x0vlfFghpNZdN/8VcWLVpZBDNUVCbtDOWhSm2aNQIuWNjmcV9rg9ycXd1eXVHRz4rFNwemwKp0+FfzJWMOyoX/nOe/Q1Z/cL2eev1GtNwrrsV/IaNnHFAh0gzSu47hrXZiEE3mYO+0zLRRa0HhE8y2GBS31JMa6o755bgFsLnuXqRZf+DlZ+fMEo11BPqO0+y40DMhAnOtF8nFiKoUtqPYqq5SWkghBy9F+Jctg2XFtM8xrfkmq9Ssr1/h+N0FUTzVBvUfXn9zvP7VDJNdNv+FB3iJA7oLBhslsn/lKmXhOVUoYCHx7tXeJ7rS0LSyDy1ga11anhXmId2t+JTZACBu/Ui9EWFyOu1YfK+lN3+Mc6Cwgp7jF1dxD5a3P60lqLNapg4ouXa+sL0NdtaUHxRr22+86MBIvPccIs5wQMnR3mxl9XEPxfUUHAcHnbQPfpQhKkSvyqxaA1DXEonEm/NVCT+YRfuvgPi7Agip/hzH9p1tYlJMOZjRbDj0XIo6aR/81BUsb5+XcdKCQaByC3+U5AcMqO13fMTfqv+jAyjLAsYPzNplJxx6xkHNE//y3vkpFf8kTJmmWASTcIg/4q/ZTDPF7xU+nPPy2xw3oDKHDD/UMqYrrScDTWXzpcf6p1b3Pr2h+lt+DQIDUBPouCR08MfOiv27PKy/mIAAZ5lzGSA2H9R8wNKbawb20/2jGEycrzFxTv2RpV46ZV9aN/6adzsJAnrtQhp/kN7CTgxbmVA09Isgs9AQcf/oagp0OJtV6KrjmcxEyul3aFjQtC1X2rMfsGeaHzF+Im8iClfaNPyR8a+kAypKqXIye/r1KwaGCWfZmNp/Hr+ZS6Fk/3Dv5Eup/84U2H3QJx3G5nvj7ygJf/wwj5+lJk7X6LZ/er2dAhIvriXTtm9qerbDePU/J8+fuBTADHui42+mE6t+k4xouRWtqPUuiJZdKyfW/jh/+WpvewHYcIl/xzO4TGHeXOT5BiqAPKwIqkWp8wgF8DKg+NXnCXhsHBnsZnK59gUeOMuubZbLifLm6Zs/lCTNf+VvSnt2U9FCmhdc32tOBWACJDQ4Ov4VHMX3Kim9KyvGuN0dsguM8ZE9IlLRUKps4gPi7zEHx8TfvBvOpQBcgEwNjo6/CQmM2+tsn64pWiODFxgjZdo9Atv/tvL3v/9qbyH2kOUHxN+jBsoHKMUhjLbLA7A3mBocWQGYADnxp/YglzfwCmBY/CqwkYu1a1rtz9+A/vz7LRZQLPw1xeMMycICpIWabuarOD6clfEzJRMaHF2AFtPZN86aQOo1vwcBb9Fl6TJyYGh//8bpLwcDaY/YTUz/WAc52QSWbZ+wZJBuPlgBqAW1dx9SqY9UKCsVmFvj8Nuj9hzdgxxJm/h/+xMYML+Fir/HEDoPfqwnJXXdAoRvUSoPV4C0Xe9Se6ebip7+E/Dh8zMgcCFwkKuaIel/f5MZMD0YXQWP2I1N78lHYNCCJpMyfnZUUpQdoivAYjpZto4ep7ah7/EWYP6oMAmCwFHD09RVov+w8P/WTFsanPaM3VB8bGfAxi4BYgNOIoiLjp9qnkj6UqlXX2nUqVWYktJ8SWvk4ATdgGhVxF/5T15/a/lBfNyxG3e+8oO2mADJmsL620KAHqAAKEBAe58UKAW8/dsSEIVQ70V/lh0DzNnwd9Jm/IbO1y0+7C4I2wkqJkBl+V3bcgwxFb/HBqWVxOtXr2nKAjXc5FsLIpUgTclYRxgzpPKX+eJflbT8FR5nGPj0uf3pEphE2vaKCZCwQNPw77j+AotHwwJ+edDbPyUJr8BFFBmz3BiT8Ves5Qfn6xW7fXAdHxEHeGxJAPpoIUDBCrDSrDTd7xD9Byd8usZU/WIZ67etl39UrOzRJ3ZDyyI5L0aa5tRgLkAvwuBXtKZLxLAqCi0PJ3xU4eLErPdS/P/wF/55K0f/aa8TYMyyuy4SwSlKuwZjDMFjoCkKkKaxqotFqAalOztJ5e1fdvigwlQDcsyDUTtq4v9bsp3Av8cRGH4C2HmXET/+K20XjyE6IfDvAH6PPVqBglBa8q7SBpDrGJV8QjLU+L0VgvVWUl5v8WF1Z48DwOz0u80Hw7lTIUBB8GGlmn5CRqXnHxd+2IBGptqlHmwIW8//rKRlNfIUH5yd9ToBn2FnwOQsAF0At6CBdUO6xk3vTaKLKAcH1gak4T74apIMaPhe5Bv0X0Uu3Ta9xIedhfW8xQV9sG0DUIO5AgQqMMW/44kfQDiVl0sKlQFqQsEIjYr/eijvStJTfLA06PmQy7Z7A9DS1qYrgC9+sKEVD/i//XYKQsB8WI/7tr9tRnjHS3z48ns/3Aw6qbYNYJ6OKcA0/Ite70ETmv7XLf/oA4wRBhFzDWaf/pSVlxUe3NaHSb/3fZptlwnCNJIrQBD+RdYfc+PH7nb67Q8PBqgPM2K4AUUmYZo9c097iA8zPr7PFbpADZACVmzScAUIxl/xxL/IXJhSkaIfQTQKKu5CEFFl5l/2vGzn3LEPt/1+15myy6MkJ8xiiM50A5REIfPWX8ZBxenD/qEmdABhNA3fXNKDZU9X7MMC54BLyDCPlLUGLVBlOv6OD34RRHhx8C/1Yd0YNBDBfHZsph83zi4+EIkHXj8zJ65AKVt8o7marsD++HlrlXNgkyLqw+CRJnMT8gNMv2LfN1tPC7C//nR+Gnz9z5y4gKlsMo4xEEsiA/E3ffHbOXj7Q7JFEERQH9Yr/oWm31l1FtE8TT5fvkskypssFNfjQdc4GjgOYnKOCjBdgQPxMw74WG3l7b+mO6MmVO/lMjpV307aXvWEpkt5FcGvvnyT2MxKYyxG0COah0yFRSLDplQ6j8Rv2wPt7UAoAiSS7SFV3x8Ve9UQtBdiYcycpfkVTkF3qGEUwXi3PMA0BZ6K38ZBmooRbsIPnW7AbvEHtT329Ae19xWMAEizpgacU2LV0gAVZnG02TLAVgxT4Mfhl6UIXNrpf/+ACVX0gf4XlVnX8idPUy+zZQu9TuKZuWobn3ke+GS8a5sNQpNbmabAofAjB0kzqay8Hfw3QCwDh+dFp5H9oJQtoTfImC95GzU0SILQCwsvxhR40Q//Dis8BNhPBweiv42aIGb/lM6KRYv8HZbK6oSMrNtCqnC8MOgiTS5BSXb9GyRhzAB5eacaW7mV2nT8FsCmc7aPKu9Os9nsACnptO01Cr5ntzfsCcQBl/kyG7TGVAA9sJ8BguykA1vgHf8IwBQeUFNgrDnwdzoO0OYOucADTYpTvBi7QbaMkTTOeaR9DSj87s6KLX4WYoCIAWxakCdGf9LI4NrLV6GABF5GLK6vTtkMkJdQYIBfq/FC6SLCpqiTHHBUyDKRCz8ZgVQ98MFCVXF9eIpFEP4GdKXDf61CoTdrD1lmb9IcJiY2vDbZgUQl+CJTpgI0EEphuYhFQB74V1ZMXfQCrumGUSRuKhYN8TxMO6GPAielDdrWFWOxSYPY2EEBCnyyFnvUbDa7KkVA7pk3uuKea6cz1EajN5rsdoftdiaXqzLK5WLt4fXuaDygbKClTlegKcOe+z6qgljTGEAb50SBd0jf6XgGBlRrpzyYJM6evnC64GtAqZtxLTkDXuudXA9j0277phIB+UZzhRWY4Bf/KbsAAAfNSURBVKt4RzeGTx7kxfUG0cnY8V3dqQIkHt6RfWNFcA78OxWmpJUKsqFT5Mb45Lod8olpVXgMKbGmRJqKOVAClQRMbUDUDaK4TGh1ugBRI6SzHYCdrbnwr7xYaTZ3dhaZraxRg3zdjvSMhCo08ST8aIr5RABdXwML7G1CBl7Zbk2b/nDRKkYaTDAr7vW3z4RWIj8jBPBndAs/HoUQVh0e/AXFleuh9yLDmfepDxetWk/s8HQA8nRZxYj6sGfAnxto9vMW4la0sU5zezPmqbYp2RjBoeGpj6bKmQ9O8HZgKy9MFqI/aRLXf6yb+FGBRWpF8QkFrp4IC2z0dm0TA9MfaGAywCJoD/8F8g9cdCI/Khbxxy38EPSbRpEqBk2N8Z8Xg0bjojc62e22rZZTBnCF2HLBQNoXP+eiE+ZqeDf+kcGLG9S3dBRpJoBQ9QywwBmwvGGeLVc1mI9ZDM7AVpqRH5SG+E+M9OILNh64IhvQuYZmSB0+12czODIT5ierA3intwO244/4hBnEPzFszWrTgFIDI6q7XpSLdafGoCZBPsbaqAH4d9JRn1GE+HeLVskf8QtIu0V97I8/E4uFx4+x3BT89MeDqjK++K+LVurL8LfFj/IZA7rY3cnJ6GTSldwjtbzgwcLhR1vVmYo/6oPeEH9Xwo8OWLhBur4atuirDSlsjXer/KM5aFaEUzlWlZ6CfzEd1QEw/ESq/AB+cashjXCEA5ir5jIx8GDtISVgIEfxw7Hxou+Xy4T5cmVaBSgd1QFg/ENl05rWwChQ5LUE2ks+8hFj66+Fex5MNRT+mhbxSZlu/Jg6iNYWOjBv/Bh5UPkPu+Oh8HeiOgDE35bxYy4kvkWnDkxMKWZo+mMmQLj8aH/CPluXiAAosII49dEgU/FjKo1RfTWTqYEDi/lRphvh4epGKPxRDWiVL2PHgb8N6gmRqXHijz+HGWTIX9IEfn/4DzCgbvxNTIEnDGBD0+P++EF8Qhs8KDiGwB/RgCL+jGGdFuH4RxmBv5fLCAL5h/8Tyw/5S2iHD64OAujg8mw6pDmz4c9peFxWiCAaUIFfa3S73etd6nx744vBAB47ORky6YeQIHzAOwiDfyWsO7Tjp99t4scAQrvIxTK52PUARuyxUmQYus4qMkpv0gb4bSgehU9YAX96Kv5axAiU4b/QrM4Rw1/Lta97pGiryhRJY7Q7jOVQgHJDmBXzmYHwIpyLqDSDT/GAA4gUgTL5H+sO/HAIFOtamq7TpTdQpK5jTPhBE9ojzKki/FiPl8k6XlOSJv5mxGe1M/xx3TYuaS04GYzjo5OTEZX02mTYjuUgCOrujhoE61IkwnPVT8RDgNNNfw6o9EZ8VjviHxnSzA/HXyS9a9MXwqMQDSsCZTUdhcSDvtlBQ+sBlAEc7EQ1QIjfTMCgDsZ/ZNemR5r5CGVzd0jEJ+rKz5/05yAd2iFK+DGBwW5HkzfGdMfS5sYGLjyjopUFhKc2kdYgTSMWTw7SUyuSHvghAGXtDvH9Hm6wGhteUzcwollY6PKq/QviRHp6blrZ8eAADGgkAxTjAZyDHvKs3xAcTBRpE+geuKSIGtBoEZAXfiraEdPo8NSOyxy49IAa0MCmoDd+9qxPRUdDr+jjJ0MPVD2R/WK6YxMjakCD2vpuYnEOtOKI0ZvgNYDRH7MckaoTGwfpJjQATAMaLYJg+Guadj0Ev4qyH9GwPIDsHFAWOk3WxFgBAxRF93I8zlTYP8ahCyKPJTsH0HisUSZ26PpHUmAG+0KvZbgn/inrj7RbJM72J1rwSAqc4wEcxw8D/D8L/9xcd0Bcfl0Jn5ICsQCOBocsq4Io5WlsvzdRc2qeHbWcTwTvyANQQ2f4M8UoOcksqNodE2LYeIjifQT+IsMPChwxgp0BtSdjEd2CPEUBUOVqS/j60zA9YgQ7I6rGoLIagzQhTEvHJIGf1RQy0FP8OQbUB074lgL/AFt10o6ZodDPVGAXhetpWuTAn5s21fPUBB4oShubJ2BkyPGP9YgR4IwJq0oRNDDD8Xe5AgP/0VK42RKbCgn//hxzu6JOjj3RaCncjAl7UuEVgHfwirsZyQA9aQIwhSCEiaAAHL+o82NVM2oXcKaUCTEWJRHv4Jl1/naUoviTkBa6KYvEFp1XzBl+Z/Xk5xLG8OElmIWdok+R+fX4I0pABhed9SlywxOoc/9a+UEXHL6PihkM0S6G15P4gLDB+J8aQbsIStXhiwg5VkDRiDnOqv3KAG6ODWaGN4FogGpSJqr90vhtjrngCCFEjA9iMDLI4KnrP1OpEcmC8gQYmy6ExH/x4gPtRspiMzxq0wajbrTu/VMRDKuED4IzPGr7pWG/nQbhy2gsAe5GmMT4CbQbNohk8wMsavilUZudQICM6UGAQI8z0L+gbuJPYIGMwUngMHrOBJ/JxegHfmna6CAcrQZ72DjxHh6v8nANsHdPLqCSGqns8sRUFR0htOkXI/tJjCrGarlMjMU8LOiJMIvxE2gsVxQ1dhKmdtGD7iH0EEfx3sXAIEQ+wvOLozY7DV0tRXjar24I0nXNUXyP1E1/ehrwg0UhSSdRjz48NeWux0SIdjCBjvT+PyIHB4FpKbLGv01gNA0HY9iZCv1iFHUW4KdSFUZecP6rMYDpzlpt0Bj34jAHMPSdro1G/wPFj/5q024wdgAAAABJRU5ErkJggg==;labelBackgroundColor=none;fillColor=#182E3E;strokeColor=#FFFFFF;fontColor=#FFFFFF;" parent="1" vertex="1">
          <mxGeometry x="116.94" y="-28" width="57.89" height="80" as="geometry" />
        </mxCell>
        <mxCell id="MT3VQ3Qza3Scs-Q398Xu-80" value="&lt;font style=&quot;font-size: 16px;&quot;&gt;Transfer war file&lt;/font&gt;" style="text;html=1;align=center;verticalAlign=middle;resizable=0;points=[];autosize=1;strokeColor=none;fillColor=none;rotation=0;labelBackgroundColor=none;fontColor=#FFFFFF;" parent="1" vertex="1">
          <mxGeometry x="192" y="287.39" width="140" height="30" as="geometry" />
        </mxCell>
        <mxCell id="MT3VQ3Qza3Scs-Q398Xu-84" value="" style="shape=image;verticalLabelPosition=bottom;labelBackgroundColor=none;verticalAlign=top;aspect=fixed;imageAspect=0;image=data:image/png,iVBORw0KGgoAAAANSUhEUgAAAHgAAACCCAMAAAC6s/yfAAAApVBMVEX///8cHyoAAAAptHMUGCRNTlUNESAAt2zp6elzc3QAtmlzc3b5/fvt+PIdu3aoqKhXV1csvXoAABErKytCwIEQsWyPj49uzZ2R1a7n9u6vr68As2G8485HR0d90aZ7zp9WxY0AAAucm57Z2doAABa8vLzT7uAhISEArGD09PRra2thYWFPT0/GxsYVFRU8PDwuMDeBgoUPEBqc2riu4MUlJzBEREu0/5PNAAAIMUlEQVRoge2bC3eqMBKAMVqDKaAoChhUlIrFR62V2///03YmgAS1VkXt7lnnnPsgCfmSeSUEVJRrJQoUJXSvvv1q6X9NFMV732qPxa6+x2MEd7uW90Cs2iC1SluAq9V3+2H6nozfKpUdGNDOQ/Q9Je1KpQCudt/ju2ODlwRbAAP6zqZWX7/qlWNgQNvh/bjN2ltlJ0SEUzUnd+9l6tWa5NgamauKog8lcrVbvYepg28IoRz7EiTFrl1AW7fWt7oZ1/Pptj/7eZXnd2X06JZRHTX/Scat13qRXKvF1a6s79tl0en3WDLueB7sN9CHhUnfKLTUhWTcCvm3OtYoLOj7Flk02hDJuG9f/Z8aetUCeqiX4zYrsnHHReMWRdt2ZVN3S/n3XI7c9uLAuEVxRzt02Tz2klu3vZ7+3j41dXn32oHrmCDPEe+9233fiv+eeccpcI1sThh3T5zEr5rkuzS49v2LcQ9l9f1WeykNrjcuvE2dv9UqfwDui0X7D8ANkXL+APx6V7CHAvnKG/n72fG+4C7IuwYZo1t9LFhkRrHZs/4AnKTmPwDD+lf1H2zjbBE6ss+5P7i7PXrXA8DH73oA+Ph+8gl+gp/gJ/i/FJxsBP4AnG59Hg8+If/74Nri/CcnkGhRuxG4Uv884xE1k+ln8ix/CzA8Lg7OfG7Lj8NuAoZJtzfq7+3VzXh3RzmwdALS/tf8xdTF47C3MmC11ZbOEcffR4+aMlmtx1LjdusMDZ3q7fPg5PSHMc4Lx2GfJ8d4lvTls+L6D4cSe8dhtR+Pwy6RaNOWO60f6bRflwfXvuDE5LQEC9l645c9Na6WBeMennWWkOlnW5rS+FUytfraLpwolzduUSayEaVjr0L527nHYZdI9Coj2l8ii06/ZE1cchx2iQQt+e1A+yUIXuQwJ7+ddZaQfsHUtZqsgnPOOq+XqFeXYNIg6pP7aDmX4oF9puWfM9oNpfAiqHLJmlla+p/jnDu+ZJdQVqJe9o6x/nXqdcEdJFhgJP3+uuAOAgvmLRa/a6TZ/BPsU57ylKc85f9YphN4SJpuFstGtuQGvWWrIZ6c+pNsbzed9NSoOUmXxyAtn8xbi8a1G5MlGagdIkTA1GVyQWAcASFL0WhFyFxRP0gvuadJiCoKE7lutW6R2YzMez3gfUBvwQchjem0NxPkPhEPK1GHzGBInQIYRrWeTPu9NVlftStqEZgydr4gBLQ2Ix2hcnVNBtDfQsxnLkaxB54QIoBR49oZd5LNMmiuiVNMu1HFOCIYiDJN5r0HbhByFTAHD3akJsywlVUsySIZDsxXFB7OeFFmf18Egzf1E5mmFdA/6URHwJFwyUb/Wvg+WBLBA2WnT8N7YDwQEdK4bse9D173dzLFHjdpaB2CoWS1GUBt60qvlsGD/dhAx+oIBz8CRgk6wgvLgid7vUDhACO2kYA3h2Apr5QBg64/0niaYN9rkVUmIqupM0wjIKsPkUDWaga+6kRkDwyzI5tADaZLjKFemkcXYorwd2sVrOZEgCHz9AJVXa1TFygJVgJ0F+iZzKYYxI1sVstkUCi9HoJXGE6QbpPbLpdNK30joA6WwrxRvzWbzQag6QgWn2x1Wi77OKiPj9lipfSXmGWjZucDrhsPeZCMij4fqY99an7K3eXBPx3YYW16x4+6T4jHqQX/uG7Jr08vFpdy/ATGZ/aDwYorNO3Th4MTuRAc4g9pQif5LjncOrErlXuOs/3Jb9ztrhLaamHoUz888qucMAyxcaiH+ZdQWMb5SLc4xx5CizPGuI/1GuMj14BryrMv1FyHck7TIWo+tmXchBt1yp0QqgyoH4raGHrkyXe/msltaMy9MKuEnvC/BrUtTjEeYsb8oeNTagBZM6hvMt+GS2qKkcaUUd83ORPfUlmU2o5jm4y7im7CcAzTMOCPg/1ajFk+zAJBmgUAxgwPTGGkU3YY8AyD0q2razAMKl69hwZ6pwblPurG9SnD3mJGbVdT9C1Fcsip+GmCPoS2CFZ0HWys63iHwSy4U/OSjiwAOAjwGE3f7RsYfjDMxFA2T4tDnAXM2ErGp8NMdEXnmes4jIU4jNQAegreOZfmpypSPMpinDFLANDMz8uBnmhe535megumCOBRerml4AEONbL0AFPHGY92rlIE5xNTbEqFqtPLIeWiDxiZnoNjZoep2NBUArtoVmt3Cd2ZrmJSyv048dMieESNrGXMeCiBXSbagfIcJQdvKWWpUNCyBIaGQ5hm5pLYMlR0G9oxagwPVG1RM2sZMuYpORiGjO4FXuLKYGbZOxkegHk+YwHG0AS3Fy5fBJv5jAEcy2APB6KZSUEGDnkh70hgcTv4eGZTH1WdDMmz0MeLYIiaLItsi6pOmCFnngzWUssfgofoXHbmm6gAP29mwUURDA6ffTVpUS47l1CWbqcaycBKzNP4UWIliePEOT1uQAW4cVqdhEfm0/YBWDcNnkx5yEAdBbAGQWmm49qBYVmzPF1zPR8XOQAbbBi6IcSRCPAho6bnuqhcoGy5GWM6iQuqNrwwRksakJJcyN2omgIYA8zg2h5YAUc1LUiCOFVU9ZBDFxA2Tjp+ymAwVCRCyAHMsHyTMmvn1VuOjVFjFFvCX/hVbhHsQUJPL01jmBeLzCyWAWHjLXKtWK6lfmIAd4h11MCfk+mWIbQ3ojQxv2tjpRmL1cY3dvGAhjLo0W+itGz7kjqXW1jnYGXLHVALPW/vk19911o7tkAKcB7lx0Xy6luKh6H5B2AwuPHLjvAe4JGfhMRpMGW3BusmrAO/b8tC79abdC2WN3D/AePTxyymcfIdAAAAAElFTkSuQmCC;fillColor=#182E3E;strokeColor=#FFFFFF;fontColor=#FFFFFF;" parent="1" vertex="1">
          <mxGeometry x="58.53" y="422.5" width="73.85" height="80" as="geometry" />
        </mxCell>
        <mxCell id="MT3VQ3Qza3Scs-Q398Xu-99" value="&lt;font style=&quot;font-size: 16px;&quot;&gt;Trigger &lt;/font&gt;" style="text;html=1;align=center;verticalAlign=middle;resizable=0;points=[];autosize=1;strokeColor=none;fillColor=none;rotation=0;labelBackgroundColor=none;fontColor=#FFFFFF;" parent="1" vertex="1">
          <mxGeometry x="-68" y="529" width="70" height="30" as="geometry" />
        </mxCell>
        <mxCell id="MT3VQ3Qza3Scs-Q398Xu-110" value="" style="shape=image;verticalLabelPosition=bottom;labelBackgroundColor=none;verticalAlign=top;aspect=fixed;imageAspect=0;image=data:image/png,iVBORw0KGgoAAAANSUhEUgAAAvgAAAGsCAMAAACfCyOtAAADAFBMVEXMAAD//PwUFBT//v///v4DAwPTAAD///8AAADLAAAHBwcFBQX+/f3NAADSAAD//f38/Pzt7e3v7+/XAAANDQ0REREBAQHk5OTx8fE2NjaKiorPz89QUFApKSloaGgPDw8LCwvr6+u4uLgYGBjOAADKAAACAgLVAACtra3LAQHs7Ow4ODj29vaIiIjy8vLp6ekdHR3++Pn5+fnQAAC/v7/MAwPIyMju7u6mpqa9vb3++/vh4eEgICD7+/tDQ0NLS0u1tbVjY2Pb29vTJiZ8fHz4+PiBgYH99fYkJCSRkZF3d3deXl7+9/dmZmb98vNBQUHNBQXZ2dk7OzsbGxvtpaVJSUnV1dXYPT4zMzPZAAD87+/++fknJyfNCQnUKSrzxMSNjY3ODg777e3S0tLmfn/Ozs753995eXmFhYXExMT54eH76en31dXPERH1ysvaQUHOCwtaWlrVMDDUBAUtLS0iIiLcTEz43N342to8PDzTIiL19fXe3t5sbGxubm70x8gwMDDhaGj88fH99PTdUFBVVVVra2upqan09PTPFRWcnJzyvr7uqKi7u7vjcnL76+v64+PgYmLpkZKXl5crKyvaSEiwsLD39/dHR0fdVFTRHBzrmZn66OjQGhrmgoLgZWWGhobn5+fY2NjrnJzoiYnvq6vCwsLGxsbbAQHSHx/ojIzVLS3WNDTsn5/nhYXUCgpxcXHz8/PXNzjyu7vzwcHqlZbZOTk+Pj7d3d3xuLjvrq/wtLRXV1dNTU1SUlKfn590dHTeWFnpjo7xtrbaRUXjb2/319iUlJTQFxf209PkdnfwsbHMzMzWEBDWDAx/f3/ibG320NHHx8faMDEQEBDtoqL1z8/XBASbm5vfXFzeVlbl5eVtbW17e3vgXl6lpaWzs7OioqI6OjpgYGBKSkqYmJjRBgbWFRWjo6P65ubj4+NFRUX65OShoaHme3zYISHaKSnUGhrlenr1zc3XGhra2trNBwfiamvcPT3YJSarq6usrKzg4ODTEBDeRkaqqqrZaTevAABNo0lEQVR42uydzUsbaxvGJ7zhOQw4k4X/whyCyzDIC9m6yCYEF4KQYEQJs0iiEQUN2QRjNsVgGsFFq0cX6sKvhNcvUFetR6mKUgl6qAuXSkCsx4SqC+XE1vPWWhNjP+w9M9dvVeiik+aXy+u5587I/QaADuHwXwAgPgAQHwCIDwDEBwDiAwDxAYD4AEB8ACA+ABAfAIgPAMQHAOIDAPEBgPgAQHwAID4AEB8AiA8gPgAQHwCIDwDEBwDiAwDxAYD4AEB8ACA+ABAfAIgPAMQHAOIDAPEBgPgAQHwAdCW+0WgqKyszXFNWZjIZjXhDgVbF/4/B3hVxOp3xgSOlY3Vtezebbc6T3d3d9gcV75Gv0emMOGwuE95coAHxjWVWV1c841WCzUs7c+PJ5GnnXl/tdKu7KhQayxOqqnJPzgfa3614kiOv+2Mza4ryfMBptxrwYwCoU3yjK9LoU3brF6ZOE9HAfNWbFomVl5ebzYwxURTlT+T/JDJmNl//jVjdMDZx3rd3NrLYHfYfxZ02A95qoB7xjQaXY0Dxz/Qne6ITb1qqJWYuNzNZkgSuKIIki+b8B0OU8p+A6f3j8ZrmDm/cZkX4A/riWyM+pXmh/2375MuDvO/ite8PCP/1B0CS5fyHRb68ON/zjM76M422MrzpgKr4JlfkKDg7d7rnbqiWzWZReqTwX30A8vYzqfrNfGcyllXiNvR+iE8x6TP5cjN0HkpdK/+9zn8mn/6snF1OtB/Hwnn5MfWB+ISi3h7vqJ97G3hWLeYjmvvx5LOfSR9Ce8eju96IC8EP8QlgcBxtL3r6qlLX51eB+2kIkljODtP7/d3BuAXuQ/xfbP3z5qmz84brROZ+PoKcr1FjLzxLqz47Sg/E/0WUObzh4cTEZb7eCNxTIUiyWf474Flc87kgAsR/+l5vO2qeSqQ/iEzmnhop/482XR0vBxvR9yH+k+LyrcVW0pvmJyk49+W+cJ37fSPdSgSVB+I/VcWJKDODV5e/Iuvv5L50sT+VHcBRF+I/Sdhnh/dDB+Zfa/1N7ovmzenT5SBiH+L/7GbvnfEELtmvqjj3Tfjl9++msnHss0H8n6d9xB/rvGgzU7H+xv187J8n659jyAPxfwqGxmx/NMdEWtrfxL6UfrukdKHsQ/wfjXUgPB64pNDs7z/pMnksEfM7oD7E/6HaZ2Y98weMqvYf1ZdZbm/KH8ECM8T/YYOcTPdpOmWWONrkG89ldHgbIx6I/4NKTl57mVHX/kb9w+jwGtSH+N9/pI3PetJtqtD+I9epP+W3oetD/O+hrDGczHd71Wj/KfVzr2IdFlgC8b8VY9dubyClKu1vUv/vxNJzKzyB+N+EpaMmuqk+7T+mvnixPou7uRD/myaYy4kc6QFmUfXZwfxIFne0IP4jMTnrjydkWeBUi8S22nc6sMcA8R/Vclb7AwdMxdp/qvq5oRkf+g7EL3mE6Vvez6my3N+t+nI6mcVoE+KXhi2bTMsypwUklorGvJjvQPxSDrWLKp3lFOg779fD2F2D+A/GffPxiShz2kEQD652FIQ+xC/a7jOj7VtqP9R+3Xfer9RjsgnxC2PPek6003K+CP2aI4x3IP79mOIbL7ZEgdMgErs4zmJ9B+Lfh8s/opVhzn2hn4ouNWJdGeLfxejoThwygdMsspjuDeKMC/HvnmprApqN+3/Xd3Jn9XbIA/G/qDmDFxo81d4N/bb2xTjqDsT/P7bZxKYoaN17jpfE9HgH6g7E/3eaE7tqkzk9ILDDlWZsbEL8a6zK6xNR4nSCmIoudMEgiP+ba3c9xwRON0jyeY0PRV/34tu6312KnI7gJXYy0oHbuPoW3xjZuDqQOX0hsFzPNoq+nsU3+abm9VPvbxX9rf16LDDoV3yDMn6ip3r/xUR/wQaPdCq+1X+aE3Xp/fXvETofjWBTWZfiu3bP9HWsvbOvmZ7CcEeP4lvC+ymZ0y8CuxjPwHzdiW+ffXGgZ+/zsFzSi6fp60x8+0x7m8TpHHZ4ioG+vsS3LQVE3XvPceJmTxDm60h828a5DO+vx5qbK6swXzfidy3OI+9vzN86g/l6Ed8xCu9vmd/ph/m6EN82Ognvb5mf6kTm60F8G3oO2o4OxbdtwPuvzcdsR+vi25cxz7nH/BUF93A1Lb6l+wre3zfVXPfCfA2L76rH/doCd7I8GexqalZ8VzaKvC9gfm4kDvM1Kr51bR95X3Bv5/2cA2JpUnxDx1lKhuEFM/8khm8jalF8Y+Z0E94XRmDpZXwDXYPiR3pzIvQuav55PR4vqDnxbTUXDHIXRWLRbdzI0pj4lqU0E+D2A+a3DWGcry3xXeGACO9LuJHlacRQU0PilwXfHWCQWcpQM9ePXx2hHfGNA+tbGOiUZv7JEkY7mhHfgYFO6aOdQBYHXI2Ib9nAQOcRB9x9bGpqQ3xrNkBzoMP//hGe2AF3y+OEYRoQ3+RNUNzQ4fnKpqrJ2tpJd1MlLfXF3A5qvgbEd4wQ3FTg+ZbW/WRsobt7ITbybqKOlPpiehZ3cFUvvmXxgt7Blq92v10MOj+eIg3O1dGhsQpSd3BfoOarXXxr9pxewefrAsPKrVB1BcdbKymZv+XBirK6xTceDdEr+Hxd+1Lky+v0DU9SMl/MxVDzVS2+rfeQXsGvDGzY7l5ovLeKUs9n87t4jrKKxXd1u+lN8Pmq/sjXl/q8p4mQ+VJbwoelHdWKb+qIEiz4LWfKfaVsNkDpgCtvzqHsqFb8rsEtehN8vnXx3p2AyOAzUmXnpB6rCyoV37X0nuCKzodO5f7L7a6lFPkC28MDR9QpvklpJ7iqwIemCnQI30oDT6rsvMaXz1UpPsmiw1VGswWu1xCbIHUDl12EUXZUKL5rgWLR4Z8lC94bCr6q5kmVnVcDKDuqE59m0eH42u6Cl2zpfUkq8jHZUaP4tnGKRYdv6ckUvubwnxWkrpZN7GJnR2XiW8Nuil8+4d01RRYfnadNpCJfYJ0RyKYq8Y0DCZJFp/KVv9hVb0zSWs2XD0exoKwq8S01hxS/Xc6/7LUVu2xv4gOtC2a1Cs63KhLf1FFL8lu2/J/h4gWtP0Qr8qW2JM63KhLflkxRfIwO33AaL37h2+2VxCK/qhnnW9WIbwhfkHycyO8F1nQ+4xh8QyvyBfMQzreqET8yZCb5WIUPCeWhVzYzTe2hC4cbuH+rEvFdSyRPthwfGn6wMA+ctRAz39yHzXx1iG8ciNIM/IqCazq3WlqNm5j40tYwIl8V4rt2Nkk+IJZ/liyhLq/uVRMzn016EfkqEN+o0Bxlcvz8QgkC2cdfUov8thHcxVKB+JbeFM3Ar3ubKeW11QeIic8x9yoin7z4puAk0cAvuqbzGed6E7XI/8uDu1jkxbcnif4u2+JrOrc+uYut1CJfDK0h8omLb/JPEA38P17bSntxyn4dMfMF1oOWT1x8++BfNAO/IjBbYmq65kL0In8XkU9afNOqm2jgN6w3lvrqsn0VxK5e+KsHLZ+0+JZkG81fbsi3Lpa87OXwPCMX+S/R8imLbwoSbfhc9cNrOp/vRCxMk4t88zpu3xIW3zJOtOHzY/2PeEhNprOF3Cw/hFk+XfGNXqIzfK6ivfkRL88wRW1hJ9/yk4h8suK7+onO8PmmwUdtta9GK6m9BFblhXdExTcOEN3SKXFN59ZQduQPcpHf9hpfxSIqvjWWIhr4dWdHj3uBs7XUjreceToD8WiK73xhJjrLdO888s5nY08DtciXtmKP+Kll/N9//6Hu3IOauvI4Lpkbk5BsE0OIIAgxERB5Gl4qWJGXEKSi2MAadMEnTn3h8hjKQ9Q1oVR0igjY2grxVV3rgrqrMwpolUUqM2pHR120UhkcreIfO0M7s6szSx733JvHSe6Vu3j6+497T+5NZj738Pv+zvf8rtgqPIKVthcQhNqMI6LG/FYWQbnl8dBgJeX3tSg9wA2SiaPzQsHFgu1cStQOTjeRvzNWLnYUMeYvjE1Se8Uqxw18lz+9jUAz04k62EvzBwqPIWfYmRBQspD6DwjNW+BjFY+S8n6OvBhsOa41xGYcHhk++8WmQWFdGRmkE9qqpCm18V6tVNDCotebP5pxZY4IHFa34Ed9dJNsP+WVgp/O6AojHQ+e/SjDBx4LhoyDy+Uht5KSamNF4wT+ot8mIjrhf31qEd1fuO5qJnJT/tvzlKd8rLVZ4msV7qys4urOgjke5IEji23G4SFh7Z5sGpSQIbG+UlzD4oy0DTFOv4hAV2T+rKS4h3hS5PhtJXfbYm3/S6Tl4qclzT+SfrS4SgH9uobRhQmjg5Kft4V0zX6uSqkQjAv4wo2foiptt5yHTeyl6yA5kObvJ5GTtwE7hNTBv8C1F1JXhWfSatJA/VMuNFw7fjGDn27nSnzf8KWqyHZn4D8pxj+hSCPAj/fEj/K1tuBXFLqC+yge1JDA95FwHUWnAfzjbU+SMrQFA5W1MeMCvub7+4hO+Pk/wLrpfFR/FKZ6Nx8IRHARizr4i2FwsBWdkcQkumSpA/C9J8PBN16KVZb3xhn4qfbAlwcB8CttwY/3lBL38LlIAl/r6xR80ZQ0fbrqQWejri0BGwfwsU+yAxCd8Lcdg6399B68DvtnsOv1JvQWseqxsYPPlY6mD8yAP4ptapuecfDLUxSkW3jOEdACv/3KQP/uTu3HdWqfPtE4gO9yCdFa5oTMn2A2HZdlK29Am2leO42cvJ149iMGwOdyJYOtDIHPZWdVJTANvtqbTbrD3TwxbfAvX366YESdMS7gL/oJ1Qn/JPT1Ci9ur4h6CNuX9eLwCuTk7bNrGBPg+8c9Zwr80WsVxDAMvq7B4gaFanqpTkjakvThkEF947ikOsKNJ1G16RyA2nQ+z+b5rYTlQS7fJSI35bsdZgR8rqwwhgL4/Pm/OAefyw4awBgFX6xyt7hB0cA8WuL2ROVwbcLkJ42VXeJxELeaelSl7aY1MJvOwqOf8Xgr9sLk7UYEDTufltIGn53bbIiXT1P5xCxaFG0DPlvRMNUicou0rTbg8yXudyWulolTxmRGwe9rZlv+40kBpXxxpa8/2xyE/iUO7TaAX6571DIw54E2pEI0DuCvuo5qpnP2khAqbaOMWxIhp2edQc+wc/8IRhd8WdsSQ+j7GtsIzZj1xAZ8d586uVWsTbYGn12dMrS/JyWjjEUSyzkDTIIvqs21msc7vPBzTY23VOuNcWs3+Aau81WPTQevPJlpfDwi0x6rCnQV88ZhAUu4fSui0vbXHS/g0pZn6K8G3YR+Phu5XxNwXUMXfN8WM4LBCSow57NCbMBXTFEmWwVucSDAd+1Qi8XiabHReTn+AExWUjuD4If5yKzAj9PhZgcsNKzVFGHPweMh6XmDHxWb5vim1iXqWA/ml6/sgK/5AdXFq8R7sFrmi+4VRj/DVZifYVU3coadiPw7tMEvAAaZEwAW9yRb8POgVyOB722qqs8L0wUR6Y+3nkHwIy+YkxiZxJzy8FV2cqlGoIAlXbbPHfb/oN4e+Pu2IZrpRP2lFy5tA02Pxh7IoyFE7I3PhrpOwDd0wZcA8LEKcND9MfaO4JuLl9jMNCJx8pRTAT+rR0ABfGVauPlMNcinPoy2vfCMqeAH1oa+N3emy01UDclfH13oQNoax8DlbSl6hh237OXvDv7FMgJ8mxmfpdKvNoc6zCn4HEHffAB+bhdGAXyWqm9tnym89hfBwH+TjkvnQhX+D0pRW44o+LO6/4hoppP9OQaXtiaqA6HvfNZ8/yVyuc7fzr8z+Mrj4QDCAhvw+XFPg8zx8bBz8Dn964FiyGppogA+PzwHD89cGQx8eZAUL+b856k92wJK4GOvEhHtprN17yqH0tZU8DwFWxDdjFwD2Qn319DN8XEdK3jzCKCqGLat44OqIDurAHMOfs0DUFdxV4kpgE+6AdtfCgG/KSQLFJ70YAXXM1KAJPgu156hmen4bTsmhEtbHOrAgzDFuBO5BrITJm6bRQ98mTbaGMdnDwJS/Rt+dLSApaACvrIRIC3RhlEB3/4qmSX4I5fxhzMoMhSsZN1NEyMJvmYHotI282GpE2lrfDwSl0GKhNhN5PajRGzdTnMBK8vT05BeFIUTq56yyw5XbhUtFMAX1FWDo+mTmQK/EVy0UC+oTQW2BT2K4GOfIFrTcWDTAdLWMCzzNqyDwasvUDPsTA94TdOyYM4w/ElLTnE6AQPg54CjhbEMgT8JTPKSKTGcDXhlk5vbqEQQfHRrOvD3Off+i+RH8PvHOZgS+Aq5BrJuW3bSA9+OO7MyhoMm+NHN+PPZMCDitC7ANTB/fT+C4GvWfIuoTec1TLUK95BbRvE2HYXB1HsANcNORP7mMYIv61yNccac44vkoCTpOtjPDPgikNxwO/pG/8zDlS73ZR+C4K86i2hN5/QlWC3zULdFCgN/H+LCMzeQm/K/Ghv4ssvRRN4AAZ9COVM5A2wqlDyaxgz4/cCu4KoyPEtysEMx63kwcuBjd7ai+VrbFYdfUZC2xlzn03sweXsOuQayASWiMYDPb0hSk/JlAnxZWVWl1hQqOQXwSeVMFqVyJr94adlSU5Q1SOyCP6dMCiyfusYZAz3V+N/sqjfIgT/31AdIOpJ5idAXxC48ZdUIPPM32C6t5ci98fmDGy/eHXypYmgm+bkhWRZSwvCYVk5zAWuKktrKrRce9lduk4FdgctWpI5GHOFXK9uAoQa+psQNzWJmCdSm03vQaie531mYvMXQe+Pzs2V0wPd3Ly6OI1zELEtLzrt6dTgcrw6wCJU7TMWyoOhRivCIt+vVSUgnnP5Sf0MQpnv3/aGIgY+tQ7OtCO/GUVg3HZc91jDz8s/APDClBzNRS/Jv01rAGpTL5S1gUxO/TM0I+OKhLMKkVseMO3OA1F3BZovj4Ahi4AuOodkimQe14HAO7bWpzsP7iKNn2HHL3kkDfN+C5OTkig5iyk8RMQB+cPwFsE+K3znCCPjtKSwHKri6ToQW+HPRLGby8rv3UZS2xlzn5HcwK8D2LYjJ2+lvN9MB37ARpbwLqEm259oxgN9ZYXTULNl/gchKWLdqGAF/tTfb0T7hkJlogb8czX46vL8uE1KVtobhUTtg8nbXXtQMO/fv0XVnYhXNRLb82G5Vx117PHKOZURPsgafH/Rg4L8/p11pDic28HJzHOw2pwE+pityVPeU7lYjBT62Lh/JYmbU1VJKq7Zgyj99jfN7MewEPBTQBJ9TMyQj9s2esAc+WzE11yrmb7AGXyoLL47LYklc/cmbzfs5TIA/06q7gnWkWtgW3jv4wpvTUUzxeSfrNZSlrfEDW7+BydtXD39Fi/yJK2fRBV8w8iHRoqmtyd4ClqmOQo4iuTX4XKnUX2qpQKU5AyJGwCfsClyZIgsPd0JKJLWiBP7c20g2xXdg0znUbZfjwJLtvxfDTkR+L13wOaE9roQpOdLxyi3oaFNnA75thLc4al9DHXySXYFfqIsfMIU8hOi50NyHEvia6yhW8Xmb/r0TLm3tYsz78gis/HkHMcPO9D/X0wZfoC8jkhNtDWPgs6oqMEbA79eCZCx8uB00etB78+3aFt43+Ng/keygxjt9E6MhbU2q4DBMFWhQe+Pztztog8/xyCOm/Fw5U+Ar2vQODRTUwQfdFbjcxRuICyQngRonuyoWHfCFaFbxM794BZe2kP7fftsuwT5z7ixa4Ltt2UUbfJGaaAgiW+DBCPiunmlO3jtCGXwlya6grSBdgdRJs+wEhgz4LvUobjPnJR4Rwg3JfjBT2xpY5X/fYbQMOxGf3aENPkccAnSitLjRfFA/BvBlOarjoU7qS5TBv0jYFVhDZK/Q6pf+9mwL7xv8WQ9RTPEDS+7AV22hJZrAAzB5K7yHVgPZP9w/5wx8kNFL/sfe+Qc1dWVxvDAvvrwkLiElCfJLBJJa+WlAAiUREAGBTdWiwFaxaJYKWuvSWmsF0bpEgRXtCgLq0iVq8QfdDtrtSq3gj7LFWmboOlRtqdYu2nGou3/oSGdkZ7rmvvwkue/dAMHrDOcfx8d7j8e8T27OOfd7zkkzid198yxLdacxQ3JoGgP4dUaP6GGW3TgUr6hpA92xnqxjsAR3VRaVkKOJKPIAILsk6vMkFgWEtZsqKjd3SJZYVSA+MoPPu/MkwF+bgmEWn6r6aLaToS24rOlgOuSqTRV4CXaePcLyhkTzE/1o0w2bjnlf9zNbgHEeUH9mhx/Uvjc2rdRnWJ3UqcvSlKfduaWNLFWzN/IkWjSma7MsXY/JwvPm210HWn71rWTTkQ4fm3ouIinZdIeOTAv4V3aYDpbUhE08+MTb+Ri6+BRUawkPbQ2Xyf68CZbRxGzi85SNLOOwBDMSBo1mHvZGnBw0m9SY11FHJgxCTW/M96uVVidJ9bNEEZVhCiFa+9rSftO1/Vad/lIjzfej+10SIqn5iNI2bAjTm+6Q0G/ZgGjQmw9WEhMPPpbbV1T+L3sYQlsmmQM0vN2aixf4K9iaxxIWc3iQcHDIzkiHJznHiuPr7G7H8Asc/2S0zzM+4LtdxnDEp6wVOgrZYxeTup4aur8WcuF2vCY+R196j5y0iTcz+C/sxzC2XfQdzGMh1+5m7IYp63oFtm59gFUD2ZChXZMUPknw00/hBz7VdPGFUYS24NJLn8DC23t4NZBF6yQ4aS4Cn/iy6Tf4gb9+62hCWzqjeRM2StYDr4nPrHu3k+ZK8D3OLMIutqVWXn4RHtqyXbziK9i1/+rCqR7l2Y2zJzF8guAf/h12sa0MLtNhDm3p8PbyX2DfFvdxEuxEH397EsMnB77bR9iVHVJDN9fAd21Z/XTZelh4S36OUz1KCFLv2ElzEfiz92NXdkhtPugxytCW3vTdC9N/rcKpgSyraGFkVirV02DKVOazGpSGs0oZTlGLDGd4QyYKKvqv/OCTuUOj2ZEZfi5+HqQWlwgDvybC9iYKb08HJgqDq4GE3vTfhJbJF0R4spjS8kD9D6UEA/irWrHTJFP7oEUa6RerZOwyH+iocwKric/XDjoFvndGY2Ji4u2ObkZ1TcSjxNuPT2tj6Jrgq3l8o9ttWkc/65/ZtlDVx+MD43ll52V19zgaiFgZp1uamNh4w7b3d2G54RFHWudAuU/9IceihLLzj592qd8wmlZHdOP27UQma9T1GPeMHxYFfK+5oRVAwb9XhZtSh6p6/7cMu7bs5FIpZ2ALyKaNGNWjPPeLUwv+vFDQK5wf2s50mmc4PRElDd4ZrcbfcEZovP2P9OcSg/lWc5e5EjnHqy4gyb5AS9QrNtxk6RWbo0GhHIfG57nnaeo9HTxMIbiCb9t+AWr6hTwOswUm0X+3tiTzUVBSkV+sAAI+8eoQduDDZToeH6yQIdxgDnQW3DKcJj5P6XJmomXDI2N7keA4RvB9gHJZvq2GAXx6No/db2gpcefY94OS86M0LSPXa1EaKCtfGjsCfGiDBTknOCvG3gHzBRpPvg8a+JEL+cz9a7mBQQD8Sk3Gzk5dcktBiRIG/qdTMctmUvnv7hnlrq05vM2Fjlf7O0b1KFNalzkBvrLcNDw2QM0OPjcwS+8k+BE7p3Ect0GT8OvCE8YGvuEunA3VSsfg81DBn4sIfsxZUVHj0R0DszqDhI7B9zgRjVk2k0r5hhhDaAtuse4ibB8g/Wt8BDtTNqejcy84ZJLic/JyEMDnqmoJp8CvjNtgLheR8/rcxYFWvaEk4rMxDWME3zDG5Y7IxeBzaFfnenlp87Zmv/OpbRkKx+C7YddhYU7FJobQFo1aCjrqnMRIsBN9aRM6+GF3zeVNwedQwOef7nEGfGHNS8blXny67U59UHzNrXO9OquZngPtqODz3VU2lm2ab86V+M9sGAfwp6ugVteiNoGf1+ifI4CDfwEzpQ7VdAIq03ntAuLOK7UZOipxDT4NZEOGPkMHf1ayVbltGAL4XHHbSSfAX5xMXyfWDUtThQKDCdUi3+6lxhZR/rYTmpnAjwov1PparLB4uLnDWG4u6dSOA/iaWF+I9WgjwPdcS6eoV5MTmtTQWQNxddw2YlZwS+VCt58IpNDWGN7CNL/EXmwayIb89Aky90KtoWCbE2Uo55Zv0KKAz10+jA5+2H/o+kJVs1Rgrf4XSqtBi83scCWyj7/gkdpW/S8QRv66kP7Cmt7tPXbwe5Vs9QcNmqL6ekX9cHNyBCS4XZaL14pPrdz94hhDWxDe/gPaZ/kBNg1kpzqhzyytNrxyrxINXcqNBD7PrwwZ/IfJcnqxtstcqnMyo7h95U4Et2/F2adSBYWdtNdk2z5zdODPV7Keubhky8yjt8rPamHpzHspeG3cUm+cIeGhrQz983MC1o1qGT4Tn4/tRvd0Bmji4wxvPrCkFAX8x8u0GhF8In4anQpy8FEhlOf+XeJLjg18kmh5B3y0ltumWVwFPjnYHTAQUFAG28AiHlzCK42/6Nt7Y9q1NS/50FHnGAl2jn2N7On4Glp8yP19teDfulgk8OV5MYjgl1YHA0f+ruOvm5yHwrGCTwqbg2lfRzQh4JOEqF8kgEoWiI/x2r+iNh+E5jJf+06GTix1fBcsvF17ExfBzrFvUcGvrOWAjiJheh1Y+TNYwOdFgWjSK3kWGviz0gwuuGRuLOoDOQ8+GQMYl2T2Twz4zCI14kw0VvtXz++7OvbQlg5voaPOycO4NJB9bj1qIj8S8C4uIL0LANc6ETP44s4B4FioqtHATwC7Y7ySMheC304PjdC0YwH+kms4pfGpdb+fPQ6hLfB1Tn0MFezg0kB2Sus9tJelvqIC+z/FpKLFkNeRLC9mBr8voB6MaODP1SKB366hpzwnuBD8SHrIefI8LMD/G1ZqfOrUp+QYd23Nt/rDEVizfAKXic/RB75Ae1knCwzrN6/DkySlicDXCWcG3ysgoZdDD+gsdQJ8l674yi3T8QHf4zBW4A/9FSrTSd/rZPWUrOIq7oKd6HVX0V6W3g9MgzC00BQ1c02fASbwNRE9AEJJnd2QH0fgS9sMnyzJzz0uBH+Gxgsj8E/gBL5sBVym8+V+J9Pv1IElsC3gl9/FQ7ATko9Wg6VuCQaejgFVRUw2aBlbwwK+SJkBOAvUJSCA71kE9pfq4gjXgZ+gA9S2JWAB/m6cNm7nVHwxHkl8U3gLnQVHYjLxOeSnV5DeVUQRCD0TQUQ7CFZ/cRrBAj65WAfEN9kFauR0ZmDy/1wHfixoghtYoMQBfLebGG3cUk1H3KDPu33XqTlO+jofQsPb9yqwCG+nvvknlFdF9IN5h2IfGrlw4O836tnAb6h/CyTzQ4sJ1A0sblSRJ+Ei8Ila8DgLbilwAH9ZBUYbtwwyHYNtrch3ytuh8qGjzkk8Jj5PvYYEvqIm2JjTAf+LAeMXVEFs4JP6+cB/6dvhiSxZ4KqKpAKXgE/QA4EkZydGssAGfnoXPuBTK3czj/ve9M8qp8iXbXwAu9Xruc8/PeB799LKG+Pr7qcj3dUEG/iEthE4Owt+FLCL1H40NsF3z2ppEIw/+MSM1e60pPokFuD/MRefUnMmmY4xlb83xRl3h2r6BlbilI7FxOep11B0ycQgGI0iNmUwvUFukz93kA18svKHbJDMb8xhBZ+cpzHWePDren3DBGMBf8HOkeAL1PNW048SMKJg+EmBv/1DfMBfdGEN20PP/izXCfKpZ6Cz4MivWrEAfwmKp5MkBnkc056VogUszlEzWcEnB8tBMj+4N4wVfKK40STy4W27USximRjBvOKXKqwstUGkrf0ZpJg4fj2CcQC/d4bCxoTOg79qBTaNM6njKOr0BxdWojspsjc+hy1dey4M4QA+yp8syqQ9HbOQXQr0C33nFazgC4+CsirJtiCCDXwyNem0ZRDzguSdZalMcyOYwBf7Za62sswtfv5gz1YeeLZnpFx0VOAn1lZft7LaYsXTDP4zXUi7Oa/eP4BMPjX0PnRDDIuJz2+eQPB0yl4y6nTMPj/Q6/DfaWcFnxTdcaflxlJW8MnU+A6exFJke3p+fKRCMBrwIQW3gRvS7Ofpjgp8uU1HETm3XOQ8+Cm4gE9V/RdNsfXywVZkd0e273Wo1rNrztMBfmq9F/B0LB1sjL5O9q/s4JNldEWhqlvNCj4pzDmv4lv6LPCjOmtzSoXjBf7/qTvXoKaSLI6vqRvbm8Q1UICAsobEIAhIzAr4AAUEBBFF4yKDgCCKMMo6+BYYxCeOyjIIiDqKoCMrA1qCD7QUw874YJQqdEpn0bgr+NjScnY+aK1bpVbtkr4Iedy+t0NmpmN/hJuQLn7p/p/T/z5HdnkCS8OfX+Sy+eeWg1+SayvgezV8h/nJF168+gb37m3bSZTpbZAtdHxe/TWG0jnNKB2Df67uCvQcf67mB19dXKhHWdgcQPGCD0Cg50iBAfpDZC7LEGrfcvBFhadDatTUrwH+w48YfDq5dDn2Z//+SDYe+bQXshcc2N1gAyv+z7xzlcwtNFE6+mKC+v+/0CWeH3xgl3oXvv7hWAzwgUT36LJK5NHPlDgqVm4ntRB8J5PxQewotnfZSX4F8Hd8zOBPP2nBh/+yqg5PqCjrv0PdR5ltAx2fMcCv7NafQnkkGdrHggOSYLJmF8UPPgiLgWIn6t9SDPD1q778YbmD4bKvKmg3r+nKXV5EZTg0AgeZuPe7FJT5XmI9+GKZ8Tj9EYPvv+66BR8ebLnXgCX06TdLkBvJ/OkfA/h28LKt6LKRu7gmh3HW5GGAr5aX6ykW/ykeD3wAfNKjW1Si/qpqYm+tn8QC8IN8s7Jq+8eEkEe+MW69tXXutl6QWA1+S9kug9H57K/qjxZ8+vApS8rp9Uj0s+uwDAzKq5tQSbmMdXHEwa/im6c0HVLqeMPYtVYGt4E1SzHAB37VDkwyPw8TfACoscXL5gn6JY+qw/TWNhf45V1mb5g3orqQSRmNitRR1oIfaQ8GPmwLfC90tUvUuH67DYN8+otjqGQRRb7jM39WxweWFTFWOv1a5waFAT6Ih3f+nApDJLjg6zeK/O6coD70BacvUNjgu+1jyYJKA3IcIflri3xs4OTWRtKZdNrtLRbP4MU3GAYGWonsBQc2nfeyefDH5jBXo0z6M+hioNbJGYcDvo9nFPP0FAvA18Mt/0PUh8y+osPPOvD1Pri7TGWddMoGwLeNAyy6/vgAprB1z/k3vOQrU26h7qPMukbYsDP079/yKZ32tSxKB4DGTqh1yn/AAR/olomYZL7aIvABcC6O0fQe55Y/V1sJPlj6FGKree5DHvxE2+iHEvfg04HMgdp0gNfAQPsjW52DW/VehME/xjPDvGghrKeTbvaFKIcKJJXCAZ9qf6nXLMI5MJlvAfg9YfQzFyaDKDT2Ew8EfKBNYtLuU2zApNZkC+DTdXsHDWwW628e5Mtr0isXocLbnx68ocmCz7fR+V1hcjru9iZjLtQ6ou2BOOCDcVoNU0Y20FLwQUTxfob8JG2wteCHQUv+kKnt5MHfutIWwPda+eeBTqNkbz1P1RE6+ytULzhAuOMzb/s3pqzIEHFCqOl4AqvlOyXVYoEP3j+ExLhNlFoKPpBOmgrVjqygxlrw1R0C0yqCpMAfX2EDF1Ho7FezBjyPWbdW8uQ10b3gwIqV/mTB57mIkpfqwd0HQVAtwQJfmgVtmqKRRy0GH1RqYWzsNK3dWvBBN9Q6gueVxMGf/MAGwPdquGTFRMDr+9wGBo7wduHPRA07vOD7TeNpACJq8cMCH9jfgIutJjPPYvDBUebs11tuNfgh0H4he9ZIHPxhm23gsnly6SFk+Lo1kf9gK2NJLufC7X/zBeqlZxpIhrdDV3OfXjBlRTib60TJ8cAHYU/gldcEucRi8HdGwy9NeZHV4DNX2kXR9uTBX0K+vAiXTWfGnmu7+WVQ4rEGrihVuQAZ3i4uJWnYGf2Gu7xIYySP0umRDZFSPPDVcmjTdAjVWQy+5K0bc3WXshb8Cb3gO5MH/xz5glL+61agszal/gtuzeateLHwYsVn6KVbmX0OeTx2kuR9lNFprzmztbqp8NrFKAXrcICqff9wPPCBuy88P4rSqidZCD7oSmBeKbEWfDl8IwdtHnnwyZcQpNuqkE2vhl1apaRTzi3nT3beOdLmjz69RfeCyyBZQPaPbd9zugaKocS4Gy7vYhn7WuF9vqAuTPBB/HZYaHnk3AkWgk8x4CdZv+IXwb8smBhBHHzq3iekqyV7nUcL3ZIlyfTvlAdfbeAX+j+dSkHmNZXTj6PeQELSsPP73PWcSqeD6e4Zxp5mXArPsBxnBmOC7+MJcyqqVPkaVvCR+6qU4XXNW2s1viRVZSvpTGrPasLg02n/TUSfzFYoYbrzn5v4hf7s+edRDR9oL2Src7CpidySP6aphGuhHd7M2c9Z9wTajafmY4IPdOH6PUI8x7eQBfzgsX6ovtGNqXDnaZ5kLfjusXCTmmMDB1jUpTjCjSHo+j3o0Parg7BgJv3m6iV+oT/o7DaUgYE+fxZ1H2XrbXKGnU/WTeZSOl1QlAuKUDx2Mg6cd7jgS9qf6n8n2LjWHHxpfHjrCDVXOtPYszAQ8KliF1jzwbA1BDHwF6URbgUUdyCDI7TtBZmm648tH8Y7pxXXEAYGOnsvcls5nkJs7ieOcDrEWqHScUHVcZW2r2EpM8IBPmh8DvtLiMVm4EvywwWjLtey9pSrfM5cCeiwtxJ8v4eOZl2wiIF/vY6sZ4E+uJfiCm37ZHpd1Xp+ob987yr2vCZ9ABlGvjhArMLOiWtcScQLTCPC08hySbpQqHU2huGCD94X9LVHNwJfonPV9ODXPJFF7qhrW6CdP8Go0L7l4EvsUpkqhd5ZEvLgg8QGske3/hw2HRja9pH/xebX/EJ/xnF2A4MyFxneUuQMOyducikdTxm8oL0P+cS4TiiZVROxwQ+ubfZgA9+ujHElBLUG2BujT+Vl5ciYUMNo57EUfMnOuZkM96J/GHZ/+wC+3W8N/qCrRE+w6OybszlCW0Mi6eR1F2fzTmvYor+xGRh6wltUq3Pw4wJC4e1QzuoizgVQ6WxEt6Xq1TqjdlTigg/syxQs4FPtLb2ue9lj13Z3n749RrpzStF+uEkIvfdJscH39DEaeeMCa9K1Ix0Ze3Oz4YLfB36ND2pUSs3BRz/t4xOMCf42op4Fr1Vom86sY8a1vGmvhnsl/EJ/w83cOJYlv2k36qXjSXV8Hv2vexxKJ4zxtbRyBPWM1hE+jscGH4SFilhW/JpUN3FfKZ3Wd+nD/QLt7QP9prRrY1SMNUKTaSxGuMBXzXznaTDePSqLDHW5y1zlcgra5QzMwBfHdHsixtuuGokp+NufeyLH//IleOCXjiGZz0y+/wId2h4xXbrp3FMZk3nJLznHYmCg075BhrcXVxE6v0rjcCxEPGKUThdXon8XVCEaLYUNvlqe4GQOPgjsnif7sBUIFd6XWzNdXSMLriQ49lqCBAUmhwlc4AsdBEZjVH+xEqGm2rihBQO+k0yAGo5uxRGm4KOf7vlj3Wos8CWvBhMEn85FX0HqCW3N8FW23f6RX+iPv1RhntdUbruDNOzc/4zM+dXhQ+hJ2IfCpbC5hmOi0na4KzjENmKDD9xdHVnABzuLcxQGxZo8xGJxf30RoWKHae0qyyupQUnj5qsDLOBzupG6zMDnHJ0RWOAPOzmaYCLfv2IFR2jL4h+jk7ed4Rf64HWpmYFBWTcf9ZWhCBl2Bk9H56kk8fBcVhbOeXyhi4VaJ2EpPvggPkfMAj6Q5LvOcxSyOkBFbuFmh8cDAV8seFpkGpbyg68IsQz8XXjgU6/9yYFPt1XN4jm1NXuJf9P8xfxCP2NJSpxpeItudb6hIo4I+E1o3VYJy4o4aYq57ZuM1lHc6A8A7WCLLIdQJPiV+8oZ8CeZ/CLvh2XeApGTGfaalonu5htSBwR/vwn4KIydPESOqqmpR81kCAb4Bit+zZxfbMUHX5I8wWpCX8SYcYy9TRWtTPn2U36hv+XeAhMDg7LhDMrrNqiKSMfnwQ84lE6sXrAqprlzzlI6wlv/mCq2P2AMjNb/JIijgHBNpEb/yMta8+9RgOvIJIGsT5I7CWWCpCtl/2E5SXCuDtK/yXZj8ItfsupuhWZt4bSZRWEsSKbvF/CMKLnBij9Nwfe4QIsJ/qE6cuCnbU60ILTtI/jwX+7wC/2FZ7YZ5zXptK8Xox5eRMSwM4ajjtpObbVvz5DzzNLZU/9Y9aN+BVEZ4FrtW50qR//7qfxO/Yu62fKk0ppi1ydzyoNUCoVCE5T0OCdSXsOaJYnISu15k+oiY8mez3xqk+EarQ1ZinAC+XX7co/MGxf6v3d5Rb58I3PE/9k726AmrjWOD5nE3U1iDTEEgyIIEgERuIiAEFCiFAgiIooUFGmjAr5jQUUoohUI9a0CBZWqhLa0CnrBotRXwhRL1cxwe0cvtYEWUe5YcZy5deR+kBnv2ezmRXHJ8rYb7rCfnEyyhuzvnPN/nvOc/8MjB/5++rpguSQSd8KxMNq17Z+h+e0gCaH/y743CxiQnS+IBPNSOjo+m/ZYoOXiuku/7XzYkhT+mbN3rCUP+n+7dOD7/5e2RH7viV3kdm37C/1Vh+JN92N9dqHauBoBOUUY3kLfJFJ/BHHmx/XQ+EUb+JOK6DqKgpw8509y17bfR5HEomemhf7SQ9uMD2YhxK3ONx6gvmBnbuG/xjGkEfwVbTSldeat2jvo0NYg9E/euf030wUM9U1GrXGddlwhPMpFQ8fnWTWbxjGkD3zmQZrSOsiWI6EDhLYmDdI+fFD/qek/86cjhgIGZPuFo2ZUsPNdE3ccQ/rAhz5PpCe6ddlxd0ihrR7j3uarJIT+l0U1+mjBiTi8XUJ9x+fvjoxTSCf4Cc30RLdrHjwjDm1Pk3D9QFx2lD8zfQx9yV19AQPy833CReYa1QayMz8uGqeQTvD9j9FSkY/sKWcOcte2v9A/+9dm00If2vv7KVzHIMStzjc9oNhhZ+72teMU0gm+RdFcOsrU5jXfHnpoa4gTjq0NNf237v5rESb0nap/JMwFfXWW4hK1s/vHKaQTfOZeOs6bI4XrEoYR2hqK1nbeJSH0j5Zf1Ap9ZM1pwkzKboo7Pg9UqTOMi+nFDxxFbJhuCsOeFo//1NVr7IL/eSENaR2XAcp0yIS2BqFfU/6naaGfcAUrYHD6YivRMElYR23Bzqx9JJ8Ud4pGo/EgSXPg08N+rqNHjZu0dL6+/VBgdHG7zdSQsQo+FE9D0QLy4ZmjwwttjYKF0z+R6Jj4QlvAgBR+RZgDrafWQLZtBcknpfijVqVKkZIaI/wqVfrKgNFihqfsDC7p0NfNBcgYsCAyljlWwfe/Q/2xW2QR8WM3sWvbP8T9ed9eEkJ/w+nqXgRBiFudx5+hsmBn5t9JxrbcaLRy16qYDF9lDiIW5203zZG7+N0lLEGH/ly4tvretiBwrII/6Xwb5dHtsgO7hh/aGjamDlyLN/0Xx59ftR1xSrxGKK0PUdnxecIikm2/yvzstd2AyPR25YeLYc7jUQM/IJ8D2y3Wg78QHZGr//Aas+BTv3eLnPraYoDQdrCSA3G5eP5L09ug/gd/K3TpXUd43m/jTgoLdj44QbLtl2uk9izg6m/JgN/CGU3wn+awjcGX5jjaMyLWj1mpA23aQXUmf6AyncGEtkbS6QIJY1no9q0984hbnVuco85AdmLbc5K6Gm1tLobhexVcMuCzKQSfK09Jk6WO3eAWSjhBMfjIliP7Ryi0Nawht7aSEPrPztWcKies5d96mbKM5sx/XyX3nLK62TDLUwBzjnuYfvOUYgD+Ag3Z1CSX+85/E17WtWz4nrGToJtr1tjN46Mz3XvUZvJdqq+OWGhryBOd+JHEjtDSQ81nNptBwc6ADgvGP4cyD8z2tQ2w0HPhmxlOpS6tyHO39OV7oaZnSqkNAL8nVqnUzNApb657n1ytnir15Rk+3JfdN4NXJ/XxTpU/LQOveHnE+nhXrf/B3eiH4So0lVPVanWsBm/HzJuilEeCGV8lVWo02r0CrrtSo+Qb0vpu1rFq9fpoD4PoV2gC+jy8wO3f/AbmAj5zK7VbWMiaJmI3ndDzQywQRuZdvk/CWHbSwXX1hKLoWjVlse0qchI/MFUCi8OqOsSwwMgcVlEqk7XqjiVa+tnYdMdCUIjPYlUPC2ZltHcky8LxnKabvHF6j0gU9SjcRzdTKxzyI/N/rXwSMds2t0e10BVyT025KbItaQhuzNZlaHiW6oeyvAaRKHOazDlA+x9P6Wxtj2PB7OW1HTKZH7r8ZDm0ypKddconJPuV6kaXKPN6yvwZutXDpzV/eou86v2by0UNaeHqLHMD/88971EK/tlL0AiGtob7Jp4j4TcFbdhAeBBrU9Main6DyevIxYQKG8DaNN9SO5iTaTDC98iHYatk/A7RDSyW5Akgs9vgCAunp2qfLL8zj4G9IOhpxC16LOeAZaFregbmdBPXne0chJlJiT1VsTiyrk8eO+Ium5wwlRol37rdyOEgD/XZcZUJYHEwvsFQV5WfwcK92JKk+ABC23vOro3Cbm83zUFhXuBDob9TWqA5r/mXkQ1t9eSfPPKChNBnElfHlVNkIDux7Qo5pWO9EjCbwn0pgmHHAgP4nxiBX9kFw54PUYFvZIuTrvVQ4PvF6V9hhdlgUYKljT3MEghgIQtFW5ye34UaKmidFRwX44EEZqssZGlNpay0m1TW+Ua3z5O/Bb6bwwK9FRsckxyNyRrUYNzKioXfXXg81cu8wLe4RGUmHyl8vmSEQ1uD0G+6MqzSr83bllEj8QduAqS/0DZYQok35FsrhO0jy/TgtwOgOnQz/nIAPpjx3R9meFoJUSMciUSiNbwpQ31uhGzP9HSJPdoGvVs741om2Wvd0UQ9UbYC8A+OWCiwzcwsQdtQ6LzAy/xK7D1zG3p6RDFgnpeE10GQskMSIxDCYjtPcPvplTj4LAx8rs9NMFLYMSXpGQIx2k5XqQcfLAFhXQ1xjmDYsJM15gX+pLVbqMzk13w/UGjrNKxBtWzbiqPDSCz7U9TxeTLJLL47EPec465QiPM9mJUrHxB8r9jupOtA45dUFBe3FADymNERYljIuNHS2dly3RFtApTK1IHPypBVvZS/ztNO04y0V3J5aQQQRYzFeMgsfT8i3EH+Mjq1Io4Ds64DzhVV3RVRHJj9OKm4pcXB903wPZLBh+2C5pQu/CwYVTy5pSF68AU3GtWx3ottwctdVVyzAh+Kv0hdQhPZfuyjkQ9tDXtZ1UUbhlH2WL+DioKdibMukCtXyM5ElQ4T4koB3Qx92cI7wcfTmewFOrvNrIIYQGPaVPC+wEqVFmuFDnxGDjr5Bs7P1LZHR5tScdU3WTAn7yW+1Cg1mFqxTAI3ycRc1zS19sbpTAP4TIcutJ/ifHRJCkjJEMKcT7J14IuDvFGBY9kK7sNozDIv8BP2UeeZjCy6Pyqhrb505+wdEsayhHUNx6go2Jm7fS+pb4NO9EIJKtf5ySyjsgUi8LENLJ2eCGhHfe0xZpnyPLAY9Mh14OdiLszWKg7aB1Ervd1bwNiISn37O8xfjiqgd21gGcCvqwALSvprbC+rLxIIqNmHuTj4dknYt/5nlBhmtXqYF/gWV+dSldBEenfuHp3Q1rA99oCM3xTBtWIPBVP+hOpQUl+Gn4POx2iZcchCBixenUoKfHznljk1CryrFs+k1DUCrG1f4eBjQwC8WmyF6hIshdmZDsMiB/3uQIBcrVbLAw73gHc4Dwz+DxEcmBOMLxbQ63R0dVLg4Nt2YkuHRwSIAvL7zAt85saTVIl85NTXxLUFm06PxPk/pLf5m4+G+rts+IKCgp1Zt0jFIdzKXDBj2mifUHYQoLiCNwjwvQ6HwXBGo+4R+wA1EpPExcDn5GF5/hA/IEBm477J3rPB3I4NAibfpzvnZlBU0LSc9hLT4PuAwcFI0q1H61eCuT3ZAwc/E/foDFGB6Dki2rzAhz5toiqh6XJ57Yjv2vYX+jWXNloM7XdhUtDxeWLbXVLfpayRDaZ5rCus+xwwqR5XDgL8rAKgP0r07puVeQBOWQgGPjsN00NeBZ4wvBxH0xsMjVxt81Cu9a89DCyPL2ZzTIN/GHwyTF+mGfAIzO3Ts3Hwg3BfWV4yWFyux5oZ+P5UJTSRLbeWjl5oayT0n5Pwm3p3wc7oG8hOIJfMZHqkoakYn/XopW60goWenYMAX/EEiJtcvSey9BFYPdrd3wF+phH4WPtyZVKGlnl7NtYdwhT4nSLwSX1XRN9aIPIjKt8CP9AswZ/04j/UbN4OVKYD7do3YvoaKTxWPzShv/Qfox3eTpz8gNRyxFMDrcKSrHysvRpASKorWxgq+Pdy6siA71UaB0ZcTENacMSNLgnbNPhoZX566RvgP4oeE+BDof9j78yDorjyOM5QDW+aa1giCEqyY1AmlETiEEQH0RAQBI1DPCDFqKC4KAE5VJBB48mliAeKgIIXOpQXHkhQEVFRFEUxKsmiK0utpWh0dQNGcmhlu5k7wNAD3UP35L1/LMDp6Zr6zK+/39/xXo5OEprorPvdz18IyLC2yqxp4tmQXn0yN6jeQHbok6OEbmSZ/5+PQTCd+rkS/Pk9gO/8h5rUCcKlzvwJRMB/EGDCNlriO+qB7ZDPJXuWEJA6YsxNPFVIHczG2nzjwQzwBYcsdKF10INlHIqtrbJp7SSR/aY6r4J8iht2XK9tJqR09tp3Ph7k31LwV2DRf4UUNCTIrmvwPcfMZLPHrpcb5Uj8v/kjRMAPT1XpXgg/Z9Ozuc3DvlQfy81tXZ4j26R+CDPA53yvk+KtW2z3bTpITM4wcr9l3vOiRb34aMp2UJzTIVa29ZRgEdvETlguXUIxxijXy1mKHPaXVHfZf0voGnwQjieCVsgOhrP9JyZ8tm0HRMAvHodn5eVPCgLgv8XsrOkjWcbGEsd9WpUzM8AHIbrQOui6Vj8dWFvF211bTWS/qc4NO5TaW/MfGgjdRoavI9toVRbeFN+xigOMsJ8Hd1AcZqo48s3qKlcd/BnyAtbA49gLpJUk4Flnb8M2zQsiBP6d52z2+0+l3QX8MUI1qaMybK4Ef9mgadhLR0vLsqe9BuDXRBgCvuCSDvI6ThradMi0tsqmtZQb2gv9ka2UNuwYJycRUjoeGHHcFcqEPz8Sg9TwKs5jbjPegNBRBs2VPGertSwYCbHI6zkCE/POv49ls/8+qW4ZguSGB2DYOdQvIwR+UDz2qPgXflIyYhv5gaEa+CZpPwIw4QRfvVdnjBBTN/YfWpkB/vIF2LuaHPcADAGf01ZIeV4HnbMlSpO1JR83TOgXPeNo+9mULqIw5Ju/10Sol4j/mTXbxuEjlW/Cg1S5wDHbJ8T7jBdIBo9KTzVRgp/xdADbJsG/rq55NIYnWP4F9jfr1KpPJaO9cNn0vBgQAt/Fh4tdJmDM4HDJ1vHWynSmC0a6jfi/dXd++8xFHfwh9dj1uc/9syK3H09wZNt81cxnCvhgcgrlWgdN1pDOINfaKt4S9S6p0VbohzTFUZnT2UDoJk5cwNgWq24OdcIfr2dJG+0HYXLC0XpqZd7MjjqTDHx+FhZtTRPGz1hViafRJ2SJjfC85HBxgil2sW2PnYmBz2+2s8G+MXb258unOeK99DLwnf0xRcNdMn7c+8ffqoMP6uIH4AegfyWeifd7fjJI2ZZMe/AFRZRP3gZqaNPBrC01+gItvE1kvym11ZBModLxJnQQitnPqzDIAlTbeD1HTcRw9MWnmyyDzsnnPkwd7kkHUfAP8ctUab3V5HwHebbp/1GMh5gsUQyiYEYgVQY+3rKgqNwOl3vavWEJ8qmTARMdbNhLfpdePqtcenmuD/7cGXKBy3Z8JAXfMyvVWjHykuAjGxbDJ7CEd2R3j4utVBqCjyxNpngrQbSwRKTB2lLVKoDOya/QUuhH5ARS9im8d4VQTof/hzWXO1H9uE+XR1zuvcoOpPnF8WPxw5iNDIUBU01MJj6VPRR+W4UrH6NPfKRG07Y5fiIXg9WRO7aySpafdPefZujgJQ3J/I+2WVvPKJb+ITLP0FAs7dXxCJtqaIq/LGHSoEou12677AbCZmK/tTGdub5D4z805A744LSsFScybds9I/yPDsIw+XMq3c76XmWdDPz6sdbWj/bRD3zgt5rifh03DW06VFhbBfmBwUe1E/qCEso2kHW9mUnoFvjNad+k7VHf/zX3wxVpab5Sqjy/vDppnFho/zDLI8zL64KMXWCVHi8eXm5fLz94mb/v8Rd54vI8L/86+QY4znc+9t2zXZrltAwPe+izXsapR5Wv72MZmX/Lqj8vFD/32hrkUYXdx2B5bWprqni48FzYPtxzZzRfSFuh2KIW8Ug/XlkuHhe/4FNFxz529flVP8oeYVkLfHzSXWgIPqviFqWpfHTh7e4Dr6B60TDq3hmdvT9Jq+mUlUeosre8YGJPHyTD3cr9z8PZnlZWHTuJSH8YWCcpDhoBLN337nXJVXxhlkuyJEEjVF7jMlgS+Y8HKtOuiJmZmTxZZMbn8z0R+e8tLZXSKuPnO5K6gXxgmWHlbqt4dcY+SVbxaemOI0iulZWVs8rePO5BkZJRb3NV9JrK1YGl6g90Ah+JOkmp1kFnH9C1tVWpGG+M0WY6xY+qE5+HGh9i2JZ7+rY6gw9EJcZUpvLf5G/WXdW28+PmYrU2Y+hnvalRXq6FNZA9uoHPqaVyHAXdkc3SYdW209u/iW2IIh5sX6RQ07DD2yKC7NENfDCFynPg3GLbNFlbypvgUadFlyIIN62xsilJMrnerIZKh37gC268oyzko+uu+/WPtVUR+tfbCAv9WkpOfOYFb4Lo0Q98JCqWMnvrtKhag7Ut0clZm04LG0uJCn3RdQo2kDVfnA0DPg3BB6KyxRRVb9G4pqj+s7aKu5h1eQPRMfTSw+SHfAvvCEgeHcFHlh6mKOSjyUc5Gqytrk5kQN2OZBMcQ99E/gay5rzrAkgeHcEHk1/+QEnIRwNzajRZW92dN4gmt35HaAwdId/eWvwUA5UOPcE3izlISXMyem2XqJ+trdJlb8lcS+QTOnWY7K8jr8kPgkdP8IHfakoymk4nNbTpUFy17Ww3Eg8QaRsouExyp5rru1IY8OkKPiuzhYKMJjqnvftsCtKWqMOA36G7Tpa96LlpTdQYR3LAT5kCuaMr+CCkkYL9Y500ten4NRSiBrpdqPe82h4rqKzbc8gN+LfOciB3tAVfUEFBEWtW/tf0sLZKz7H7VE96m9VOLvi8y7B4RWPwkbn5pGc00R3ZHJpYW6X4SulpvykRufnMocemw4BPY/Cp6FtwC9bQpqOjqm1nof/tTs3TKc/I3WWEFwsDPq3BR6LInjpHF2po09G5tVXcFTp7l8Yx9ExSz/4ceqsBBnxagw9EZ0kO+RrbdPrB2irQL2zXMIbO2k/q+CEvtgBCR2/wkU0kq/y4xih6WVvloyi/ots0a0QimSdEYArfDEJHb/CBoILcXP7BIkAza6sg/01wUUHXRSVBNqk7aPJyoiBzdAcf2dRE5gyixjadfrK2KkK/pOsx9NBgMuu2rjfPwoBPe/CBIJPEYyLQa7s0NIX1l7VVrGE7rnQ1hh7dSGoSn5c/FyJHf/DBmnbyQr7TkVO0tLZKoX+/s9D/fjepYyiuLWdgSocJ4LNivI1J46o9RJO1dTPo7zXszbfZSWp5zZAzjaRyb87bvQYSxwTwwdp5pI1irdsyvfu1azba7+BjQv/g7gMRcvRZc0NLgmeRelsWr1bCgM8M8DnRR8gK+YGF3t2vwkADOiw0btHunZm1SyOWRodOv375GrmPIXPjl5MhcMwAH4wsI20/QXRY9ws1oMdC0cCDwSlNW5ryY2fHOZF8V8ZHamAfPlPAR75O4Rn8pRaKom6Bbk7YPyRf2PXYTjhpyxjwgaj6J1cDuMhIZaY8gwGfOeCDkCvG5pBaEpzt6zMsiBuDwGe13TWG2Pa9Scd4I0xlMgp84Fd2bCgEt+/OthamMpkFPrI5H4b8Pjvbd0XQ2TIMfCAqfQXJ72vNtrEAOlumgQ9CdkGx00eh82sodLbMA5+TlAhDft9S+NmwZstA8IGo+pUFxLcPQif/BRQ6TAQfrJm3GIodKHT+euCb1STCMlbvhc4lKHQYCj4QVcDMTq9LVxc3Q6HDVPCRkP0ws9PLHp3DK6HQYSz4gBNxH4qdXgmdm0UjIWbMBR+ITt2F5PdC6Fi0R0Ghw2Twgd/RFgsUkqxlJtM4thZuKMJs8JGCjTCnqXUm81U17NFhOPiAFQ1zmtoK/FuH4OknjAcfiEr/B3OaWgn8xathyVYPwAdri17D1gVtWhWgwNcP8JGC1idQ5mvRqnBGBAnTB/ABqybfGJJPcFm07PSDgOkH+EAU+gsPGlxiAv9JK8zg6w34YOQNaHCJtugkwSlb/QEfrClrgQaXUOWqDbbo6BP4nBetx1xhBbdHY3sXGlv9Ah+wklbDCm6PxvZ1AzS2egY+EHyXAlM7GhdqcfPSXGhs9Q18PLUDexc0diocewn3ydRD8MHkCtiirCHeuz5pj4AJHX0EH0zZ8CtManabyLS4GA0TOvoJPhJSBGdwu03g58TAVmQ9BR8gmy61QPK77kz7JRQmMvUWfMB59v/2zt+lsSyO4hsI9yH4Xor3L1y4dXhsk3aLNCFYCJKEHdkQUkSNMoIJNpJosxjUCBYzES2MsBg0MGpgYhXHiD9QZggKYzFlRAirUTFOEdkbd9xxXWdHnajJu+c0iqLV5513vud+30scB1m3cp+aB/c6Bl8yjXi2Qf5/uc8tocDXNfiSITCUxKcE3RDLpcG9zsGXDEGQf9Pvj6b7wZTewZcsq9k8yL/u90fTYRxc6R98Tn4Jnn+d+wi4FwL8iueD/Ct1w++FAZ+TP1RGt3OV78G9MOBLluBGGS9Yu+wxN+3gXhzwJUPAgzPcnyhLbaLPEQp8yeCLnxLhuT+ft8LvxQJfaiyMHgr96oUGqlws4ENPhANfMrXtHAm8n9+gaXt+7OcICL5kdE6nCBV1xFWSoXXsIQsJvmS0v11RBH0Ol5SPg3juRFDwJcnWlxFyfUEmpzM+cC8u+JJr/X1SvHKHktxOG56vFRl8yRKYOxVtxKWkc8mJGlNs8CXDwWyOCRX0le6PftT3woMvGZ3vLogmULzf32hHnQPwKyOuPypM0JfZ0SLGWoD/ZcQNzolxitugKZ1Lboy1AP+LGtsiKRHiDklGTxDvAf61oG9fyOT1vqJPyeFMAPEe4P877qxOFPX9OmWNXGwOI+YA/Ju95njkXMdxRybl0i5iDsC/Je5Y/aEtvR5mUZZb9KLNAfi3yuKN5YgePzFIJvm9BSdiDsD/hkzh1k/b+jN9yg7jQezeA/z/m3EDozmdJX1u9wNvMdUC/O+YvlNnpk/Z53jQjKkW4H/X9L2LOaKXTl9mycwgzmoB/t2Svr90qouNTVkjuZgX6R7g37XeKUQu8vWfdyjbz56EYfcA/84yWtvnjogm1/dQm+zZPMCKAsC/lwzu1tA+q+N+hyi5xYANQy3Av/eQW0j3JOt0fUfW2OHGBztSDsB/SN6xBWLn3fW4qK+xcnRwGBsKAP+h/U5/+1xCqbcpl7LkQLrgQsoB+D8Q9cO7f34m9YQ+x/5ix4twD/B/FH1nX/aQKHWCPiX5lpgX68cAvwqyDLcO9daF63O374wFrJhpAX51plwLd30eeGitj7R5YA/wq+z6br8n0V3DewyyppZ7drzAHuBXO+vb2+OpPKvN01xK2H4mXcBIC/AfQY393tmeLVZ7cy5lSm92fhwFJsB/rLBvO1iaPCQ19aSKrJCm87n1MLAH+I+Jvst9Ek9tqzVi+zJlpJiJ+KyNgALgP3bYt/qmo71KDexuUkLy554+N8we4D+V7e+Odu4zRuVnrXHyvdF0wYqVHID/hLZvaxs8TuXJM/k+93pS3FtctcPsAf5T277FWljKvtxSn9r3ZaqppDg26h82o7QH+M/G/kaqS2FPdqgra4xoa6+WT5xmA8we4D8j+7aDwbmVouIg9LGdn1s9cyRffNz54DajxQH4z86+wezcjYUSZwp7xHNdyv877RjzpH1WFxIOwK8RmVz9IwvxgURZVZWqOz93euJQiqnJ5nW32YKAA/BrSkaDy1p4NxN90UWJWi3rlylhTGn6vXNj6sRps8DqAX5NisPfX9htLq0kOoiDKRo3f/mhxFPu86oj//rNwMR80O0C9FDtgn8Jv8ngsh3MT01kEh1N3LBVptwL/0qwUSt/9OvrltJyZNdpdjUi3kA1D/4V/RZrm7dvKvtq5eXaGXE4VEYUTeP3gMpd4IYqP+S/0xTCHH+oWldvauyTJ73uc5ot6CyhegL/K/4u1/DJUnMsXup588vab11NP3PGOeBcKhf/QvgFQeWms66O14mWzPHo7PRgMOzi0cYI5qH6BP8f/hsN/AbgHh/xetfnmxfjno33oVC0oslQaeh4Ynkq3brq9RWGw9ziDSYTiIf0AP7XK6CiylVQkeVSf3/PWTfC4CG9gg9BAB+CAD4EAXwI+ob+AlF2x+2J5fOJAAAAAElFTkSuQmCC;fillColor=#182E3E;strokeColor=#FFFFFF;fontColor=#FFFFFF;" parent="1" vertex="1">
          <mxGeometry x="1021" y="-122" width="180.84" height="101.84" as="geometry" />
        </mxCell>
        <mxCell id="zvgNvQxq_wlNGf-tIKfd-6" value="" style="shape=image;imageAspect=0;aspect=fixed;verticalLabelPosition=bottom;verticalAlign=top;image=data:image/png,iVBORw0KGgoAAAANSUhEUgAAAPoAAADJCAMAAAA93N8MAAABL1BMVEX///9ChfT7vAXqQzU0qFP7ugA+g/Q6gfT7uQAqpUwwp1BwofaLsviEyJVmu3szqUo7lqrpNiXqPzDpOirtQCf8wADpPC01f/Tr8v793Inj7P3sWU3pMyDb5/3qQTZPjvX86OacvfmtyPp4pvf6tAb+9dv93Yzv9f6gsi/xiYH97+74wb3+9/b61NHM3fyaZp1VkvX//PP/+ur+8Mf8zlX8wyX1rqnvd2/uZ1zrUEPubmT2tbD4xcHylI23z/v73dvsTTDvbSf2nBT4qA/956z8yEH92Hn+7cDf8eT80mTP3/zzoZvzm5bZzN2cZZntYFTzhHmTYaHtWizygR/1kRj6vVf+5KKTt/jzhx/uYBv3pEBkmfZLsmqb0qnn9euHvMjd5sFywIW338GOzJ7H5s9le8spAAAML0lEQVR4nOWdeVvbSBLGLRtJ5koiaZEB21jGMYwvxmAw+CQJ9zGBnWRhdh2YTTbf/zNsy7LxJcuqPsXM+8dkZpIH+5fqqq7uruoOhfgqb5UK1Zvc4VE8Ho8g1eLxo8PcbbVQsvJFzt+Fm4qlRqsejyQSmmGYuh55ka6bhqElEmat3mqU/mL8RavQujM0zRgmnpSu238m3ipYfxF+q5CLJxKGJ/TIXwAaAfFcwRL9vUllVY8imn/sIfxIvWqJ/vb4Or45Smhg7Bd8LVFvWKIZcJRv1HV87j595L752vy+1IpoJhm3I1OL31iiafyrWDjUDBrcXSHT50qikfyp2LgzqBh8IMM8fAXw+WqN1MPdZGqBh2/E4TOZT3g90PDNI1bgDnzOEk04RceHLMFtGbVqEKe6/G2EcnBzkW4cBW/UF+L0pjMvmWYrL5p1RPkc67E+kBEPkuGbNT4md6Qbt0Hx+GKLxUzuJe3oWDR0V9YdT5M7MvWCaGykAj8vH1biVjR4qJUQAY6k1cU6fL6uCSK38xtLILnFaTJ3lxkRN8uVOORvXtITvwkib4oJcAP947O6KYS84b2pzoNcUoSwV0W6eZf8V0WSlFj6b0j+WbKlqLzZxZP/KklC2BuBIefNXhAe4QbkiF3hF+uakSCR2/BtTuTHtYCRI+1wIbfuxOZwbuRKKskD/VBwiHMhR+ydVfbkLXFrtenkkqRmmJNXg0kuSczTumPRfv55Cjma4tiGuuKd2ODezdunap0lek5siJs62h13X2RIXhC1EeeHnKm752nZ3K4RtGWazr+YvtzIe7Tb7q5es0K/pxDjdFMzIvH722qhWSpZ1nGp1Gzc5I5q5swSs+kRbsBeZkROPtxNI3KXaxy77SIfN1tHES/zz7Q5wyFfJFy06FrksOqK3ZdVyNWm1V35sLltdoVJQksW3U3dV/1fvnkYcRv5syLcC3uHAXmJII3TjVrL9565dROfOL70NdqdIc9g/VonqPiswar+8tUxeL8272qbNnkB2+hG7QZcB1GsDp/r+Lc5kvpImbyIuz1hmnhlT/mW3g94IJujSEc5n73BjHFaHftc7LhuYJBTX75aeEbXIzcEJ8HFG3s6hZIjdqoTHJ7RiQt+SncanFxSaJo9j5XNaDniMq/8/T/B5Iid4sodx+i6dkPjo9MxDHR6Zs9jeLoeoVTo08YwOz1vxzhg0+lVPOwAJvU++hKlz/axK7WxMUZeo1jYhsFOa6+qOc3oG44i+gckXdf7/41sbtH5aEdwdlonkIcu68gu4u8fv3z9dHLy/v17WY6if56cfPr65ePv6LcoFzO2Y0B4pUwlkz8eH+5d6i+f3odXugoP5PyPlZN/nWZ3aXz0i9rQOK9SWcC1jDFuG3sUeULR6Mr+Q5bGp/f0CGRXaOzO5uP6CPcfJ2FvbEfIBcIHW/ToF1UYOo1ANwhyGxsfvpzMMPcofjR6Rsv22ymYu9MIdP19KWTwr1EAd59+5apC/iWQdmBDnsJOVb7mgEc+noC5HXhZ3j+lEfRgKa0iEWd03d0ZfPCe6c9OydG3y6AhTz7i70001InAHdOfXRCzwzIb4hGfryEf/0QI7lie3OeXIFGeeKOqaX74I0oO3oVfWSN0+XWI1aUYYUlZ698ndMDDNEZ9GmR2slX77n8ombwPf05k+NUUBF0iMXv2jCK3A39GlOJsQiY4Rc1gu/vDikwbHXn8AwH6KoAcSU1h7tKdy/TJu4OegB0U5HHLZ/fOogzAbUX397DRkxIslVdiGfDKPXvAwuSO5AN8hweu4OziIiB7loGbD7GHsdObNhRdUsugGtIKEzenwQ4MdF12yNqdNTkJewa+PwvYt6hEWZMTsIO36SDsbP18wI4X69aBMd5hT/nydz7kdnKDx97BQPe3O73LcFYbYz/Amt8fwTHeljp7+b67z4vcTuhx0OHTm8M+8xzunFUO56YoTk4LTej6mlVJecrP5l12jDC/DVm5DmlGrwCvENcnX4OTo1wWz+oozHtMcbtnfMnx1nAYSY0jr9qqtVdgc+A21Sj71CVshSc4NnloExtdmnYuwXe4Y5Pjzm62ph3AbnEl38IlDyUxsvi+3Ic81+iOb3MydMk1mb96JeShJG6E75rdpXD64rWQ463d+nI5geWZu5ORk6G7TO4X/HJ3gghHAV2KjTfD8ZvYCG1OjD4+wfHzdGJyUvTxClpunk5OTo4+4u0VbHJZlqOyI/tXDuShdVVVFaIgP7yCO8dDR6wH+2sXlWx2L5utnJ6frcyAlymQh7Y3N9OZTkpRsVdwQ5sWu2EcdMS9Vhk9L8+e7oc9drKpkPf/Aq7THRUzm08Nfswpxswmy/sXbnUC2a2pCTFN8q6Sjyks+NhgvwY+s3kVh+yduw8i6uRIq48SBvyg1iQLBUdoD16VIZV9l2FEI8K5aD2DY/j+ImYLOt5nl4WsTRieETlSG1g+Kw01/ULHu3w1++zgdIydHTly+TLU8P0Rvwcl90VRGTnFIc3bvbUKLThQev3OwPjutxamMhTpWdrc1jaUvRfjYfmMfOX3+1RexjxrcmR34CFkb8cCtDEln/kv+nvo/WC2o93ROizWOXeZZEHkoJNhZ8+Lvc1t7cDyWsWe3kCuLoMK/roH1jxsbgt2+Nx1doirQ4+FT2VONg9BWwW6SxjIrC4DT0Z393nZPAQ8mrDv6toFRDl5H/p1LnjZ3BYoypdhCY1MoYWFoUBmV7ZDFf9RTj6g265JXZCig1gSEuBZrDqpChLkUYh/8I+OU/7BVdeQq3s2QeUEotFmCVJmg2Y3/6eM8PjOXYBaE2UJMK3L/KZoXAEKLpTFkP/iyGiwpzZbkJ7fDgQ96FEuFEoCQnw5dOCXPByleQ0BG62C0H2Th+Xgo28DZrcUAD2M36jESxB0CYD+CgY8DP3v6utKGRLhybvvWQsY4f2jk3Sj8hFsXgdkcyTNqHwEy+YAOfyBaLKZguTwGUhlrBz02Q24coOs14OexAPX65BdGqwOJY4C7dK0Q1nICUSwZ3ZQQ1AsCduRDXaMh23Er4K6GeWVQAc60PGLXUUFOn0JstnBpy+hNVBlQXC3K4BnbvYBO6gcHHK8zlkYJ62g8/XgHkPswMpm1W6dLKxrO6DnbklgBZlTKwrraZRXgrh2XQXWj/VauoG9H/JK8ELdagdaQeXUDO6ByO0q0aDZPQklV5Te/Q3QFgg5HKxNix1wpejL+2eAxVuPXb4KTja/nYY3hLzcQJiFX6cnHwTF8DsdeDfEUAsIRtOPLNO4IJVY1xkFpx5+0O+F1d8X/eXb06VAahTX24s44CMPQUGqqF7M/svCwvzcm6efz0Kwt5Obiynsxp+h+3lgSxiHfM7Wwvz8wtybN9+XsfTnEpYyi4spScXt+RnrZga3gPTIHXzEj6W372IqllC6TtLnNvreHbB5fZgcX2/fEdw6ga+xXmZYeyMdclHo463MkPkNRbhXjD5xVQfA7JRsLgp98jFX395Oy+aC0F2uJPJ7Hw81m4tBd30twN91axTJhaC7Xju35yelo0kuBN39ksmH2ehUyUWgT7mAy8cdVFTJBaAr025RnnUVE12bC7H61BdRvMsMaJPzR59+35z3lUTUybmje77g6nE1On1y3uied0t6XM1DL4cThq7OeB1hirszsDlvdA9H7+nKLaljQs4X3ccrnm6zOxtyruiqn2f99iZCHSNynuhKx9eLEOOZDStyjug+74e3zx9lHuT80FW/5MO3TLAk54YOIB8e8wzJeaGrKdDLL/20jiU5J3TVX4QbqPfOEUtyPugx+LNuu1cyW5vzQXe7Mne2tljk7XzRVQXzbeb/fpt/3ehqB/ux1ufv8yztzhhdUZdIniJ/mmNoeKboipoifIj8kqHhWaIryhLoLTNX/fjGCp4heqyM+WrjqJ5ZjXpm6Gpqk8TLh3W5vMACnhG6Kj2Sj/Vh+Hn6w54JuiotET7GPAn/vzna8PTR1VgqTdPifT2jgEeVnjK6osYW27R8fEK26enR00RXVLWcpj3SR/X8c/nb23k6QY8auhqLdR4n6kRY6PLHd7tUboHU/OToioJGuZpaarO19zj+8pu5l+K/BSy9fRdTcKUiS8diUjmT3uGJ/aLny58/np6Wl5ff4OnPRTxllpYe05s716tEQe3/TQP0DclRUEAAAAAASUVORK5CYII=;labelBackgroundColor=none;fillColor=#182E3E;strokeColor=#FFFFFF;fontColor=#FFFFFF;" parent="1" vertex="1">
          <mxGeometry x="103.94" y="-80" width="47" height="37.79" as="geometry" />
        </mxCell>
        <mxCell id="zvgNvQxq_wlNGf-tIKfd-7" value="&lt;font style=&quot;font-size: 20px;&quot;&gt;GCP Instance&lt;/font&gt;" style="text;html=1;align=center;verticalAlign=middle;resizable=0;points=[];autosize=1;strokeColor=none;fillColor=none;rotation=0;labelBackgroundColor=none;fontColor=#FFFFFF;" parent="1" vertex="1">
          <mxGeometry x="180.82999999999998" y="-78.61" width="142" height="36" as="geometry" />
        </mxCell>
        <mxCell id="zvgNvQxq_wlNGf-tIKfd-49" style="edgeStyle=orthogonalEdgeStyle;rounded=0;orthogonalLoop=1;jettySize=auto;html=1;exitX=1;exitY=0.5;exitDx=0;exitDy=0;entryX=0;entryY=0.5;entryDx=0;entryDy=0;labelBackgroundColor=none;strokeColor=#2D7600;fontColor=default;strokeWidth=5;fillColor=#60a917;" parent="1" source="zvgNvQxq_wlNGf-tIKfd-9" target="zvgNvQxq_wlNGf-tIKfd-38" edge="1">
          <mxGeometry relative="1" as="geometry" />
        </mxCell>
        <mxCell id="zvgNvQxq_wlNGf-tIKfd-9" value="" style="rounded=1;whiteSpace=wrap;html=1;labelBackgroundColor=none;fillColor=#182E3E;strokeColor=#FFFFFF;fontColor=#FFFFFF;" parent="1" vertex="1">
          <mxGeometry x="133" y="67" width="130" height="27" as="geometry" />
        </mxCell>
        <mxCell id="zvgNvQxq_wlNGf-tIKfd-8" value="&lt;font style=&quot;font-size: 16px;&quot;&gt;Stage Pipeline&lt;br&gt;&lt;/font&gt;" style="text;html=1;align=center;verticalAlign=middle;resizable=0;points=[];autosize=1;strokeColor=none;fillColor=none;rotation=0;labelBackgroundColor=none;fontColor=#FFFFFF;" parent="1" vertex="1">
          <mxGeometry x="137.5" y="65.5" width="121" height="31" as="geometry" />
        </mxCell>
        <mxCell id="zvgNvQxq_wlNGf-tIKfd-14" value="" style="shape=image;verticalLabelPosition=bottom;labelBackgroundColor=none;verticalAlign=top;aspect=fixed;imageAspect=0;image=data:image/png,iVBORw0KGgoAAAANSUhEUgAAAgAAAAG2CAYAAAAJAz4PAAAABGdBTUEAALGPC/xhBQAAACBjSFJNAAB6JgAAgIQAAPoAAACA6AAAdTAAAOpgAAA6mAAAF3CculE8AAAAB3RJTUUH5gwGBQ84RQOGWAAAAAZiS0dEAAAAAAAA+UO7fwAAWklJREFUeNrsnXmYHVW19juddBJIIITMoZPUqbVkvCLoBUEmL4p8V0FRFBQRwRFFxQFFcEBRVBBpSM5alYYggoKC84AoKnhxABlEFFQEERAEyX53dWee+/ujDwrYSbr7DF3n9Pt7nvcP8xhSZ1fttd49rrY2Qghpa2vTLM4Xx3niuE8dG9XRVwCtEw/3iodPqmEu3xIhhBBSQzqzMFYsfEgdywqS+J+p5eo4KbF8LN8WIYQQUiMSxw7q6C5o8u9TR584zk0dO/BtEUIIITUiLcfZ6vhykQ2AOlwNM/m2CCGEkBpRKudzxPGVQhsAw2It0wAQQgghNACEEEIIoQEghBBCCA0AIYQQQmgACCGEEEIDQAghhNAA0AAQQgghNAA0AIQQQggNAA0AIYQQQgNAA0AIIYTQANAAEEIIITQANACEEEIIDQANACGEEEIDQANACCGE0ADQABBCCCE0ADQAhBBCCA0ADQAhhBBCA0ADQAghhNAAEEIIIYQGgBBCCCE0AIQQQgihASCEEEIIDQAhhBBCaAAIIYQQGgAaAEIIIYQGgAaAEEIIoQGgASCEEEJoAGgACCGEEBoAGgBCCCGkaUgtzlTH5UU2AOIolwzT+bYIIYSQGiHWu606vqCO9QU1AOvVcKaU4yS+LUIIIaSWJsDDy9TDHQU0AevU8WuxeHDnBX1j+KYIIYSQGqJlbKsWXiSOM9RxoXpcWAB1icfTxeNB6eKebfiWCCGEkDox33smquc7apZPK4CmpuVlE/hWCCGEEEIIIYQQQgghhBBCCCGEEEIIIYQQQgghhBBCCCGkEIjhRephiTh+qo5fFEFi4Tti+EiaxalbevbOJb3j0izuKxYuVMf1xXl+XCsePiZZT2lLz6/dPduL44RKTYCbCvL8N4qHK8TDMVrGduwhhBDSgugizFbH0srNb5sKdBPdBnWsFMMnt2JeVBw/VMeagj3/RnWsUAtLOsu92w5oXrLQJhbeoo6HC3YT4KbK8zysjqMSy9lRCCGk1UizeEIlWRW1Gt29m3v2WVf0tanjEHWsKnBBndvEwz4DPf98D9uJwwteDOjTJYvbs6cQQkirzQBYOK3QBsAROy/oax/o2edesrZdsviyQpfTddyjjsMGNF8WZ6njywV/fhcPM9hTCCGkxRDH6U1gAAa8ljbpytvF8PKCJ9A/iseXDPT8pXI+p7L231fgGZjFWsZM9hRCCKEBoAGgASCEEEIDQANAA0AIIYQGgAaABoAQQggNAA0ADQAhhBAaABoAGgDyFNTDrpKFaWwJQggNAA0ADcAoIXXsrB5uUw9damF/9XwSW4UQQgNAA0AD0MKUFuc7iOPySt9bp4471XGmGHYvlfNxbCFCCA0ADQANQCv2O8M71IFntHePOm4UiydLecs1MAghhAaABoAGoMlQDy9Qx61b6HePi4cflMr5rmwtQggNAA0ADUArJP8yZqnjS4Mo/rRBHX9Rx4mlS1ZPUMcYth4hhAaABoAGoBmTv2GCeHi3OnqH8A5WiYevqmNvNYxnKxJCaABoAGgAmoh0UWxXw8HquGuY7+JmNbxSsnxSclkfG5QQQgNAA0AD0BT9zMI0cVxS5fu4TxynivduxxYlhNAA0ADQABR99O+xXRzHqiOvwTsJ4jintDhniWZCCA0ADQANQJGZv2TV9uq4o4bvZZkaXAxz2bqEEBoAGgAagIKiGd5a2dVfy3ezQi0s0SzvZAsTQmgAaABoAApGujBOUw9/qdP7WSsWrkjLIS2Vcx4TJITQANAA0AAUgc4lve3q+LA6VtbxHW0Qx2WpRS15bGerE0JoAGgAaABGmFKWp2rhNnVsqvN7Wi+OSyXDPLY6IYQGgAaABmDk+9a71REa9K7WieOi+d4zgS1PCKEBoAGgARgh0gxzxfHtOmz+25JWiuM9bH1CCA0ADQANwEj1KwuvU8fDI/DO/qaOY/gGCCE0ADQANAANJimHaeLIRqhfbVTHrWrYt+SRL4MQQgNAA0AD0Lg+FQ5Wx+9H+N39MPUoaXfk8UBCCA0ADQANQL1JM4wXxzvVsW6E390qcZyrjh35VgghNAA0ADQA9R/9zxfH1wvy/h4Ux2tKi1lGmBBCA0ADQANQN6ZfunRM6uEAdTxeoHf4M7FcOi9gCWFCCA0ADQANQF0oZZgoGT5QsHe4Vgxni0XeD0AI+Q8D8KGiG4AFlwxsANIstqvjyIIbgHvEBjYAqcXZ6vhykZ9fHFlqNACDQQ3T1PCzIvYhKce9+IYIIU9PQo43FNkAiOO+5LKBpy/T7tgmFg4RC6sLnERvSz3uM6D5st7t1eENuCp2uNqkhk9rGduzpwymL/Xs1uCLf4ag8MPUQgffEiHk36OWMuap44GCmoDl4uHsLc5gGJ4lhmvVsbaAz79SHZeki3t32PwMTDhRHQ8VsP03quMBMbyi84I+FpkZzGyahfcW2IiuSi0cx7dECHlmEn2JWviqOn6ijhsKomvF8KnE86lbNDALl48Tw/7i6FbHjwv0/Neph/MkC7IVAzZFLZysjm+o42cFefafquMa8XhCurhnO/aQQfYjx/cKbAA2ieOXqWEO3xQh5Gkklo9PPZ+nWZ6OtFKPpSTrnbage+XYwT5/ZxYmJB7nSpaXivAbSovz2UNp//nes716nhTh2TXLF6TlZUz8Q2D6pUs71PGPgu9HieLhfXxbhBBCSM0MdNhFHesLbgA2quN69S3PShFCCCFkkKiH44q7AfBpCuLhFL4xQgghpAaIhwsKfpz23yc7HN9Rh/KtEUIIIdWM/hcub1fHrU2Q/J/U4+I4Zr73sFAQIYQQMlzScs8sdfy1iQxAnzg+n3jcgW+PkBpRyvLt1fM5muVzR1qyOM5MusOgr/9MLO9IPZ9ZhGdPPc5Jst4pC7pXDvr8eWcWxicep0tWjPYvLc6HVIVtvvdMUs9nF+HZNctnpeVl2w722SVbPkay3smSxcI8f6m8fNvOC/oaMsIVw/PV8UgzGQB1/EYcezJqE1LtFKDns8VxijoWq+NKdVxVAF2uji+I4cjUMWkrAewIdXyh8neK8OxXqqNbHKen1jtny8knjhcLB4jjHHFcVqD2XyIePqQWd9/i83ucIR5OEMdC7a8LUIRn/7I6LlTHa7W85XKynVmYLB7eUbnRsEDPH8viOCH1sE3dDYDjGHU80WQGYJU4XpuUwzhGcEKqMgA4rWAVwP517Ecs/DF17N25pHfA0ZCWezrV8eeCBqnlavjYVsyLiOF7Bb0JcIU6yroYU7aQPI4v6E2MG9Vxv1g8cm735m8CTD28tsDn3x9JDYfWfwYgfFAdvU1mAPrEgqcWuAxAyHCZ271sG3VcW+j73DO8RTMM6PTVcEzBdy/ftRXzdbA6VhX4+W9JfeBCLGK9k9RxUYHbf6MaztJynLzZ9jdcXuTz76mHzzZgAHB+wb/Bze0DuFsc8xjFCRmu+8/iHHXcVPDOfrY6JmxmBHpawQ0ANlfLPF0c29VxRBNUAzxswOe3OEsdVxQ8SXjJMGMLMzA3FNj89omHqxuwBHBFE1wCtDmDd4guAgM5IcOh5HEndfyi4EH8HNm8ATi96OWAOy8YuBxw0pW3i+HlBQ+yfxQfuBxwqZzPkf518+I+v2GxljdfDlgcPy+yAVAL36xn/+9c0tveX/eh6ZJ/pX3i+WqRxZ4IoQGgAaABoAEYkgG4OJ9cKZ7UlAZAHH8Qx1hGckJoAGgAaABoAIbAPI87quPGpp0BcKzXxZjOSE4IDQANAA0ADcAQWLAYM9Xxf01sAPrEw4sYyQmhAaABoAGgARhK/8/i3KL3/0GclDidkZwQGgAaABoAGoAh9f/eWU1wCmhr7/jrA+5vWNI7Zv7FvTum5Z6d1eP+ksUjxfBBcVygji+qhys3J/FwmRguVMcn1cN7UotHaxl7lS5ZMYVZg9AA0ADQANAANL0BSLvzqU2+B6BPPDwoHp+vhhPE8Sl1fEMMd6ljXSU2bKy842dqSxUHB9JGdaxXC4+r45fquCx1nCoZnieOOamHHRKPEzZ3aRkhNAA0ADQANADFmQG4ZHlTnwIoUIz6sziuEMe7xPFCMeyaWtgxtUAzQGgAaABoAGgAijgDEDvU8WMm8dr2+crGyi+Ih6PEwvzOC/p4VwGhAaABoAGgASiOAWhra2tTx7cK3oeaWY+q42rxcJoYDhLLt2fWITQANAA0ADQAhTAAYqG7oMWoWkWb1LFMHXeq4UtiODz1MJ7Zh9AA0ADQANAAjPAMQPh0pfIjk3X9tU4dD4qhSxfyAiNCA0ADQANAAzCSMwAe3qWOnMm5oVqrjofUwrvFMTH1wD0ChAaABoAGgAag4TMAh6vjMSblEdFKcXxTHAepxYnMSIQGgAaABoAGoGEGILE8VcffmIxHVHeq4TixMIlZidAA0ADQANAANMQAdC7pnaCOO5mER1x/FcP7ShZ5UoDQANAA0ADQANTfALS1tbWJ4SuFbofRo6VqOIeZidAA0ADQANAANMQAqMV3qGMDE3Ah4t33mJkIDQANAA0ADUBjDEAZ/6WO9UzARVB8CzMToQGgAaABoAFolAEYo4aHmXxH/H1HtcD7AQgNAA0ADQANQGMMQP8yQOhmEh7xWPdFMfAkAKEBoAGgAaABaJwBEI9HMAmPqNaox6M1y8cyMxEaABoAGgAagMYZAMs71fEQE/GI6VY1PItZidAA0ADQANAANHgGANuL42Im4hHRBnF8pJRhMrMSoQGgAaABoAFoqAFIPbar4aXqWMWE3HDdJYaD5nYvG8OsRGgAaABoAGgAGmoA2tra2tRDqo7rmJAbWyGwP8b1cvMfoQGgAaABoAEYGQOQdsfx6nhn/4Y0JucGaJM6fiUe92U2IjQANAA0ADQAI2YA+tskPLfoMaGFlKvjTF2IDmYjQgNAA0ADQAMwogZAF2MbdZypjl4m6Ppu/FPHz9SRMhOREUEyzGkCA/CpdDMGQC18sAkMwIDneucuXN0uVviz1/eo47ABp4stzlbHlwv+/C4eZmw22RluKLYBwDUjEhcce6vj10zS9Y0N4vFYZiEyYixYsmKyOn5abAMQTxWLHZsJVCcV2gAY/rq5tp9hfW3i8X/UsbrA7X+7eNhvwG/Hw/biWFxw8/jZkscpm010Fr5e5CI44iiPRFzQxRgvHs5QR2SirltcO1/LPdz4R0aOWVf0jRHDJ9WxoqAd5XF17COWjxl4BqN3vhR4qlI8nLfFQOthF+2fhi7i868XD1dJhgETaGcW2sXCKeoIBX3+f6rjmMTy9s1uenOcWNRjb2JhbWoDz740grSM2WL4hbJMcD3e7e/E447MQGTk9wFcsmZi6jhVDLep45GC6H6x8P3U4mElW9ax+SWM5WNKi8N+4rhWHPcX5fnFwm/F8XFxbLsVAzBGDM8RC19Ux73FeX7crY7zdXE+O+2Om33+ORcv3SY1nCSOG9TxcEGe/0HxcL1k4bXzL+6ZuMUk57E9zeKb1HBLgb79v6mHG1PHUYnl40cqLiRdeVua4fACG7wmLfiDB0oW95pX7mXyIYQQUjxSxxTx8Gw1/JGJu2Z6Qi0eq+Ue7vonhBBSHBZ0r2xPs3y2WnixOD4l/ZtANzJx10Q94vhEyql/QgghRUKyfGd1vEUdl6vjPnWsZ9KumVaoh0vVQ4lfGiGEkBFlhvWNFc9FDK8Vw4Xav4/jcSbrmmutOr4jHnfjV0cIIWRkRvmGMWJIxXGyOr6mjrsqGw959W99tFEs/F/qcY+53X0s9EMIIaT26EKMEY/tqcWx4nGcehivZWyXGvYUD28WD5n2n/R5Qh3LOcVf/3v+xfD7pBx0pzKr/JEqmO897SWPEzSL22qWT6IoavRJsp5J4piqhhlqmCGGOWJI1LGLGvZTx2vE4vvEcZF6uIFH+EZu2l8MN4r37MTsRYY5XZdPEcNuYuFF6jha+qt0na4ez6AoalTqTHW4Oq5Uw1fFcJ0Y7lHHMibdwqhXHdeUMsj0S5dy5E+GPJU3Xhz7qOPsyjW9YKeiKIoqvB4Vx/niWMBMRoZMmsUZ4ni79BfoWc0ORVEU1Qyb/fBncbxTPMxkJiNDYob1jUm8pySObnX8g/dvUxRFNc1mv2vTMl5YKucs7kOGsd7v2E4cXy9qYRKKoijqP+71XyUePieGuUnX5otOEbKlHf5jxfEJXrlJURRV/BG/Olaq48bUwv+ULExgFiPDX/f3+Hyu91MURRVea9TxB7VwumaYwexFqpz679lOHd/k6J+iKKq4m/zUcbd4MLF40NzuvrHMXqQGBiAeUqmjzk5GURRVvMR/rzhMHS+RbPk2zFqkZqjjo7zEg6IoqlBarY5bxHGWWDyslPXuuKB7JRMWqbkB+Bqn/ymKokZe4mG1GL4tjteLY9fU43YzjEV8SB0oXbJisjquY8ejKIoaken9DepYLoafa38NhVQMO6QWO5ihSH13/5fjXHXcyI5IURRV96N7a7W/ONJD6viDOr6ohjeJYT6zEWm8Ach6OtXxc3ZOiqKommpF5UbVP6rjZnVcJ46LU8NJ4thTHZzWJyNLksU56riBnZWiKGqzelgd31PHt7agq9VxhTiWaP+O/Y+rhxPVw/+kHnXBoh5e0UsKtgfA8hnaX+2PnZyiKGpgna1ZXtIsn7cZdZayMHNBFqbM9aXbTL90Ka/kJc2wB6BnR3Vczw5OURQ1oB5Vx/N1MafsSYsxf1GYoo4fs5NTFEUNqMvFwixmC9JyyMJlPAZIURQ1sJar4ZVigaN/0oJ7ALp7J6rjWnZ0iqKoZ17Kgx+mjl2ZKUhLMre7b1xldys7PEVR1L+1Sh0f1u6eicwUpGVRx3fY2SmKop6m36UWXsgMQVrbAFj4euWWKnZ6iqIox3rxcGnJMIUZgrS4AcCX1LGenZ6iKAp96vi7WDiO2YG0PGIoq2MNOz1FURT61HHTgu58R2YH0voGwPGZyr3V7PgURY129ajj7cwMZLQYgDPV0cuOT1EUhbsWWJjJzEBGxx4AD+9RR2THpyiKCmcxK5BRNAMQTlLHUnZ8iqJGuXpTCwmzAhlNmwBfo47H2fkpihrVMlzJjEBG2x6A/9X+ilcMABRFjdJrf8O61HEIMwIZZXsA8n3U8SCDAEVRo9YAGL4mhmnMCGSUzQD0LFDHXxgEKIoapVomnh+xoHvlWGYEMqpIbMUkddzDIEBR1CjV18Qwj9mAjNJlANzMegAURY1CLRXHCaVyPo6ZgIxWA/BNdWxkMKAoapTpe2JQZgEymg3AInVsYDCgKGoUCeI4Vcvg6J+M4o2AhjPVsY4BgaKoUaSbUo+7MgOQUW4A4gnqWMuAQFHUKFEujg8x+pNRT+rxUHWsZlCgKGoUaJM6bkk9lBj9CQ1A1jNfHSsZGCiKGgVarY7TGPkJaWtr04XoUMc/GRgoihoFukssn83IT8iTJsDwGwYGiqJa/95/vJURn5CnbgR0fIXBgaKo1r7zP/wh9TCdEZ+QpxmA+FEGCIqiWlgbxMMbS1ngnf+EPG0JwOOrGSAoimph3aCG+Yz2hDyDdHHYkwGCoqgWVa843lTKwgRGe0L+YwYAM9TRw0BBUVQL6jvqvPOfkM0YgLCDOm5hoKAoqsX0qBpOEOvtYKQnZKBNgIZJ6ljCYEFRVAtpo3i4Sgw890/IZg1Alo8Xj+9jwKAoqoX0gHp41XzvGcMoT8hmSLryMWI4VFkWmKKo1tAatbBYPTDAEzKIZYA9xfB3Bg6KolpA96rHvRnZCRmcAUjFcAMDB0VRzb72r45PMaoTMlgD4JgpjosZPCiKanL9ST2fw6hOyCApec824vGDDB4URTW1LJzEiE7IUDYC2oox6jhaHb0MIhRFNam+q4aZjOiEDBE17KeOOxhEKIpqvpE/HlPDgeKBx/4IGbIByPJ56riSwYSiqCbTavV4pmb5dozkhAyDtDtOUMfZvA+Aoqgm0iY1/EQMz2YUJ6SqZYBwojr+yaBCUVSz3PcvhjcntoL3/RNSDeI4UB23M6hQFNUEWiuOL4uFWYzehFRJ4nGOOr7LwEJRVBPoPvF4ECM3ITVgvve0q+MidaxlcKEoqsBaJR7PEu/h1D8hNdsH4OG16qwLQFFUcSWOn5UuXT+BEZuQGpKWY8r7ACiKKrAeF8OejNaE1GUWAFerYz0DDUVRRZv6V8dpanEsIzUh9VkGeDuvBaYoqoC6RrJ8bnJZHwM1IfWgVA67qOMxBhuKogqku8VxqHgPR/+E1It5i5aOEw83MuBQFFUQLVcPp4mFbRihCan3MoCB5YEpiiqCNqrjavG8k5GZkAaQWL6zOtYw+FAUNcLJ/3YxXvhDSMMQQ7sYbmIAoihqRI/8eTiZEZmQhi4BxDFq8R0MQBRFjZDWq+GznVnYlhGZkMbOALSpYXd1PMpARFHUCOhHmuUs9EPICJmAaWr4MgMRRVEN1oPi2IdRmJARomRxnDjewGBEUVTDZFgpHt+QZiz0Q8iIMd972sSwpzpuZWCiKKoBWqMeP65Zvn3pkhUMwoSM6DJAFqaq4/Pq2MDgRFFUHbVWHVeKh5SRl5DC7AUIr1DHwwxQFEXVbce/4xfi8cC2Pt7zT0iBDEBcoI5vMkhRFFUHbVLHn9Vw5Kwr+njPPyFFIrEV49TwPnVEBiuKomqs3tTim3QhxjPaElLMWYC91PEbBiuKomqreHqpnE9ilCWksAYgHysWjPUBKIqq1T3/4vGr6pHJn5Dim4BwsDoeYOCiKKpKbRAL1ydZ3KntGm76I6Tw6EJMEA/frVToYhCjKGp4Ff4Mt6phX12IMYyshDTLLIDj1epYxSBGUdQwd/z/Xi0elZaXcdMfIU01C7AYU9RxCwMZRVHDOe4njtepgxX+CGnSWYDXMZhRFDXEO/4fFYvHl8o5kz8hTTsLkGEaZwEoihqsxLFSPLw+LceJjKCENPcywFjN8Gp1rGNwoyhqK8l/uRiOFw/tjJ6EtIIJMMxTxw8Y4CiK2oL+KYZ3ifGWP0JaaRagQx1vUEfOIEdR1AD6hxhOEwvbM2IS0momwKHq+A4DHUVRz9Dj4jhLDDMZKQlp3VmAt6njnwx4FEVVFMVxrjjmMEoS0sKkWU+nOL7B2wEpilLHKvGwMM0wi9GRkBZnQffKMeLx5eq4n8GPokb3/f7q4fzSJdiurY/3+xMyepYDLHyeVwRT1Kg96vdE6vGDqUcGQ0JGG5LFBeq4ncGQokbd9b5/UceJ6uAlP4SMWhPg8Xh1rGdQpKhRUtLXcac4jlHn9b6EjPb9ANuKhx8yMFJUy2u9eviVGF6aWL4Nox8hpE0dB6pjKQMkRbXwyN/CjZJh/1I572DUI4T0LwMYthXHRxgkKaplN/z9NM1y6VzSy7v9CSH/puSxTS0m6vga7wagqJbSajVcVSrnOyaX8ZgfIWRzMwGOQ9RxV2WXMIMnRTW3lqrjPM0wjdGNELJF0u44US28h9cEU1RTa6MY/iqGD6YWmfwJIYOdBQhz1XGZOlYzkFJU02mdOH6VGl6XWmRFP0LIEGcCDM9TC7/jUgBFNdFGP8NGdVyeenj+3O5l3OlPCBk6871nrHg8Rh0rGFgpqhmSf1gmhjM1w068058QUt1SQNYzXgwf5SwARRX+Wt/7U49HlzxOYuQihNTGBDgmiKNbHWsZaCmqcIl/mRiuFsMebZ/gqJ8QUnsTsJM4vqeOdQy6FFWY5P+gOj6ZWpzJKEUIqQvzvaddLO6jhp/zkiCKKkTy/7UY3lC6ZAXv8yeE1Je0vKxDLb6sckkQgzBFjYx6xHGZGF7Q9om+MYxMhJDGLAVYvo0YTlTHQwzEFNXYi33Uw23ieGua5XPTxT1M/oSQRpsATJIsvlUdgUGZoho26ndxPCfxOLGtm5v9CCEjtRyQxXFphteoo5fBmaLqpjXiuFUNLxXHhHRxL0f9hJCiGAEcr45/MFBTVE21Xh0PiuM8yZZPYaQhhBTRAEwQx0nquJ9Bm6JqVr3vO6nh8JKBV/kSQgpsAixOrpiAexm8KaqqAj53iOMDaZYvmHUFd/gTQpoA9bi9Ol6vjt/zngCKGuId/h6WiSMTwwGJ5TzXTwhpMhOQYRv18CJ13EYTQFGDqty3SRy/lCy+IvU4m1GEENK8JmAxxsrinl3Ewy8Z4Clqy9f4iuPd4ugsXbx8LKMHIaQlSC9ZNVk9fE0dyxnsKepfWquO+8XwGS3n8xgpCCGtORtgYapaOEcdj7KcMDXKtUEdD6jjS2kW9mv7RF87IwQhpKURD1PFwtvEcCvLCVOj9Dz/vWr4khiOmu89ExkVCCGjhvneMyG1cKA6LuWSADWaEr8YLlILRySLw9Tply7lsT5CyKidDZinjpPFwyNMEFTLyvA3MXwmNRySWpzWeQHP8xNCSJtm+UTJ4gHquJ7JgmoxPSKOc9Wwe2pxSls3Ez8hhDyNdPHyMeL5bHGcqY6HK9OlTCBUE5bnxQpx3C6Gd4ljnlickFpkJyeEkEEsC+yhjm51/I2XB1FNdJTvITF8N3W8ct6ipZPYkwkhZBjM954J4vEIdXxDHdwfQBX14p5cHbeLhUvUw//rvKCPhXoIIaQWJFk+VRwniuOb6vgnkw5VkPP7D6rjGnG8Xwz7Jkswsa2vjx2WEEJqyQILY1MPiTjeqIavqgNMQtQIHeP7rTg+LR6OSB3zO5f08rpeQgipN+mi2CGGeWrxcDEYjQDVIC0Vw7fFcaJ62KtUzrdnbySEkBFAFy5vF8MUdewsHj4nFh5ikqJqXJFvrTh+IhlOFst3F8P01NGRdnM3PyGEjDjioU08tJWyMDX1cLw6fq6Ox9WxkkmMGuKafq84HlUPP1IPp0jWO1McYyRDW2Ir2NkIIaTIzPeeiep4gVj4tDp+XdmotZoJjtrMsb1H1XGHOr4ljlOTLN9jbvcy7uInhJBmZd6ipW1JOcxSx9HqOF8dP66YAV4uNLq1Sh33quNH4lgoHt6YZnHXzgv6xrHXEEJIi5F2x/HiUcXD0er4hDquq4z8mBBHh3rUcbM6LhXHB8TxMnFIySNH+oQQMorMwET1sJsaDheP7xLHZeLhbnWsYaJsGa1TD/ep4xrJ8GF1HCWG52oZs+d7D0f6hBAympl1RV/bgsXLJqSOWeJhF8nwYnV8RBw/VwssTdx0lfbCMvFwk3g4Ww0vEw+7i4e56WJsm3ZHFt8hhBCy2ZmBdjVMEMd26pinHl9dqdn+G3WEyqmCtZXd4puYdBt+3e6GSvuvqkzp3y2Gy8Xie1KLB6QeZomH7cTDBC2jnV80IYSQqpFs+fZazg8WCx8SD1dW1pP/VNlU+IQ6VrBgUU0r6a2qmK6H1fFndfxGHF8VC2emFv53waKe2fwqCSGENJzOJb0dkuXz1eIhauFE9XCOWrhaHTeq4/eVDYY8eji4ZB/V8YA6fquOG9TDNer4ghjeIVk4LF3ck3Yu6Z3Ar44QQkghSRf3dqSeL0gdh4jhjerhY+ooq+MqcVyrjl+p4251/F0dy0dRgl9e+c13V+5luE4dV4vjYrVwnjreoxaOFo/7pR47S+V8PL8mQgghTU1iy7cpZWF2athZDPuIhxep4xXqOEEdp6jHT4kjE8c16rheHbeo4R7pT5h5ge8s2FTZE/FPddyvjt+p45fab3SuVMdCcZyljneJ4wQxHCWOQ8WxT2rYteRhpwW2dPtpX1jGtXpCCCGjbMagvGxMWu6ZnFqYKYYF4nFnMTxbDc8TDy8QxwvVwmHi8ZXi8U3q8f3qOLuSXC9Tw5efoSvF8H01/EwNN6vjTvXw+2fod5Vb734jHn6tjpvEcIMarlfDdeL4vjq+LY5viOOrarhcHKaOz4jH09VxsmTxteo4XC0cKo6DxMPz1bC3OPYQjypZ6BQP00qeT1rQvZIJnhBCCBkOC7pXtqdZz3j1fBvJwmR1TBGPO6ph2jMlFmeKYbYY5qqHzoGFndTDXPEwVx1z+v//YZYaZqUeZqpjhjimpx6mqWFHcewgFrdLLW4rZUxY0L2CpW8JIYQQQgghhBBCCCGEEEIIIYQQQgghhBBCCCGEEEIIIYQQQgghhBBCCCGEEEIIIYQQQgghhBBCCCGEEEIIIYQQQgghhBBCCCGEEEIIIYQQQgghhBBCCCGEEEIIIYQQQgghhBBCCCGEEEIIIYQQQgghhBBCCCGEEEIIIYQQQgghhBBCCCGEEEIIIYQQQgghhBBCCCGEEEIIIYQQQgghhBBCCCkaSVfepo52cXSoY4J6vp96vn8pizuJYbw4xmqWj2FLkVHfV7K8LbX+vpIujFPV8+er5y8oLYw7iqNDDe1JV86GIoQUH7EwLi1jnjreIo6b1bFWHX0VrRfDfer4nDr2TsuYwOBGRiupYWzqKInj/eK4Qx2rn9JX1orjdjWckpYxTyyMY4sRQoob0BxjxXGAGH7wjMQ/kP4shhNKF8UJbDky+owy2sXwP+L40Vb6yVox/EAMLxFDB1uOEFLMoOZhL3H8fCsB7al6XA0nsOXIKDTLz1XHXUPoK/eIhf3ZcoSQwpF05RPFcdUQAtqTuj917M0WJKOmr2T59uL43lD7ihiuTbJ8CluQEFK0Ec1h6lg2DAOwTgxL2IJktCCOE9SxfBh9ZY043sYWJIQUK6hZOE8dG4cR1PrU8TvN8pStSEZHX8G31bFhGP1kkzi+zxYkhBQKdfxhmMm/Tx0Pq+GVbEXS8v0ky3epsq/8NTGaZUJIsQzAH6sIan9Xw9FsRTIKDMBu6ri7ir7ykGb5nmxJQggNACE0AIQQQgNACA0AIYTQABBCA0AIITQAhNAAEEIIDQAhNACEEEIDQAgNACGE0AAQQgNACCE0AITQABBCCA0AITQAhBBCA0AIDQAhhAaABoAQGgBCCA0ADQAhNACEEBoAGgBCA0ADQAihAaABIDQANACEEBoAQmgAaAAIITQAhNAA0AAQQmgACKEBoAEghNAAEEIDQAghNACE0AAQQggNACE0AIQQQgNACA0AIYTQABBCA0AIITQAhNAAEEIIDQAhNACEEEIDQAgNACGE0AAQQgNACCE0AITQABBCaABoAAihASCENIzE8k71fOcnJRafL+X43+r5Lk/581k0ADVu9658rFg+66ltr+X8uanhBU/9s1KWz0qyfAy/1Jp/93Of1vZZPEA9Pvdf/cBzTSyfRgNQoHeW5ZPE8yQ1HKye75xYPrP5B0D57Kd9h/3f3vwky7dp4b43Rz3fRcv5s8XzNLF8uxFo9/RfbW757mLxBeLxOUXt/7Vo9I6Sxb3E8Hr18FFxLFHHdeq4WR23P0V3q+P3z/izX6njJ+phiXj4lGY4Xj1/Fg3AoJP9BC3n/6UZjhUPn1APmTp+WmnXp7bzXeq4Z4C2/7EaTD18VDO8KnXsnmT5eKbxrVO6KJ+iHvdXx9vUwyfUcU3/t/wf3/09lfZ/8n/fpo5fqONa9dAthjNTw2vU811oABqLeJghjveI41p1/KYSM25Xx01iWKiOfZOufFyBY+/01HGAZnjdU/r/Typ6Zgy4XR23qONGdfxEHF9TD+ep422a4Uj1fHbzzmJhf3EsrPSr29VxpzpuFccPNMNpUo6dSVdtBzvqeYd63F8zvFM9fOYp/f/Wp7T3byv9/3cD9P+fiOMb6mGhZniTeDhUPS81i2OeqhmOEw9lMfxeHf9QB9SxXB1r1bFpiEFkrTpWqiOq4+/quFMNF4vHlyWWT6IBeMrvKueT1eJr1FCufFCPVtp+hTrWDPF3bqr8neXqCOp4RBy/EcNFqeHYJMunM9U/LeDOlgzHqYdL1fGAOh5TR15p+w3DaPu1T217ddwhHs4tWTy0UaOX0WgANMvbNYsvF8cd6uhVx8YBftcadTwoHt+vWb59Qb6/9pLF56WG94nh2+r4izoeH2b/X6+OVZXvd6k6HlLDL9RxnpbzlzVJf5ySOt6vjvvVsXqAvLNRHcvE8KeSxefWrP8bvqaOv1b6f08ld20YRt/ZUHnuXB3/VMffxPA9MZySlqFJVz62IB0mbiuOUuo4RgxfrzxwXyMkhhViuDa1+BI1zBILEwfj5lrBACRd+Rh1bCOOOWrxNWL4qhiWN6rt1RHEw6VieIWUMT/1ODHJ8lGT8MXDZDGoeHxrZWalYW0v/abg66nHF6qHmVrOJ9AAVP1bO9JyFHXYEGOQp4ZpI/D9dahhunjcOzW8Xxz3NTDuPiaGbrX4v+KYKYYJSVcx+n7SlbeVynFqavjUEEzPCvHwqsQGP6OTWD5BHJ3ieH2j+39/DAi/1iwepx5m6kjMzIqHHdXDnurxDG3gx7dZx2q4WRzvE8M+Yth+S0agmQ1A0pW3icVJYthbHR+S/qmkdSPc/r8Tx3vE8F9FGRHVi9QwTQz7qeOzanh4xL97x41q8e3i2EM8bEsDMOT+1C4W5qjjddI/a7ZxiMlwlTje3sC4O1Y8lMTxWnV8Xx3LRvD7W6WOm9TxTjHsXfK47Yj3zzI6xPDGyuh50DNuYrg7dew/iD4xST3sIR7fVllKGen+/zP1eKxm2LFRTnmSOA5Sx7nq4c5hTOnXu0F+L4az1XGwZhjXSgYg6co71HGwOs6qrBetK1Db96nj1/3PFp6fZPUZlY7giH+KOF4ojvPF8GjBvvs16rhZHKeJx901q830YKsbAPEwUQwHiGFJZap8uL/zL5rVf3OgeEjE8UZ1fLfRI85B6C5xnCmGfUZyM2HqsbOyn2yoz79aHVli+bab6/9qOEgdH67sl9hQoLZ/VB1nq4U06crb67W2PzZ17KqOj1Y2Lqwv2Af4VK1Tx2/F8WHN8s5WMADiYb443lfZxNJXYK2tdJD3iqNUtw+ycWuJY1OLz+k3vPhDAU3XM0dkP1YP706yfAoNwBYSxSJMFQ/vrXyr1cayjeLxTfVcz1YPr1DH1yrrykX9/jao41di+EBqSEbGAOCYKp7/ttSwzxb6/51DnFlopHrVwyXqYV49pj3HpobjxPCTgn+Az9RydXxbDEckXf9eJ2kmA5Bk+bbq4VXq+E6Vo5RGa6k4viuOV4qHiU2Z/LvybdTxjsru/ZVN1PZBDEtSw740AAPGs4Olf7PWEzVq703q4ZI6fH9j1bCXOhZVNrNtaIJvb1Nl4+C31eMrNcsnN3aghIXVjaTDCU/vAzixifr/MjV8VA2TavkRbqseLqjs5t/YREHwqcsCD4jh7Cen6ZrFAIiF2ZXljL8VfMZlS23/dzGcn1zY+HO3VY66OsVxeQ2TxEgsC/xWPbwtGWYQbjUDkGT5FPXwgUr/r3V/urPG39+E1OPRlX0JK5vw+1unjkc0wzmaYUqj3rF6uK6KZ45qeHflW5lWOcL3WDO1uxgeThfFXWuw/odxmsW9xPCzYRwhK2pA/JZmeLY6/lxkA1Aq5+OkjOeK4Yct0vZr1fCDksU9xEJxz0535W1SRkdqeIn2HwNb3+TtvkkdPWLIxEOqGdpHmwFIsrxNHB2pYT+xf62d13z/hjhur9E3OEY8TBHDZyvH9zY1f9wNN6QL40612puyFQPw0yr7y/mp4XAx3FTg6f4tb2j08NYqR56YrI7jK2dJ+1pL4S9Vvti6GoDE8gmpxWPU8LcWa/uNYrhHLByTGrYtYPIfI4vidDGcqo4HW++7x0/UsV9pYewYLQZAM4yRDCVxfEC9ric2NqmHy2rwDbbLori7VDeKLerI9CH1eJRYmFRgA9BXGfE/0dTtbfBhB8G0jB3FcUpl2rmPapwBSCzfNrV4nFiTf4Bb2TEthreLNejYyuDafUxqsVMNH69cONWqbX+7lPHi0WAAEssnq+HF6vhRQ8yt4/1VPu/E1HCgGv6vSdb6h6NH1HGKZpheYAPQ/GbL8d1h7oyNO2r/mvMjTPSNNQBiYZY43i2Oh1pg2m+rgUAMp4thhyIYgJLFTjFc3OLJ/0ndLM/Y6dxqBkAz7Cz9p5UaNYjpEQ/PqiL5b5NafJX0H+1d3+p9Xx1niWEuDUDdZgC+OpzR/0Q1fL7Jdvm3hAEQCzMrZ/v/OYra8R/q4bNa48trhhF8Z4nhiwU/3lfro1rfHkzRkWYzAJrlU6T/GNj3KuvnjRpxdVW55HeUGO5s0k3WwzshZDhXDDNoAOqiDw8n+Z8zwrdKjUoDIB6mqONDTb/uNMyzq2I4YwTX/SeKYXGTbvapap1THMe2igFIuvIxUoao4wvaP4PWyCn0q9VjMszkPy61+FIx/GEUJf9/7bgXw/lS4/1Ao90AiGO1GA4e6qa/N1cKRzDBN9AAJJZ3pBaPFWuuoyZ1CATvHYHkP0ENHxsl0/7/cURLDBe3igHQLB5eKd7TyONyy8TwudQwXywM67Kr1OPzxPDAKFjy2/wd/IbP0wDUVN8c9MxK6hgvhndUzvg38nzo6spSQ6xMez/+FPVUqnCtKuh6WE0MQNKVt1c2/DXySs/1lSDZO0DbP1H5s5Fo+8dTx+vFQ0cjkn+6MG6nhk82eLnryQprPZULnR5/hp5s+9UNGsH+oLRwy/cDFNkAiIfx6aKYquPzDRzxb6r0n5+p4cDU4pjEhlcERxbFVK2q48jV9v+eAbRCh1extapjgqnjFPEwoYUNwJPVPVdof7G8MED/z6vs/5vU8ScxHJRcOIjbVxPLx4njpZXrTev945dXbrK6RR1XqIfz1XCiGo4Wx76a5Xv9S/1//g6x8Ln+6TXcXjmWtaqVDEBq2FsaM+2/UvvL094ijqvUw6fV8A5xHKtZ/t9Ptrs4XqCG14jhZPVwbuWmtFsrf7cR66n3iOPwpM5nhcXCBDG8rvK76rozvBJU76t8918RC+dUvu9XPu2bz/K9UsfRajhZLJyvjm9VvvuHK4GjHs/3f5rl0mwGIOnKx/RvmA3HV8qNN3Lq/C/q+GRi+awqj1nvpP3nzBux3+OJysVHNz21/1e+w6fLw5nqyConJ+7U/vLrjVgee0wMxyZWff2QAhmADZVEf484fqoeFovjDDWckDr+95n9Xw0nPKP/Pxl7BzOrtUEcf009vimxQdRhSLryManF3aS/mlQ9E/996viOOM4Sx+FpGTOHeje8eCiJ4ZViOFcdP2vwbEVdDEDqSMTDj+r88T2ijh9qf9W6IzXL5w8p0GZ5e8ljp1g4QgyfUce1lYRUr4C7QQzXimGPOm74GyuG/bX+Vbz+pI6vV046HJaWMXso333SlXeIhVQcx4jjAu2vuFbrpYrrNctnNJMBEA/jxbCvGLxy3WzDlqnU8QM1HFGD3zBNHBfVeUCzQh2/F8fl4jhFLOw/1NoQmuW7ar9RvqASd5fWse9vFMNtYvGF1da5L4ABWKf9tXIuU8e7xeK+ieWThmhyO8TzTjEcIYZPV2LvXwe4FK7/2mXDj1PDcYkN8sZPtTBdHV5Hd/cXdVwkFo4UDzvVaIdvu2Zx10o1rC9WZgU2NpsBSCyfIo6uOgWADeL4qziWiOENqcekFiPqpCsfJ+WwQPt3WFtlZFCf2QrDBWKoeWW1pCtvS8txJ3F8vY7fxv3qcOl3+LNqlPTGiIfnqId3VkYGPTUyiFc00x6AUhZnqIf3qeOXDVye2iCO36uHD6eOeUm2+RLjgzTVE/tn2Oo2iOlRx/XqOF09HCoWqi7NnWR5R2rYTQxvU8eX6vjsa9RwlZQhTWoAnixA9xkx/E9SoxoIieVtJYvzxXCUGD6q/deT/6gysF4ohjepYY+kKx/cDatiYZxYeGOd1j+XiuMScRxeymJdzngnXXm7lDFbDC8VwzdH4KrcqgyAOE6qUyfaoIYlYjg0NcypVxU+zfLp6uFIdVyl9SlJ+k/1+AatcTlhMYwRw4frZHqhjqvEcWQpizsmWV777z7Lx4ojVcfbKjMCa6t63sqd581gAFLDC8RwpTa2GNZydXw1dbw4ddQkmKuHQypLO/W4iviO1HGiOHZPsn8XPqth3B0rFuaK4X/F6xZ3ozpOq6aA0AgZgL+L43NiOCBdFCcnXXlbXXKf5RNSw1w17CYWNLF86Dk2XRhnieHeOjjlO8XxBnHMTKz+JWCTrrxdLMxTjyeKNfQEw7ANgBqeU5lOq/HMRbhXHMepYVZbAxAP7WKYVzk98rs6XGRxsxrm1bjzSB2OWq4Xw43qOFIdczTL617nQLN8ojpE+5dlhmMCNonjDlkUdyq6AUiyfDv18C513NXIexrE8ZBYOFk97FSrPSniYYb2V6qr9Z6OXD1+RizsUY/EP8DyZVvqmF/p+/W4Kv5ecezXJAZghRguFceBYpiadFU3Q9TWgOAxVvpLS9bSga5Sx1WlLKapo2MEflNHWsbeYuH/GjQ1OCwDUMriZDGcVeOjSuvU8U017J5msaFFdp4snKNZ3LOyl2RNjQ3lp1PDuBoFrXHaP1tUy+9gtXq4LF0UZzeiyMkAZnKb1OLh0l8zYii7hpeJhVcPJliNhAFILG9LLXakhueK4ZrKzuhG7UpfIxa+my6K88VCzZJp6aI4TgyvqfFR6w2V0wgHiMeJmjUu+fQvp6FDPe4i/WvdtVzO3KiGy9UwYzgzaQ00AMvFcKZYmJRkBU/8/+7Q8bAaX/bTK44zi/DbUscscVxYCRiFMgCa5e3iOLyyRlyrDZZPiOMszbZ+o1sDAsI26ji/cpSlVsVDVqTl+F+1mClK+6fNa7nk9bg4Pl2Adh+TLsKuYuEblenxjVs5lfCYOM4ewnfbUAOgGdrEkYjhjAbfS7JKHPeIh5NqdRztKbMYbWLYWR2/qPEmvyvFwi4j/g1aPkMdn6i8r0016vurUo/HpB7bC2gANmr/DNExbc2E9k+nfaOGZ2bvF8fHxFGY8q5iYY46zqnzrXpDNwCOGeq4pIbJ/3FxnDGsNaC6moDwSa1h/WxxfCvJ8olVGcMyOiulPTfVqPP/QQzHi4WOAn33M8Xw7kohmX88YzZmbWWN8sdi4dihPHcjDUBi+SQ1HKj1PZk00Pv8uzoWi+E51e5AH3hgEjvE8e4aPvMT4rgwsXxGgfr+BHWcVtmpXqvf+ZtSFqcUzACsFsdNqcWDE2v8rF+VG1BwVA13bz8mjreKhW0K9zuzfEd1fLqOl7wMyQAklreL4+Aajmhi6jgjyfJJRWt7MYwXx5k1nIWBGPavbu0Vb66hKflj6nh5YvVfax1GEB6nhj3Vw0ni+GTltEamjk+p43gpY/5QN4Y2wgAkXflYdewujjO0seXH16njp2I4UbO8bpUpU487qeOeGj3zWnF8PLF8ehFzjDiO0xqWXRbHawpkADao43oxPLdeG6zrOU0zpXKEY22Nkv9HxTG9qL9XLMxVx5V12jg0JAOQOiZWznLX5N9PHacnlk8p5HfWlbeJxbniWFyjtl8rBk+6hpdwxcJO6rimRrNe96njzbU4WtWQd3FRPjHJ8qruWa+3AdAs3048vlodP6jTiZItHZc7Twx7Dfr41HDb0HBCDRNiuajJv62trU3KoUMMp9bwtMYvkywfUn+rkwHYKI5bUo8vTrK8o63ZEMeLq+zIT71VzlPDnCb4zaoefj3iBiCLWqsqf+K4ulTQ5P+UNc/21OOulaNCtWjvu1PHvlWMSB6tSb0Cx8fEwnZto4h6GYD+4j1xgTo+V7ntrJHXTt8ohqPqOep/6rKYGG6u0XN/KzWUhnv1cKMGAKnF6eL4bI0Gm7kajiyAAXhIDK+rxU2FI/FSOirr4utq4IJuTC3uXvjjDv9ypNhLrOYldoc6A/CO2myMCXeKhT1SRzPMOLWL4YDKFbjVj9Zs6BtNE8u3l/7qcBtrMFV8lTimtI0y6mUANMsPEcdvGlmyVx0Qx7li8VlqaMj6rVh4UY02Xd8ihv2GW3SowQOAMSWP8yqnA6ovWuX40ggbgJXiOKeIy92D/Qh3U8d1NWiIR9TwysSa5MhDW1ubej5WPb6hxkfUBm0AKvUW7qnByB9iOLJ0YRzbRN/dGLFwYo1G4D8sWZw3tH8f+2h/kqn6XHJiedo2CqmlARAPHemiOF88XFzpj4062rdSHb9Qw4vEMbZRI+gky9vFQrkGsxv/FMNrxdA0cTexvE0MB6njthq857uHdJKkxgZADD8uXZg358xfpXBGLTb/bRBDd1MaoP7jgV8bCQNQsviCGoxy1qjjArEwo+m+vyzfvnJ9bbVr8H8Vw6sG/87DOHG8oQajrzVqeF3bKKVGBuA5YmG6eDhWDHc08PruDf37NsJHkiyf2ui2K3kU9aqr/a1Rh2lW3HX/LeSe8WI4rQb7ASCO94+QAVgmHvZt2g6cljFZ+3cEV9sQD2uWl5rSBGX5OOk/AfF4ow2AGD5bg6WXO9RxYLN+g+I4olKYqLoLWhxnDXYNTgyz1HFpDdz/r5ILq9tIN8oNwGNi8S1iuLBW+2AGu2wkju+mjpeO3HcfTqzBb75LHAc1b98P8yqFbDZUtfRs+MpgrweusQG4TL15Zl4GCr5pjc7VntPMgUzKmCOOi2u0G3xQBqCy9+KnVU6BrVTHuZrlTbv5LOnKx0t/Mq52KvArqWFQhaXUsLMabq/2BIIaTtQy2kYrNTAAayqnJ9Y1cNR/l3o4M3WURvKGtsoRzGo2wq0Sx8Iky7dp6m/IcXylLG417/VX6nGvBhuAx9XjCzTLmzjxOfaR6uueP64ed23mj7C/bgBeXqNzxoMyAGJhZ/Wqay78ST38v2ZPJFLGXlL9UsgvxfG8wS174cAaLL38XMrorFdhj1FiABqpZWL4shheKBYmj3C7zVTHj6uddRWPL2qBb2iqVG/GH1QPg7oToHYGIFyqHqY2bcNXkt7Lqt2EUqkpPbnZP8TU4+zKmfAGGQAcW+UFNBvF8c2RDmY1+hbHSvUB8XHxrR8JUs871ONJNdh4+a7U44S2UUyzGABxPCIe3iwW5hbhkhY1HFwpYDTs2z7FcKNmrbH8lDo+WOXej3XqOKOBBqBXDEeIh7FN2+jiYVt1fKTqo3+Gl5UWxvamT0JZPqZSTxyNMADq4RNVbkKL4ji1VZJJ6vEVVS4DbBLHe5OtlAlWwyQ1LK7+0p/w/CQbvaP/JjEA68Tx7bQcU/FQmNsZ1cPbqlz/XyuGj2mGjlZQaVGcW4PTEJdqls9skAG4UQy7NnfnNexYqdlejbP+lVh4VqsENLGwd2VTXV0NQNKVj9HqL8K5V7NcW6ftMUcMD1bZJheoxx238o6niIVqC69cLBZmtY1ymsAAXFgpw1qwwRc+WmWFvPVi+LpmsFaRVH8d9/fFws4NMACbKtctT2rugOuYqY6fV2kAPHXMaJWA1l9fHD+ocjpqqwZAyvlUdfywyoI/P22lZCKOHaRKQ6qO76kh2UoA2LHKoiTrKzMN49tGOU1gAB5Tw+vFQmF2aieWj1fHRU2yb6KZdLMa9mmAAcjFW+Dor3ro7N88Ud06aBELn1Q5Ev18le586wbAsXv/ztUqpjYtfLy12j2MF8fbq+ycv1bfcglUKaOz6loXQ7hzgAZgxPWgGA4pzlJXPksdX2bCrrnuEwsvboABuEssHNL8nddRqvL4DdTx8pYLaoa3VLkPYKsGoAabgFZriyWhpCsfo4bDqr0QSA17bfm7jwdU+W/8Viwc2Eaa6RTAr8WKcV5ePe6mjh8xYdf+lIc6Xt0AA/B99dj8y97afwdAVWvQYuGFrRbUxMOLqryedjAG4DB1/LGq8/9Z3K/lEoqHfaq8FGiV+pbLA2sWj6zyu79eLOzB9N9UBmC9Oq4TC7sVYICxT5Wzf9TmdUIDDMDlJc+bf9k7tVjtaOumrY22mjOoxeeo46GCG4Bl2uQXgGymc+6lHqq9HvWgOhuAqzWLnUz/TXcPwBp1fF1sy0tENAA0AFvR+YnlY1sh0b2uyoa4QQ17tmhQe7CuBsDD29XxRDXnUFsxoYhB1XF9PQ2AWDilyv/+lZrlc9pIsxmA/iujDeWSxbkjVbRMDfv271Vhwq6DTtrae62BATi3VUa61RqA69XQklOhVY7OB2MATqYBGDA4Jur4bpXf5SFbOvalhnOq/O+Xk2z03v/f5AbgyTP0XanFmSNxPFAch/Xf4MmEXfsLn+JZJd9yTQAagNoZgB8M5twlDQANQEMNgOHFSdfmRwE1MAAXJFnewfTfUAOwocblgZeJ4UPpwji58bElvEIdDzNh10PxLMloALgEUAWJ5VOrrAlAAzCyMwAHbWUE9vFqK4BJlk9j+m+IAVinjt+o45IqN+YOpKAW3j0CBuDQJpw1aRadnGT5OBoAGoAqpujqvwdADK+tcqNhaxoAD7ur49b6GoB4fJX//as0y+cy/dfdAPSIoVssHqhZPlsdZ1R5dfaAfbXRdzpwE2DdtFQ9HDWIGEMD0N8Q8TlVNsRt4ti3BYPasxtwCuDwKtcBlyeWz29BA9AMpwC+IY4FTP/1MwBi+Jt6fIMYZj9ZvEcsTBXHp2r8b21Sx+/U0LCqejQAddNPxMJ/0QAMfp272nsAHlDf+s1LTTgNfWyV0/P3b+1+hNrcA5D/d0stvXTlbWI4QKyqUd4mdRy4FQNwRA2Ovz6X6b/mBmBT5Y77q9NFcVcdYJ9F6pgk/UtEG2uYODaq4xdi4b/F639lsBr+Wx2/ZMKuqZaL4TSxMI4GYPAGIFHH6iqP1LwuyfIxrRTUxHG6OnqraJe7Ncu3uDkydeyvjt9Ws5NZDe9ppXYvLYxjxfDqKmt0/1E9PHuLbZ/FZ1cZAP4ojhe3kVoagFX9a/3x+K2VuBXHNHF8tcpbTAfSz8Sxd2L1LRcsFp5VqTfCxF0brRDH4sTy6YOcZaQBqDTEHPVQVeU7cXw0dUxqlYCWdOVj1fDFKoPL7UmWT9liEMjy+eq4oZpd0WLhi61lvMJkcZxX5QmAX27tZIo6pqtjRTXFQNTwxiRrgctARt4AbKzc/Og6yPKqSVfeLoa91fFTdaytaelgw5dTi7vW0wSo59PVcTkTd030uDiWDOVmThqAfzvRGWpVVaTrU8c14miZW9HSMuap4xdVBrTrthrEsnxbdXyvynXS2xPLt2+hpZfpatVVp1THVWrYaSsGYKo67qny3zkvdexAA1C1AYjqeG9i+ZDasmICDqj01Y01NgEXp+U4u153BCRd+bj+stVM4MOd7lfH/f0XhoWTExvatbw0AP8OuFPUUK5yBuABMeyzpXPXTWaKXtm/t6GaS0ZCeZBLMBdXOdPwcGo4rHVmAOIe6sir7Jxd4pi2lQCwXbXmq7LhqCXvwGiwAXhIs3xYJ4mSLB+fejxS+otq1dIE9KjhC6WLYt1mNrV/mbGaWah16liijveOQr1FHEeKh92Gs2eDBuDf69ATxPGOai/oEMOpYmFCC0z/d2j/FPSaqjbnGU4dXMLDh6pMeCvF8dmWMQCGj9UgeP//9q40zK6q2HbSnXSHhCYJGRAScu6pIgkEEBLBBA1hMDxEhDCKYgQEnBAHHk7IAwmTKNCQvrUOqDigAoo+lEFkkllBfD4QBGUQkUHEvfaRISQE0vHHOY0RIem+d9+x7/2+8yP8oPfZp3btVVWrVh2l6xDpEbguBZeU+XeeFeN/9TPUWwCg+gCgra2tLbK0S+D3L3OA1OuTyuCOraCtH1hmq/HLajyrrfUrAXy1AEA/gh4mxp0V/EeZxKubFK7h06ExuIWC15VpHKnCv22A2Ybdy1QE61PwRoHT5sgAlE0me1Lh3rXO79zL4WIstxVwtRhPEnOjh7QzrTEAyNfQKeaOzImEIUHAU2I8ojK27rYNoHdxd2TpJq0rvQUAynG6mwdoSVkVm9+9oS//pb5LjJ8qk/2/WsEnNBlYVBgl6UQFfxdA/OLjA/2bdZp5GSbm3pfLvVZcmCrqSdsU3ErBR8ssfz0l4HQx1wIANQQAOZhuj8FPlJm9e73nUTUeNJD2ssH8Cuf4UQpeVqa8sRfwk81Sfm0BgJqkXd0kBVH+EAZeFVljjqfNLiDODjOhy104yFTgDwJcfD/TxM9oWBvs9ZuKlU3KW51xKgbWCiTgNEHZBNjVAvaIuSHrgOsFAOTftEvApQFA/GufewTuXYKwZU4FTy2TB7BKjFfGvb41mbIFAEouA4xQ8Kgy9QAy8huqK6kZLPovcrQYPxeipSgG9x+k0zoywN47BT+kSTqyAcFXuxi/GEDi9XkFj4160o6B7bsbLZm07CtlAgDGoA5ZZ1pHACA/TxMFTCpQDrgtNs6PLO0IuNZ9Asw3eFqMR0eWdra1fi0AUKIh7qTgvQFUvG4Sc4UGA0DDBH4bBf8QwEm4OPEbDdKBbhyIwHSDYGB91HVle0VuLcY7Akx6+62sQwL4dex+NwUfD8AF+Hq0jglkLQBQHQCQtwfOUvCSwCDgZTFeGZufE0ojILJ0nGRZx3Jt/2YBt21d7S0AUFoEbJyo4LcCyTGeEvU0TiSqxk61YKIc31Jw0O+elwHK/dsrBDxVjN0NdHmMz/uhny+XgyLgxQK3wSABwPRAimzPKNxhLQBQewDwKgiA31bAawOU117LvL807h0cyF/H2T8rgKLhCwqeLObGta73FgAoETW7j2aEsrKzAA8r3H4NE4Eaj1VwWaABJnvEvRx0dBCbXxRqvKnAHVgNPfMA0c8YMR6t4F8DvDcFPGbwmS/XKcbjAkSKqxT8VQy+Zcg50zoEAHlmryOGf7uAdwXWCHhRjd+LetYuVzzQX8H8DmXyAPp9z2Ox+f0ja7wyYAsA1MWm+JkK3hxosMYv1DinnslRmqTDYnCRgn8LcvmDtwo4rRT1MAE3VLi7A4GQxwvwUaVUzII4vXN8uxS5hxofCpD+XK3g/xUSP7XEDNAumgnJlB8dgpcJnEaWDh1nWqcAIAeZ7Zr4+RXQCFgucKeKcXiANXYo3A0hBikJ+GBc9FsXzqnvroDI0rYYfpjCtStcR/8TG4dHSVqFu64FAN5oYz4TQImt/7lczG0t5obXoQF2CPyOCj4UziFwcbQOAZq1ONEOhV8cTNfceJv0eqlHkRoxDhO4uYEu3UwMydxxZWS/OiUrQywPsJaVYvxGwfy0Sg+UKcf2Y2O3GCcr3FSF20Thx0pv2llKO1k9A4B/2ZzbTcGnA4OA58T4JbXy56Bo4ncOZH+r1fhI3Os3q1vwb75LwBkCf6SClyrcnf2PGE+I4eeKcWwlWxtbAOCND8pWuWPuC3RILstBQN0gUk3Sztj8jmK8JWBq8DoBNy/TKAuZoFKwWuXPpcit6wkERD1phxjnKHhHQEf8oCaplLX3mab8vYHs/iUxJgXzhcjSerL7kQqKgAcKeKYYf6Zw9yjc7QpCzH9YjHM0Yecg/791DwBy3/aeACXO/9T8MH5MzI0p8+yPVrgrQq1LjD8WuBlRT30NqxJzk2LjRxTuwbVqGxjPlqKfUalhWy0AsPYIbUlgMY3L4wGIs1TJANfTLO1/e0By0LMKfk6TtKxIQOBGKdzHA/Ywr1Dj5WLcvtTMROjLX4vcq8xBS6/3fCnA2kbm/ePLA63pJTGeL0jj+sjscYyCByl4xVpUP1cqeJcaPxYv9QO+0BoGAICjBTw+EOdkzecBBd+jSdpVxtlvV/CAAK2wa37Lq6TIHesFBIi5TRT8itiAVGdfEPCS2LhlJTIBLQCwdmOcGjA9218fv1rg9qxld4AYR+dKf/cGfLdVAl4dG2cFclLTcycdrlZpvEGM+wjcerXa+8jSbjEeqcb7AxOy7tUknRZk74vcVox/DLi2lxT8oSacV8vzHPdyA4U7YRADrrwav9hsACA/X+Nz8Z3nA4OAX8fm3xFZ6UBbwI0U/H7IqYZq/GVs3LeWAm1rZP2SQUrOrxDjUjFODL2mFgBYtzEeKOGioX5i4O8FPFaTdFLVjTBJN1S4sypQB3xCwA9GSRhxkMjSEWJ8v4KPBVzjKwo+qOAX4qV+w6pfQMZNxbhEspkHfQHfa4UYD44DELFedVTwHw5sH6sU/JXCHVoLnQBNUhHwghJ4PX8T46JmAwB5ILCpgueHYN6/ZiDanTH8tlFSWsQaWdouxt3yjEJI+3tIweM14YQa+N2RYtxdjdeX2Gn1d4HfNQosc94CAOty2vDdGqY3/bUtgl7By6TIedVITUU9aVee+rwj8IHvj/C+rYH77uNev6GA3wncv7xawVTAawRu+ypdPp0C/x4B78zLGn2Bs0oXinFSyG4HTdIxYu6OCoCApwS8QBNuWaWoq1PB/XK7X1HiWb01StLxzQYAop50mBT9FAF/EviMrVLj9fG5pYPsuNevL+DpAXQB/mO8sYA3a+IXVA98slvBJZJ1+rxcBp/hPAlAtGwBgMFskLFNwVk5Gu0L7RDFSAW/JkU/S8H1QiG8qCdtK/T69rjoxwm4l4A35Bd/6HdYreB9BUs3q4CDWnNSWF8FLiOncOdr4mcr3Oi4yPZQl6gmabsYRxfMz1W4W/Kael8FgOR9CjcvNLm0kPi2GH4nCU8W68/EPCng6QJOi42jgtl9krbFie+QIscJuIeAP8/T3OXs/RMxuFezAYBX/YSlIuD1lQABhaV+Yhlnf4aCVwUulfWfm+cF7mux+W0UbozABQ3CBG6Ewq0vcPtIlnkIAGTc3YqwAkctADAwpzIizqKIJyrgDPvR3XMKni/wC8WoBfNjIxt8ZiBK0hECN17gpotxXwEvrcBAkH9LTcXgHhVOVe4XQqZ2bWlehbtQjPuJcYYW07GlZGUUabvCbyjgDIXfV8BvhxJWekPtc/ADA9X8L8GJjVLw6Eraj4DPiPEMAXcTuGkx2F0KGIiStEPgxgmcCnhwzh8JReB9QeFOaUYAsEbafVMF/z/w910hxl4xTirdBrmXgvdXKHBZndXi3Y8k8+8am+8uVbtCi2mHmp8kxpkCHq5w1wRrZ/7XM6kFAGrCBXDjFDwxoDbA2tS1bpeMJfoBhVuoCbcUuGmKdFKMdMPI0pFRknYp0gmKdLKajzThnMyJ8nAFzxa4uyq8zpxY506qSiYm2/uVFX6fFWK8U81/RY2L1biLgLM18Zsq0kmKdFKUpKMU6cj+f8fGgiacpXC7KniYgr25I11e4bU+q+CXdQCp6TLB18Y5aWlZhd/nOYG7WsAlAr5X4HbShFv1270gnRBZ2hlZOkaQTlSkkwVONOFsARdKtvdnCtwvK7C2l9R4XjMDgOxbu50CjOT+DzsV8CsxSqu7Rz3pSM1GG7sK29/zCv5SslT9fgo3X+Gnq6VvkmI65rUM/CzQSscJOFXBrfPzf3g2hZP3lZPqbwGAegUBxljBiyuA6tZWW/+LZun7SxT8eu6MT9GsPna+gt9Q8If5+N7Hq7i2lWL8ftzrJ1Zj76Mk7ZZsD1ZXce8fydsk+/f+6wp+Od///n//SMHrBsEsDwK8FPy+GjerDvhyW+YR9coqvd8LOWHrFwr+IN/n83LW+pm5k70gnyF/e35GKmn3ryj43SEAAIaLub0V/HPg/XtSwP8Wc+NLPPtjBOyp4vlalmcdrshnmpypWdvkcWs8JylYVPAiBW9S8NEqrOuvirAExhYAGDwnYDvN6mUvV9Eg6+1ZKeAlMfysaqq8KfwWCl49hPc95y64GwRh2i0HGIW1x+Z3qYCWfKM8yxTuq80OAPKU+2gBP1KBC+0xBT+oSWlzAwRukzzQGcpn/zI1rt8CALXkA2QjNrfJI4++IWqIt4hxbikchTIjlHYxt/0QBwF/EOPsGtSIO2P4hVIZMmy9P08L+L6hAAByELC+gp8fZK/6QPgeD8bm94ysNM6KmJuZdywMybMv4BEx/IgWAKg9CBgWm58nlecD1OPzazG3QMx11MQ5mWtX4wLNWuqG2t4/IkVuVytJ48jSjnxi23NDaM/7BLyrkPgpQwUAtLW1tUnRj1fwq4G/dZ+AD8TF0vT5Y3C4gG/VLBM11M7+jWKcHnpAUAsAlPErmH+7gA8PkXLAKgVvF3N1MeZVjDvnUrorh8Dev6Lgb6TI2ZUcDDJgp5GkO0rGjxgKmYBn1fjeAe5L0wCAPNDpkox/8WLgSPaqcgTDBNw+r7sPlbP/BzHuUQm9mHoAAJK1S24iYEHBSMHJMXxXNaYhlktMaxf4uTkn4KUmN8Jrxdx29UXKdFvnfcKvNPHeL8vRf91omUeWDo/hdxbw7ibnBCxT8PxBAKOmAgD5t36TgN8N/J1fieFnl3dpcH5O0nuxyf3uPQIujqwy6pm1BABRT9qucFsp3CkC93PJ9F5uUvASAT+hCWc2CifgrQr+b4X77WsWAQl4SWTp1Hrc/3xq40VNGg08p5nK35x6m2YWWToyhn9H3qGyvAn3/kkFi3GvHz+UAUD+rTdS8OawQjzr1lUYwNnfLO8GeaEJ7W+lgreqcf+op3IDzGoFAKKetEOKXJjb1aUK91E1LlTjLvmcmtsVvEKtOoqh5YKAdjFurtkUtX80kRE+pcYvx/BT6zkdU7B0Y8n6730T7T0VPF2NWufg9y0Kfq/JwO/9Ah4dF/3EwZRcmhUA5Jft3BzsheECGK8NQ1h0UwU8TcFnmozwd5GA8yp5+dcSAGiRW6rxegG/pUm6rRoPUbiPKNxiMc4WcKe8tf3iWswOKW0zjZsI/OFiwftoq556kozsd2hc5IR6qDuvoxQzLIafqFn70v1N4ACeiMHFAjeh3m0+6kmHC1gQ8DgJP1622s9LCt6o8HvH4KCdTpMDgHYBFwYc0PP7gAHAeDEeEXi6aa2eFQp/TgwWqnJnlQcAVojxf0rkcH02F52aI/Dz8lLHaQouFXPXCPyb40wF8ikxvqutUX6RpZ1xkfMkq2U0ogG+qODFsfm5Yq6rrYF+Yhyl8PPzVqEVDbr/Vyk4L0pqNy66xAuiO4bfWeF+16D7/rwYz5Cin6El7n0zA4C87t4p4IGK8kdFi/G2gCC0LS76LgHnSSbM1ajlwN+JcbHAb6hVyriKuZ+WsV6ncB8r4ZxMVvASNf5YjZMk8bso+EdJ/M5iPEDN3Rsnfqc4SbszUOe+1Ei+sK1wrh+m8BME/tNq/EuDGORLAv4pBg9RuFHVFPgJimiTdHi81I8X48dzRbOXGyTyfCDv8x2vxmGNuPdRkg5XuMkCnixZSrbe974vj2Ie0CRdIMbOcrJdhXPT0XnastTuiHs1qS+ux+uAgI480/Z0Ge/ZJ+Z6w6/NDY97/Vgx94lcxbMRiNmvKPh3MZ4vcJvHFm4g2QCz1kvKWPufBNy/BB89JefMnSvmxuYA4Dk13qTGu8V4fAHcQOE6Fe5OAb/X1qg/NW6Vt9I8VKdR6TIFHxLj6aVO7qrjC2mSwl2Qy/Qur890H+8X41kCJ02z7z1puxRf5QY8XodAoC8nt96txhNCqquJuc+VyExfVa25GgG+70gFP5UN0SpxhkiFR3FrkqrCnZEHAfUagD0j4E/U+M6oJ+2sxbeMzW9f4pyPPgWvE7i4hCz5OAEvVONla2QAHhHwUAXPzoiBfosYfn21BswAvO6BMS6QTMf/njq4jPpyhvldAp4dw8+JksqSTWqYERihiV+goCn4mzphDD+r4N3ZpDQ3p61Jf1GSjhbw3TkQuK8OgECfghTwZgFPlCJnhu6u0CQtlFgGeFCTVBvIp3UKeEY+RGew6f/Lq1ia2l2M387rzcvqJOJ/TMGfCfjRqCcdVVP/CDcmn28z2FZqL8ZjysgkfUaNf1RwB4Gfr+CtAm6dt3feLPC7xeCihuMArOvQxOBOYjxZwWvzVqNq97A/quBlAn5ejNtFSdrVNgR+kaXrxeBcAU+UrH/4ySrv+8v5wb9CwS+Iufm1UlOsARBYX4275hfGTQr+vQaO9yEFLxXjUTG4RaVGKOeXzmF5F8dgnOn7G/BMTZBsUM6g6twKX1U9EYFbT+F2VnBJPrirnPJFOZnWuwQ8T40HSe/gOkwq+A2H56q2g1FWXSngBZqkk0sGHkVuqeD1Yrw4Ni5QuANi8xMKxXScwr07n2p7p4IXNUwXwCAMslPAWQLuL5nc5g1iJafTBsLof0LAawQ8UcztKeak0u0ldXwZdcXgZgruo+DJ+cS5SrYQPZXPLjhVjHvG5jeLrLEIfgEvxk4xt40YD8plZm+RyrXNrsxVOn+qxhMFfKfATavGexaW+lEKHjNAkPmYGj+vxvUa8ZsWLJ2Y9+IPpN5+mxr3UmNN7D+ydD0xbinGfRU8V8HbqiBr/XsBv6PGI8TcvFInIlb4XHYJ3Lvz/RhIQPrNGOW1J0c9aYcY36HgHQpeqcZPa8I9FdxHwM/kXJrL1bhF815GPelwKbrxAk4X4w4CHi7GYq4s+ETp2QH3YH7hnyXw7xNwrpjbrFD0o+u9pa+KQKAtrzHNUHAHhf+AgkUxd2MZk9BW5dHFtWrsFeMhCu4gRhW4sa1d/ze7HyfmNhdwvsAfJeA3Fbwl379Sne3DYvypgD0Cf7AY3yJgIe5lVe0+6knbpMgxCreXGK94g9TzcjFeK+b2iYvsribxK3DJY5gkfoqAx66lRTBV8AIxvlXM1QX4FbgJYtxCwIUCfkqM38wvneVlgU7jw2q8Mh9dvUjMbRuDG9ebkNfrBaUxuF2up/JG2as/C3iMmJsS6Jy0K/hmMXeWmPuFZC3cv5WsPPJJNU4fUhdSAX6kmNtAjJMEnKpgQRO/tyZ+sYCnqfHcN3iWaOLfq/C7qnG6ZrrKE2Nw/VInbw21nybpCDV2i7lJCk4RcKYkfncFD1XjSWvZ+xMU/hBN/AGa9cNvqnATxVx33MsRjerYqxyZdcbgWAEnK7ipGGcp/CJN/MFr2fdzBDwut/uFYpyhcFPEOCEGuyOrfYZLzHWIcUJsfq4aj19j7SfF5t8mxolibkQT+K5hMfwoMRbEuLcaT8nf82wx9yEpcqaAY+uxsyhbO7vEOFbhNlIwiuEXKPz7Ffxs/zcT8CKFu13h7lC4a9b476cr/GGvnn/jFDE3QeHHaNJYnVRRkg4XcAMp+s0F7rA17PU0MS4SYyEGg2v0i7luMfemfBbANAE3qvYsgH8ClnGpVvtgCJYAAAAldEVYdGRhdGU6Y3JlYXRlADIwMjItMTItMDZUMDU6MTU6NTYrMDA6MDBxNmfoAAAAJXRFWHRkYXRlOm1vZGlmeQAyMDIyLTEyLTA2VDA1OjE1OjU2KzAwOjAwAGvfVAAAAABJRU5ErkJggg==;fillColor=#182E3E;strokeColor=#FFFFFF;fontColor=#FFFFFF;" parent="1" vertex="1">
          <mxGeometry x="415.51" y="323.5" width="44.42" height="38" as="geometry" />
        </mxCell>
        <mxCell id="zvgNvQxq_wlNGf-tIKfd-16" value="&lt;font style=&quot;font-size: 20px;&quot;&gt;Docker container&lt;br&gt;&lt;/font&gt;" style="text;html=1;align=center;verticalAlign=middle;resizable=0;points=[];autosize=1;strokeColor=none;fillColor=none;rotation=0;labelBackgroundColor=none;fontColor=#FFFFFF;" parent="1" vertex="1">
          <mxGeometry x="483" y="325.5" width="169" height="36" as="geometry" />
        </mxCell>
        <mxCell id="zvgNvQxq_wlNGf-tIKfd-17" value="&lt;font style=&quot;font-size: 16px;&quot;&gt;Prod application&lt;/font&gt;" style="rounded=1;whiteSpace=wrap;html=1;labelBackgroundColor=none;fillColor=#182E3E;strokeColor=#FFFFFF;fontColor=#FFFFFF;" parent="1" vertex="1">
          <mxGeometry x="474.51" y="435" width="153.01" height="55" as="geometry" />
        </mxCell>
        <mxCell id="zvgNvQxq_wlNGf-tIKfd-34" value="&lt;font style=&quot;font-size: 16px;&quot;&gt;Download war &lt;/font&gt;" style="text;html=1;align=center;verticalAlign=middle;resizable=0;points=[];autosize=1;strokeColor=none;fillColor=none;rotation=0;labelBackgroundColor=none;fontColor=#FFFFFF;" parent="1" vertex="1">
          <mxGeometry x="334.86" y="434" width="119" height="31" as="geometry" />
        </mxCell>
        <mxCell id="zvgNvQxq_wlNGf-tIKfd-38" value="" style="rounded=0;whiteSpace=wrap;html=1;fillColor=#182E3E;align=center;labelBackgroundColor=none;strokeColor=#FFFFFF;fontColor=#FFFFFF;" parent="1" vertex="1">
          <mxGeometry x="310.18" y="-28" width="165.82" height="217" as="geometry" />
        </mxCell>
        <mxCell id="zvgNvQxq_wlNGf-tIKfd-39" value="" style="shape=image;verticalLabelPosition=bottom;labelBackgroundColor=none;verticalAlign=top;aspect=fixed;imageAspect=0;image=data:image/png,iVBORw0KGgoAAAANSUhEUgAAAgAAAAG2CAYAAAAJAz4PAAAABGdBTUEAALGPC/xhBQAAACBjSFJNAAB6JgAAgIQAAPoAAACA6AAAdTAAAOpgAAA6mAAAF3CculE8AAAAB3RJTUUH5gwGBQ84RQOGWAAAAAZiS0dEAAAAAAAA+UO7fwAAWklJREFUeNrsnXmYHVW19juddBJIIITMoZPUqbVkvCLoBUEmL4p8V0FRFBQRwRFFxQFFcEBRVBBpSM5alYYggoKC84AoKnhxABlEFFQEERAEyX53dWee+/ujDwrYSbr7DF3n9Pt7nvcP8xhSZ1fttd49rrY2Qghpa2vTLM4Xx3niuE8dG9XRVwCtEw/3iodPqmEu3xIhhBBSQzqzMFYsfEgdywqS+J+p5eo4KbF8LN8WIYQQUiMSxw7q6C5o8u9TR584zk0dO/BtEUIIITUiLcfZ6vhykQ2AOlwNM/m2CCGEkBpRKudzxPGVQhsAw2It0wAQQgghNACEEEIIoQEghBBCCA0AIYQQQmgACCGEEEIDQAghhNAA0AAQQgghNAA0AIQQQggNAA0AIYQQQgNAA0AIIYTQANAAEEIIITQANACEEEIIDQANACGEEEIDQANACCGE0ADQABBCCCE0ADQAhBBCCA0ADQAhhBBCA0ADQAghhNAAEEIIIYQGgBBCCCE0AIQQQgihASCEEEIIDQAhhBBCaAAIIYQQGgAaAEIIIYQGgAaAEEIIoQGgASCEEEJoAGgACCGEEBoAGgBCCCGkaUgtzlTH5UU2AOIolwzT+bYIIYSQGiHWu606vqCO9QU1AOvVcKaU4yS+LUIIIaSWJsDDy9TDHQU0AevU8WuxeHDnBX1j+KYIIYSQGqJlbKsWXiSOM9RxoXpcWAB1icfTxeNB6eKebfiWCCGEkDox33smquc7apZPK4CmpuVlE/hWCCGEEEIIIYQQQgghhBBCCCGEEEIIIYQQQgghhBBCCCGkEIjhRephiTh+qo5fFEFi4Tti+EiaxalbevbOJb3j0izuKxYuVMf1xXl+XCsePiZZT2lLz6/dPduL44RKTYCbCvL8N4qHK8TDMVrGduwhhBDSgugizFbH0srNb5sKdBPdBnWsFMMnt2JeVBw/VMeagj3/RnWsUAtLOsu92w5oXrLQJhbeoo6HC3YT4KbK8zysjqMSy9lRCCGk1UizeEIlWRW1Gt29m3v2WVf0tanjEHWsKnBBndvEwz4DPf98D9uJwwteDOjTJYvbs6cQQkirzQBYOK3QBsAROy/oax/o2edesrZdsviyQpfTddyjjsMGNF8WZ6njywV/fhcPM9hTCCGkxRDH6U1gAAa8ljbpytvF8PKCJ9A/iseXDPT8pXI+p7L231fgGZjFWsZM9hRCCKEBoAGgASCEEEIDQANAA0AIIYQGgAaABoAQQggNAA0ADQAhhBAaABoAGgDyFNTDrpKFaWwJQggNAA0ADcAoIXXsrB5uUw9damF/9XwSW4UQQgNAA0AD0MKUFuc7iOPySt9bp4471XGmGHYvlfNxbCFCCA0ADQANQCv2O8M71IFntHePOm4UiydLecs1MAghhAaABoAGoMlQDy9Qx61b6HePi4cflMr5rmwtQggNAA0ADUArJP8yZqnjS4Mo/rRBHX9Rx4mlS1ZPUMcYth4hhAaABoAGoBmTv2GCeHi3OnqH8A5WiYevqmNvNYxnKxJCaABoAGgAmoh0UWxXw8HquGuY7+JmNbxSsnxSclkfG5QQQgNAA0AD0BT9zMI0cVxS5fu4TxynivduxxYlhNAA0ADQABR99O+xXRzHqiOvwTsJ4jintDhniWZCCA0ADQANQJGZv2TV9uq4o4bvZZkaXAxz2bqEEBoAGgAagIKiGd5a2dVfy3ezQi0s0SzvZAsTQmgAaABoAApGujBOUw9/qdP7WSsWrkjLIS2Vcx4TJITQANAA0AAUgc4lve3q+LA6VtbxHW0Qx2WpRS15bGerE0JoAGgAaABGmFKWp2rhNnVsqvN7Wi+OSyXDPLY6IYQGgAaABmDk+9a71REa9K7WieOi+d4zgS1PCKEBoAGgARgh0gxzxfHtOmz+25JWiuM9bH1CCA0ADQANwEj1KwuvU8fDI/DO/qaOY/gGCCE0ADQANAANJimHaeLIRqhfbVTHrWrYt+SRL4MQQgNAA0AD0Lg+FQ5Wx+9H+N39MPUoaXfk8UBCCA0ADQANQL1JM4wXxzvVsW6E390qcZyrjh35VgghNAA0ADQA9R/9zxfH1wvy/h4Ux2tKi1lGmBBCA0ADQANQN6ZfunRM6uEAdTxeoHf4M7FcOi9gCWFCCA0ADQANQF0oZZgoGT5QsHe4Vgxni0XeD0AI+Q8D8KGiG4AFlwxsANIstqvjyIIbgHvEBjYAqcXZ6vhykZ9fHFlqNACDQQ3T1PCzIvYhKce9+IYIIU9PQo43FNkAiOO+5LKBpy/T7tgmFg4RC6sLnERvSz3uM6D5st7t1eENuCp2uNqkhk9rGduzpwymL/Xs1uCLf4ag8MPUQgffEiHk36OWMuap44GCmoDl4uHsLc5gGJ4lhmvVsbaAz79SHZeki3t32PwMTDhRHQ8VsP03quMBMbyi84I+FpkZzGyahfcW2IiuSi0cx7dECHlmEn2JWviqOn6ijhsKomvF8KnE86lbNDALl48Tw/7i6FbHjwv0/Neph/MkC7IVAzZFLZysjm+o42cFefafquMa8XhCurhnO/aQQfYjx/cKbAA2ieOXqWEO3xQh5Gkklo9PPZ+nWZ6OtFKPpSTrnbage+XYwT5/ZxYmJB7nSpaXivAbSovz2UNp//nes716nhTh2TXLF6TlZUz8Q2D6pUs71PGPgu9HieLhfXxbhBBCSM0MdNhFHesLbgA2quN69S3PShFCCCFkkKiH44q7AfBpCuLhFL4xQgghpAaIhwsKfpz23yc7HN9Rh/KtEUIIIdWM/hcub1fHrU2Q/J/U4+I4Zr73sFAQIYQQMlzScs8sdfy1iQxAnzg+n3jcgW+PkBpRyvLt1fM5muVzR1qyOM5MusOgr/9MLO9IPZ9ZhGdPPc5Jst4pC7pXDvr8eWcWxicep0tWjPYvLc6HVIVtvvdMUs9nF+HZNctnpeVl2w722SVbPkay3smSxcI8f6m8fNvOC/oaMsIVw/PV8UgzGQB1/EYcezJqE1LtFKDns8VxijoWq+NKdVxVAF2uji+I4cjUMWkrAewIdXyh8neK8OxXqqNbHKen1jtny8knjhcLB4jjHHFcVqD2XyIePqQWd9/i83ucIR5OEMdC7a8LUIRn/7I6LlTHa7W85XKynVmYLB7eUbnRsEDPH8viOCH1sE3dDYDjGHU80WQGYJU4XpuUwzhGcEKqMgA4rWAVwP517Ecs/DF17N25pHfA0ZCWezrV8eeCBqnlavjYVsyLiOF7Bb0JcIU6yroYU7aQPI4v6E2MG9Vxv1g8cm735m8CTD28tsDn3x9JDYfWfwYgfFAdvU1mAPrEgqcWuAxAyHCZ271sG3VcW+j73DO8RTMM6PTVcEzBdy/ftRXzdbA6VhX4+W9JfeBCLGK9k9RxUYHbf6MaztJynLzZ9jdcXuTz76mHzzZgAHB+wb/Bze0DuFsc8xjFCRmu+8/iHHXcVPDOfrY6JmxmBHpawQ0ANlfLPF0c29VxRBNUAzxswOe3OEsdVxQ8SXjJMGMLMzA3FNj89omHqxuwBHBFE1wCtDmDd4guAgM5IcOh5HEndfyi4EH8HNm8ATi96OWAOy8YuBxw0pW3i+HlBQ+yfxQfuBxwqZzPkf518+I+v2GxljdfDlgcPy+yAVAL36xn/+9c0tveX/eh6ZJ/pX3i+WqRxZ4IoQGgAaABoAEYkgG4OJ9cKZ7UlAZAHH8Qx1hGckJoAGgAaABoAIbAPI87quPGpp0BcKzXxZjOSE4IDQANAA0ADcAQWLAYM9Xxf01sAPrEw4sYyQmhAaABoAGgARhK/8/i3KL3/0GclDidkZwQGgAaABoAGoAh9f/eWU1wCmhr7/jrA+5vWNI7Zv7FvTum5Z6d1eP+ksUjxfBBcVygji+qhys3J/FwmRguVMcn1cN7UotHaxl7lS5ZMYVZg9AA0ADQANAANL0BSLvzqU2+B6BPPDwoHp+vhhPE8Sl1fEMMd6ljXSU2bKy842dqSxUHB9JGdaxXC4+r45fquCx1nCoZnieOOamHHRKPEzZ3aRkhNAA0ADQANADFmQG4ZHlTnwIoUIz6sziuEMe7xPFCMeyaWtgxtUAzQGgAaABoAGgAijgDEDvU8WMm8dr2+crGyi+Ih6PEwvzOC/p4VwGhAaABoAGgASiOAWhra2tTx7cK3oeaWY+q42rxcJoYDhLLt2fWITQANAA0ADQAhTAAYqG7oMWoWkWb1LFMHXeq4UtiODz1MJ7Zh9AA0ADQANAAjPAMQPh0pfIjk3X9tU4dD4qhSxfyAiNCA0ADQANAAzCSMwAe3qWOnMm5oVqrjofUwrvFMTH1wD0ChAaABoAGgAag4TMAh6vjMSblEdFKcXxTHAepxYnMSIQGgAaABoAGoGEGILE8VcffmIxHVHeq4TixMIlZidAA0ADQANAANMQAdC7pnaCOO5mER1x/FcP7ShZ5UoDQANAA0ADQANTfALS1tbWJ4SuFbofRo6VqOIeZidAA0ADQANAANMQAqMV3qGMDE3Ah4t33mJkIDQANAA0ADUBjDEAZ/6WO9UzARVB8CzMToQGgAaABoAFolAEYo4aHmXxH/H1HtcD7AQgNAA0ADQANQGMMQP8yQOhmEh7xWPdFMfAkAKEBoAGgAaABaJwBEI9HMAmPqNaox6M1y8cyMxEaABoAGgAagMYZAMs71fEQE/GI6VY1PItZidAA0ADQANAANHgGANuL42Im4hHRBnF8pJRhMrMSoQGgAaABoAFoqAFIPbar4aXqWMWE3HDdJYaD5nYvG8OsRGgAaABoAGgAGmoA2tra2tRDqo7rmJAbWyGwP8b1cvMfoQGgAaABoAEYGQOQdsfx6nhn/4Y0JucGaJM6fiUe92U2IjQANAA0ADQAI2YA+tskPLfoMaGFlKvjTF2IDmYjQgNAA0ADQAMwogZAF2MbdZypjl4m6Ppu/FPHz9SRMhOREUEyzGkCA/CpdDMGQC18sAkMwIDneucuXN0uVviz1/eo47ABp4stzlbHlwv+/C4eZmw22RluKLYBwDUjEhcce6vj10zS9Y0N4vFYZiEyYixYsmKyOn5abAMQTxWLHZsJVCcV2gAY/rq5tp9hfW3i8X/UsbrA7X+7eNhvwG/Hw/biWFxw8/jZkscpm010Fr5e5CI44iiPRFzQxRgvHs5QR2SirltcO1/LPdz4R0aOWVf0jRHDJ9WxoqAd5XF17COWjxl4BqN3vhR4qlI8nLfFQOthF+2fhi7i868XD1dJhgETaGcW2sXCKeoIBX3+f6rjmMTy9s1uenOcWNRjb2JhbWoDz740grSM2WL4hbJMcD3e7e/E447MQGTk9wFcsmZi6jhVDLep45GC6H6x8P3U4mElW9ax+SWM5WNKi8N+4rhWHPcX5fnFwm/F8XFxbLsVAzBGDM8RC19Ux73FeX7crY7zdXE+O+2Om33+ORcv3SY1nCSOG9TxcEGe/0HxcL1k4bXzL+6ZuMUk57E9zeKb1HBLgb79v6mHG1PHUYnl40cqLiRdeVua4fACG7wmLfiDB0oW95pX7mXyIYQQUjxSxxTx8Gw1/JGJu2Z6Qi0eq+Ue7vonhBBSHBZ0r2xPs3y2WnixOD4l/ZtANzJx10Q94vhEyql/QgghRUKyfGd1vEUdl6vjPnWsZ9KumVaoh0vVQ4lfGiGEkBFlhvWNFc9FDK8Vw4Xav4/jcSbrmmutOr4jHnfjV0cIIWRkRvmGMWJIxXGyOr6mjrsqGw959W99tFEs/F/qcY+53X0s9EMIIaT26EKMEY/tqcWx4nGcehivZWyXGvYUD28WD5n2n/R5Qh3LOcVf/3v+xfD7pBx0pzKr/JEqmO897SWPEzSL22qWT6IoavRJsp5J4piqhhlqmCGGOWJI1LGLGvZTx2vE4vvEcZF6uIFH+EZu2l8MN4r37MTsRYY5XZdPEcNuYuFF6jha+qt0na4ez6AoalTqTHW4Oq5Uw1fFcJ0Y7lHHMibdwqhXHdeUMsj0S5dy5E+GPJU3Xhz7qOPsyjW9YKeiKIoqvB4Vx/niWMBMRoZMmsUZ4ni79BfoWc0ORVEU1Qyb/fBncbxTPMxkJiNDYob1jUm8pySObnX8g/dvUxRFNc1mv2vTMl5YKucs7kOGsd7v2E4cXy9qYRKKoijqP+71XyUePieGuUnX5otOEbKlHf5jxfEJXrlJURRV/BG/Olaq48bUwv+ULExgFiPDX/f3+Hyu91MURRVea9TxB7VwumaYwexFqpz679lOHd/k6J+iKKq4m/zUcbd4MLF40NzuvrHMXqQGBiAeUqmjzk5GURRVvMR/rzhMHS+RbPk2zFqkZqjjo7zEg6IoqlBarY5bxHGWWDyslPXuuKB7JRMWqbkB+Bqn/ymKokZe4mG1GL4tjteLY9fU43YzjEV8SB0oXbJisjquY8ejKIoaken9DepYLoafa38NhVQMO6QWO5ihSH13/5fjXHXcyI5IURRV96N7a7W/ONJD6viDOr6ohjeJYT6zEWm8Ach6OtXxc3ZOiqKommpF5UbVP6rjZnVcJ46LU8NJ4thTHZzWJyNLksU56riBnZWiKGqzelgd31PHt7agq9VxhTiWaP+O/Y+rhxPVw/+kHnXBoh5e0UsKtgfA8hnaX+2PnZyiKGpgna1ZXtIsn7cZdZayMHNBFqbM9aXbTL90Ka/kJc2wB6BnR3Vczw5OURQ1oB5Vx/N1MafsSYsxf1GYoo4fs5NTFEUNqMvFwixmC9JyyMJlPAZIURQ1sJar4ZVigaN/0oJ7ALp7J6rjWnZ0iqKoZ17Kgx+mjl2ZKUhLMre7b1xldys7PEVR1L+1Sh0f1u6eicwUpGVRx3fY2SmKop6m36UWXsgMQVrbAFj4euWWKnZ6iqIox3rxcGnJMIUZgrS4AcCX1LGenZ6iKAp96vi7WDiO2YG0PGIoq2MNOz1FURT61HHTgu58R2YH0voGwPGZyr3V7PgURY129ajj7cwMZLQYgDPV0cuOT1EUhbsWWJjJzEBGxx4AD+9RR2THpyiKCmcxK5BRNAMQTlLHUnZ8iqJGuXpTCwmzAhlNmwBfo47H2fkpihrVMlzJjEBG2x6A/9X+ilcMABRFjdJrf8O61HEIMwIZZXsA8n3U8SCDAEVRo9YAGL4mhmnMCGSUzQD0LFDHXxgEKIoapVomnh+xoHvlWGYEMqpIbMUkddzDIEBR1CjV18Qwj9mAjNJlANzMegAURY1CLRXHCaVyPo6ZgIxWA/BNdWxkMKAoapTpe2JQZgEymg3AInVsYDCgKGoUCeI4Vcvg6J+M4o2AhjPVsY4BgaKoUaSbUo+7MgOQUW4A4gnqWMuAQFHUKFEujg8x+pNRT+rxUHWsZlCgKGoUaJM6bkk9lBj9CQ1A1jNfHSsZGCiKGgVarY7TGPkJaWtr04XoUMc/GRgoihoFukssn83IT8iTJsDwGwYGiqJa/95/vJURn5CnbgR0fIXBgaKo1r7zP/wh9TCdEZ+QpxmA+FEGCIqiWlgbxMMbS1ngnf+EPG0JwOOrGSAoimph3aCG+Yz2hDyDdHHYkwGCoqgWVa843lTKwgRGe0L+YwYAM9TRw0BBUVQL6jvqvPOfkM0YgLCDOm5hoKAoqsX0qBpOEOvtYKQnZKBNgIZJ6ljCYEFRVAtpo3i4Sgw890/IZg1Alo8Xj+9jwKAoqoX0gHp41XzvGcMoT8hmSLryMWI4VFkWmKKo1tAatbBYPTDAEzKIZYA9xfB3Bg6KolpA96rHvRnZCRmcAUjFcAMDB0VRzb72r45PMaoTMlgD4JgpjosZPCiKanL9ST2fw6hOyCApec824vGDDB4URTW1LJzEiE7IUDYC2oox6jhaHb0MIhRFNam+q4aZjOiEDBE17KeOOxhEKIpqvpE/HlPDgeKBx/4IGbIByPJ56riSwYSiqCbTavV4pmb5dozkhAyDtDtOUMfZvA+Aoqgm0iY1/EQMz2YUJ6SqZYBwojr+yaBCUVSz3PcvhjcntoL3/RNSDeI4UB23M6hQFNUEWiuOL4uFWYzehFRJ4nGOOr7LwEJRVBPoPvF4ECM3ITVgvve0q+MidaxlcKEoqsBaJR7PEu/h1D8hNdsH4OG16qwLQFFUcSWOn5UuXT+BEZuQGpKWY8r7ACiKKrAeF8OejNaE1GUWAFerYz0DDUVRRZv6V8dpanEsIzUh9VkGeDuvBaYoqoC6RrJ8bnJZHwM1IfWgVA67qOMxBhuKogqku8VxqHgPR/+E1It5i5aOEw83MuBQFFUQLVcPp4mFbRihCan3MoCB5YEpiiqCNqrjavG8k5GZkAaQWL6zOtYw+FAUNcLJ/3YxXvhDSMMQQ7sYbmIAoihqRI/8eTiZEZmQhi4BxDFq8R0MQBRFjZDWq+GznVnYlhGZkMbOALSpYXd1PMpARFHUCOhHmuUs9EPICJmAaWr4MgMRRVEN1oPi2IdRmJARomRxnDjewGBEUVTDZFgpHt+QZiz0Q8iIMd972sSwpzpuZWCiKKoBWqMeP65Zvn3pkhUMwoSM6DJAFqaq4/Pq2MDgRFFUHbVWHVeKh5SRl5DC7AUIr1DHwwxQFEXVbce/4xfi8cC2Pt7zT0iBDEBcoI5vMkhRFFUHbVLHn9Vw5Kwr+njPPyFFIrEV49TwPnVEBiuKomqs3tTim3QhxjPaElLMWYC91PEbBiuKomqreHqpnE9ilCWksAYgHysWjPUBKIqq1T3/4vGr6pHJn5Dim4BwsDoeYOCiKKpKbRAL1ydZ3KntGm76I6Tw6EJMEA/frVToYhCjKGp4Ff4Mt6phX12IMYyshDTLLIDj1epYxSBGUdQwd/z/Xi0elZaXcdMfIU01C7AYU9RxCwMZRVHDOe4njtepgxX+CGnSWYDXMZhRFDXEO/4fFYvHl8o5kz8hTTsLkGEaZwEoihqsxLFSPLw+LceJjKCENPcywFjN8Gp1rGNwoyhqK8l/uRiOFw/tjJ6EtIIJMMxTxw8Y4CiK2oL+KYZ3ifGWP0JaaRagQx1vUEfOIEdR1AD6hxhOEwvbM2IS0momwKHq+A4DHUVRz9Dj4jhLDDMZKQlp3VmAt6njnwx4FEVVFMVxrjjmMEoS0sKkWU+nOL7B2wEpilLHKvGwMM0wi9GRkBZnQffKMeLx5eq4n8GPokb3/f7q4fzSJdiurY/3+xMyepYDLHyeVwRT1Kg96vdE6vGDqUcGQ0JGG5LFBeq4ncGQokbd9b5/UceJ6uAlP4SMWhPg8Xh1rGdQpKhRUtLXcac4jlHn9b6EjPb9ANuKhx8yMFJUy2u9eviVGF6aWL4Nox8hpE0dB6pjKQMkRbXwyN/CjZJh/1I572DUI4T0LwMYthXHRxgkKaplN/z9NM1y6VzSy7v9CSH/puSxTS0m6vga7wagqJbSajVcVSrnOyaX8ZgfIWRzMwGOQ9RxV2WXMIMnRTW3lqrjPM0wjdGNELJF0u44US28h9cEU1RTa6MY/iqGD6YWmfwJIYOdBQhz1XGZOlYzkFJU02mdOH6VGl6XWmRFP0LIEGcCDM9TC7/jUgBFNdFGP8NGdVyeenj+3O5l3OlPCBk6871nrHg8Rh0rGFgpqhmSf1gmhjM1w068058QUt1SQNYzXgwf5SwARRX+Wt/7U49HlzxOYuQihNTGBDgmiKNbHWsZaCmqcIl/mRiuFsMebZ/gqJ8QUnsTsJM4vqeOdQy6FFWY5P+gOj6ZWpzJKEUIqQvzvaddLO6jhp/zkiCKKkTy/7UY3lC6ZAXv8yeE1Je0vKxDLb6sckkQgzBFjYx6xHGZGF7Q9om+MYxMhJDGLAVYvo0YTlTHQwzEFNXYi33Uw23ieGua5XPTxT1M/oSQRpsATJIsvlUdgUGZoho26ndxPCfxOLGtm5v9CCEjtRyQxXFphteoo5fBmaLqpjXiuFUNLxXHhHRxL0f9hJCiGAEcr45/MFBTVE21Xh0PiuM8yZZPYaQhhBTRAEwQx0nquJ9Bm6JqVr3vO6nh8JKBV/kSQgpsAixOrpiAexm8KaqqAj53iOMDaZYvmHUFd/gTQpoA9bi9Ol6vjt/zngCKGuId/h6WiSMTwwGJ5TzXTwhpMhOQYRv18CJ13EYTQFGDqty3SRy/lCy+IvU4m1GEENK8JmAxxsrinl3Ewy8Z4Clqy9f4iuPd4ugsXbx8LKMHIaQlSC9ZNVk9fE0dyxnsKepfWquO+8XwGS3n8xgpCCGtORtgYapaOEcdj7KcMDXKtUEdD6jjS2kW9mv7RF87IwQhpKURD1PFwtvEcCvLCVOj9Dz/vWr4khiOmu89ExkVCCGjhvneMyG1cKA6LuWSADWaEr8YLlILRySLw9Tply7lsT5CyKidDZinjpPFwyNMEFTLyvA3MXwmNRySWpzWeQHP8xNCSJtm+UTJ4gHquJ7JgmoxPSKOc9Wwe2pxSls3Ez8hhDyNdPHyMeL5bHGcqY6HK9OlTCBUE5bnxQpx3C6Gd4ljnlickFpkJyeEkEEsC+yhjm51/I2XB1FNdJTvITF8N3W8ct6ipZPYkwkhZBjM954J4vEIdXxDHdwfQBX14p5cHbeLhUvUw//rvKCPhXoIIaQWJFk+VRwniuOb6vgnkw5VkPP7D6rjGnG8Xwz7Jkswsa2vjx2WEEJqyQILY1MPiTjeqIavqgNMQtQIHeP7rTg+LR6OSB3zO5f08rpeQgipN+mi2CGGeWrxcDEYjQDVIC0Vw7fFcaJ62KtUzrdnbySEkBFAFy5vF8MUdewsHj4nFh5ikqJqXJFvrTh+IhlOFst3F8P01NGRdnM3PyGEjDjioU08tJWyMDX1cLw6fq6Ox9WxkkmMGuKafq84HlUPP1IPp0jWO1McYyRDW2Ir2NkIIaTIzPeeiep4gVj4tDp+XdmotZoJjtrMsb1H1XGHOr4ljlOTLN9jbvcy7uInhJBmZd6ipW1JOcxSx9HqOF8dP66YAV4uNLq1Sh33quNH4lgoHt6YZnHXzgv6xrHXEEJIi5F2x/HiUcXD0er4hDquq4z8mBBHh3rUcbM6LhXHB8TxMnFIySNH+oQQMorMwET1sJsaDheP7xLHZeLhbnWsYaJsGa1TD/ep4xrJ8GF1HCWG52oZs+d7D0f6hBAympl1RV/bgsXLJqSOWeJhF8nwYnV8RBw/VwssTdx0lfbCMvFwk3g4Ww0vEw+7i4e56WJsm3ZHFt8hhBCy2ZmBdjVMEMd26pinHl9dqdn+G3WEyqmCtZXd4puYdBt+3e6GSvuvqkzp3y2Gy8Xie1KLB6QeZomH7cTDBC2jnV80IYSQqpFs+fZazg8WCx8SD1dW1pP/VNlU+IQ6VrBgUU0r6a2qmK6H1fFndfxGHF8VC2emFv53waKe2fwqCSGENJzOJb0dkuXz1eIhauFE9XCOWrhaHTeq4/eVDYY8eji4ZB/V8YA6fquOG9TDNer4ghjeIVk4LF3ck3Yu6Z3Ar44QQkghSRf3dqSeL0gdh4jhjerhY+ooq+MqcVyrjl+p4251/F0dy0dRgl9e+c13V+5luE4dV4vjYrVwnjreoxaOFo/7pR47S+V8PL8mQgghTU1iy7cpZWF2athZDPuIhxep4xXqOEEdp6jHT4kjE8c16rheHbeo4R7pT5h5ge8s2FTZE/FPddyvjt+p45fab3SuVMdCcZyljneJ4wQxHCWOQ8WxT2rYteRhpwW2dPtpX1jGtXpCCCGjbMagvGxMWu6ZnFqYKYYF4nFnMTxbDc8TDy8QxwvVwmHi8ZXi8U3q8f3qOLuSXC9Tw5efoSvF8H01/EwNN6vjTvXw+2fod5Vb734jHn6tjpvEcIMarlfDdeL4vjq+LY5viOOrarhcHKaOz4jH09VxsmTxteo4XC0cKo6DxMPz1bC3OPYQjypZ6BQP00qeT1rQvZIJnhBCCBkOC7pXtqdZz3j1fBvJwmR1TBGPO6ph2jMlFmeKYbYY5qqHzoGFndTDXPEwVx1z+v//YZYaZqUeZqpjhjimpx6mqWFHcewgFrdLLW4rZUxY0L2CpW8JIYQQQgghhBBCCCGEEEIIIYQQQgghhBBCCCGEEEIIIYQQQgghhBBCCCGEEEIIIYQQQgghhBBCCCGEEEIIIYQQQgghhBBCCCGEEEIIIYQQQgghhBBCCCGEEEIIIYQQQgghhBBCCCGEEEIIIYQQQgghhBBCCCGEEEIIIYQQQgghhBBCCCGEEEIIIYQQQgghhBBCCCGEEEIIIYQQQgghhBBCCCkaSVfepo52cXSoY4J6vp96vn8pizuJYbw4xmqWj2FLkVHfV7K8LbX+vpIujFPV8+er5y8oLYw7iqNDDe1JV86GIoQUH7EwLi1jnjreIo6b1bFWHX0VrRfDfer4nDr2TsuYwOBGRiupYWzqKInj/eK4Qx2rn9JX1orjdjWckpYxTyyMY4sRQoob0BxjxXGAGH7wjMQ/kP4shhNKF8UJbDky+owy2sXwP+L40Vb6yVox/EAMLxFDB1uOEFLMoOZhL3H8fCsB7al6XA0nsOXIKDTLz1XHXUPoK/eIhf3ZcoSQwpF05RPFcdUQAtqTuj917M0WJKOmr2T59uL43lD7ihiuTbJ8CluQEFK0Ec1h6lg2DAOwTgxL2IJktCCOE9SxfBh9ZY043sYWJIQUK6hZOE8dG4cR1PrU8TvN8pStSEZHX8G31bFhGP1kkzi+zxYkhBQKdfxhmMm/Tx0Pq+GVbEXS8v0ky3epsq/8NTGaZUJIsQzAH6sIan9Xw9FsRTIKDMBu6ri7ir7ykGb5nmxJQggNACE0AIQQQgNACA0AIYTQABBCA0AIITQAhNAAEEIIDQAhNACEEEIDQAgNACGE0AAQQgNACCE0AITQABBCCA0AITQAhBBCA0AIDQAhhAaABoAQGgBCCA0ADQAhNACEEBoAGgBCA0ADQAihAaABIDQANACEEBoAQmgAaAAIITQAhNAA0AAQQmgACKEBoAEghNAAEEIDQAghNACE0AAQQggNACE0AIQQQgNACA0AIYTQABBCA0AIITQAhNAAEEIIDQAhNACEEEIDQAgNACGE0AAQQgNACCE0AITQABBCaABoAAihASCENIzE8k71fOcnJRafL+X43+r5Lk/581k0ADVu9658rFg+66ltr+X8uanhBU/9s1KWz0qyfAy/1Jp/93Of1vZZPEA9Pvdf/cBzTSyfRgNQoHeW5ZPE8yQ1HKye75xYPrP5B0D57Kd9h/3f3vwky7dp4b43Rz3fRcv5s8XzNLF8uxFo9/RfbW757mLxBeLxOUXt/7Vo9I6Sxb3E8Hr18FFxLFHHdeq4WR23P0V3q+P3z/izX6njJ+phiXj4lGY4Xj1/Fg3AoJP9BC3n/6UZjhUPn1APmTp+WmnXp7bzXeq4Z4C2/7EaTD18VDO8KnXsnmT5eKbxrVO6KJ+iHvdXx9vUwyfUcU3/t/wf3/09lfZ/8n/fpo5fqONa9dAthjNTw2vU811oABqLeJghjveI41p1/KYSM25Xx01iWKiOfZOufFyBY+/01HGAZnjdU/r/Typ6Zgy4XR23qONGdfxEHF9TD+ep422a4Uj1fHbzzmJhf3EsrPSr29VxpzpuFccPNMNpUo6dSVdtBzvqeYd63F8zvFM9fOYp/f/Wp7T3byv9/3cD9P+fiOMb6mGhZniTeDhUPS81i2OeqhmOEw9lMfxeHf9QB9SxXB1r1bFpiEFkrTpWqiOq4+/quFMNF4vHlyWWT6IBeMrvKueT1eJr1FCufFCPVtp+hTrWDPF3bqr8neXqCOp4RBy/EcNFqeHYJMunM9U/LeDOlgzHqYdL1fGAOh5TR15p+w3DaPu1T217ddwhHs4tWTy0UaOX0WgANMvbNYsvF8cd6uhVx8YBftcadTwoHt+vWb59Qb6/9pLF56WG94nh2+r4izoeH2b/X6+OVZXvd6k6HlLDL9RxnpbzlzVJf5ySOt6vjvvVsXqAvLNRHcvE8KeSxefWrP8bvqaOv1b6f08ld20YRt/ZUHnuXB3/VMffxPA9MZySlqFJVz62IB0mbiuOUuo4RgxfrzxwXyMkhhViuDa1+BI1zBILEwfj5lrBACRd+Rh1bCOOOWrxNWL4qhiWN6rt1RHEw6VieIWUMT/1ODHJ8lGT8MXDZDGoeHxrZWalYW0v/abg66nHF6qHmVrOJ9AAVP1bO9JyFHXYEGOQp4ZpI/D9dahhunjcOzW8Xxz3NTDuPiaGbrX4v+KYKYYJSVcx+n7SlbeVynFqavjUEEzPCvHwqsQGP6OTWD5BHJ3ieH2j+39/DAi/1iwepx5m6kjMzIqHHdXDnurxDG3gx7dZx2q4WRzvE8M+Yth+S0agmQ1A0pW3icVJYthbHR+S/qmkdSPc/r8Tx3vE8F9FGRHVi9QwTQz7qeOzanh4xL97x41q8e3i2EM8bEsDMOT+1C4W5qjjddI/a7ZxiMlwlTje3sC4O1Y8lMTxWnV8Xx3LRvD7W6WOm9TxTjHsXfK47Yj3zzI6xPDGyuh50DNuYrg7dew/iD4xST3sIR7fVllKGen+/zP1eKxm2LFRTnmSOA5Sx7nq4c5hTOnXu0F+L4az1XGwZhjXSgYg6co71HGwOs6qrBetK1Db96nj1/3PFp6fZPUZlY7giH+KOF4ojvPF8GjBvvs16rhZHKeJx901q830YKsbAPEwUQwHiGFJZap8uL/zL5rVf3OgeEjE8UZ1fLfRI85B6C5xnCmGfUZyM2HqsbOyn2yoz79aHVli+bab6/9qOEgdH67sl9hQoLZ/VB1nq4U06crb67W2PzZ17KqOj1Y2Lqwv2Af4VK1Tx2/F8WHN8s5WMADiYb443lfZxNJXYK2tdJD3iqNUtw+ycWuJY1OLz+k3vPhDAU3XM0dkP1YP706yfAoNwBYSxSJMFQ/vrXyr1cayjeLxTfVcz1YPr1DH1yrrykX9/jao41di+EBqSEbGAOCYKp7/ttSwzxb6/51DnFlopHrVwyXqYV49pj3HpobjxPCTgn+Az9RydXxbDEckXf9eJ2kmA5Bk+bbq4VXq+E6Vo5RGa6k4viuOV4qHiU2Z/LvybdTxjsru/ZVN1PZBDEtSw740AAPGs4Olf7PWEzVq703q4ZI6fH9j1bCXOhZVNrNtaIJvb1Nl4+C31eMrNcsnN3aghIXVjaTDCU/vAzixifr/MjV8VA2TavkRbqseLqjs5t/YREHwqcsCD4jh7Cen6ZrFAIiF2ZXljL8VfMZlS23/dzGcn1zY+HO3VY66OsVxeQ2TxEgsC/xWPbwtGWYQbjUDkGT5FPXwgUr/r3V/urPG39+E1OPRlX0JK5vw+1unjkc0wzmaYUqj3rF6uK6KZ45qeHflW5lWOcL3WDO1uxgeThfFXWuw/odxmsW9xPCzYRwhK2pA/JZmeLY6/lxkA1Aq5+OkjOeK4Yct0vZr1fCDksU9xEJxz0535W1SRkdqeIn2HwNb3+TtvkkdPWLIxEOqGdpHmwFIsrxNHB2pYT+xf62d13z/hjhur9E3OEY8TBHDZyvH9zY1f9wNN6QL40612puyFQPw0yr7y/mp4XAx3FTg6f4tb2j08NYqR56YrI7jK2dJ+1pL4S9Vvti6GoDE8gmpxWPU8LcWa/uNYrhHLByTGrYtYPIfI4vidDGcqo4HW++7x0/UsV9pYewYLQZAM4yRDCVxfEC9ric2NqmHy2rwDbbLori7VDeKLerI9CH1eJRYmFRgA9BXGfE/0dTtbfBhB8G0jB3FcUpl2rmPapwBSCzfNrV4nFiTf4Bb2TEthreLNejYyuDafUxqsVMNH69cONWqbX+7lPHi0WAAEssnq+HF6vhRQ8yt4/1VPu/E1HCgGv6vSdb6h6NH1HGKZpheYAPQ/GbL8d1h7oyNO2r/mvMjTPSNNQBiYZY43i2Oh1pg2m+rgUAMp4thhyIYgJLFTjFc3OLJ/0ndLM/Y6dxqBkAz7Cz9p5UaNYjpEQ/PqiL5b5NafJX0H+1d3+p9Xx1niWEuDUDdZgC+OpzR/0Q1fL7Jdvm3hAEQCzMrZ/v/OYra8R/q4bNa48trhhF8Z4nhiwU/3lfro1rfHkzRkWYzAJrlU6T/GNj3KuvnjRpxdVW55HeUGO5s0k3WwzshZDhXDDNoAOqiDw8n+Z8zwrdKjUoDIB6mqONDTb/uNMyzq2I4YwTX/SeKYXGTbvapap1THMe2igFIuvIxUoao4wvaP4PWyCn0q9VjMszkPy61+FIx/GEUJf9/7bgXw/lS4/1Ao90AiGO1GA4e6qa/N1cKRzDBN9AAJJZ3pBaPFWuuoyZ1CATvHYHkP0ENHxsl0/7/cURLDBe3igHQLB5eKd7TyONyy8TwudQwXywM67Kr1OPzxPDAKFjy2/wd/IbP0wDUVN8c9MxK6hgvhndUzvg38nzo6spSQ6xMez/+FPVUqnCtKuh6WE0MQNKVt1c2/DXySs/1lSDZO0DbP1H5s5Fo+8dTx+vFQ0cjkn+6MG6nhk82eLnryQprPZULnR5/hp5s+9UNGsH+oLRwy/cDFNkAiIfx6aKYquPzDRzxb6r0n5+p4cDU4pjEhlcERxbFVK2q48jV9v+eAbRCh1extapjgqnjFPEwoYUNwJPVPVdof7G8MED/z6vs/5vU8ScxHJRcOIjbVxPLx4njpZXrTev945dXbrK6RR1XqIfz1XCiGo4Wx76a5Xv9S/1//g6x8Ln+6TXcXjmWtaqVDEBq2FsaM+2/UvvL094ijqvUw6fV8A5xHKtZ/t9Ptrs4XqCG14jhZPVwbuWmtFsrf7cR66n3iOPwpM5nhcXCBDG8rvK76rozvBJU76t8918RC+dUvu9XPu2bz/K9UsfRajhZLJyvjm9VvvuHK4GjHs/3f5rl0mwGIOnKx/RvmA3HV8qNN3Lq/C/q+GRi+awqj1nvpP3nzBux3+OJysVHNz21/1e+w6fLw5nqyConJ+7U/vLrjVgee0wMxyZWff2QAhmADZVEf484fqoeFovjDDWckDr+95n9Xw0nPKP/Pxl7BzOrtUEcf009vimxQdRhSLryManF3aS/mlQ9E/996viOOM4Sx+FpGTOHeje8eCiJ4ZViOFcdP2vwbEVdDEDqSMTDj+r88T2ijh9qf9W6IzXL5w8p0GZ5e8ljp1g4QgyfUce1lYRUr4C7QQzXimGPOm74GyuG/bX+Vbz+pI6vV046HJaWMXso333SlXeIhVQcx4jjAu2vuFbrpYrrNctnNJMBEA/jxbCvGLxy3WzDlqnU8QM1HFGD3zBNHBfVeUCzQh2/F8fl4jhFLOw/1NoQmuW7ar9RvqASd5fWse9vFMNtYvGF1da5L4ABWKf9tXIuU8e7xeK+ieWThmhyO8TzTjEcIYZPV2LvXwe4FK7/2mXDj1PDcYkN8sZPtTBdHV5Hd/cXdVwkFo4UDzvVaIdvu2Zx10o1rC9WZgU2NpsBSCyfIo6uOgWADeL4qziWiOENqcekFiPqpCsfJ+WwQPt3WFtlZFCf2QrDBWKoeWW1pCtvS8txJ3F8vY7fxv3qcOl3+LNqlPTGiIfnqId3VkYGPTUyiFc00x6AUhZnqIf3qeOXDVye2iCO36uHD6eOeUm2+RLjgzTVE/tn2Oo2iOlRx/XqOF09HCoWqi7NnWR5R2rYTQxvU8eX6vjsa9RwlZQhTWoAnixA9xkx/E9SoxoIieVtJYvzxXCUGD6q/deT/6gysF4ohjepYY+kKx/cDatiYZxYeGOd1j+XiuMScRxeymJdzngnXXm7lDFbDC8VwzdH4KrcqgyAOE6qUyfaoIYlYjg0NcypVxU+zfLp6uFIdVyl9SlJ+k/1+AatcTlhMYwRw4frZHqhjqvEcWQpizsmWV777z7Lx4ojVcfbKjMCa6t63sqd581gAFLDC8RwpTa2GNZydXw1dbw4ddQkmKuHQypLO/W4iviO1HGiOHZPsn8XPqth3B0rFuaK4X/F6xZ3ozpOq6aA0AgZgL+L43NiOCBdFCcnXXlbXXKf5RNSw1w17CYWNLF86Dk2XRhnieHeOjjlO8XxBnHMTKz+JWCTrrxdLMxTjyeKNfQEw7ANgBqeU5lOq/HMRbhXHMepYVZbAxAP7WKYVzk98rs6XGRxsxrm1bjzSB2OWq4Xw43qOFIdczTL617nQLN8ojpE+5dlhmMCNonjDlkUdyq6AUiyfDv18C513NXIexrE8ZBYOFk97FSrPSniYYb2V6qr9Z6OXD1+RizsUY/EP8DyZVvqmF/p+/W4Kv5ecezXJAZghRguFceBYpiadFU3Q9TWgOAxVvpLS9bSga5Sx1WlLKapo2MEflNHWsbeYuH/GjQ1OCwDUMriZDGcVeOjSuvU8U017J5msaFFdp4snKNZ3LOyl2RNjQ3lp1PDuBoFrXHaP1tUy+9gtXq4LF0UZzeiyMkAZnKb1OLh0l8zYii7hpeJhVcPJliNhAFILG9LLXakhueK4ZrKzuhG7UpfIxa+my6K88VCzZJp6aI4TgyvqfFR6w2V0wgHiMeJmjUu+fQvp6FDPe4i/WvdtVzO3KiGy9UwYzgzaQ00AMvFcKZYmJRkBU/8/+7Q8bAaX/bTK44zi/DbUscscVxYCRiFMgCa5e3iOLyyRlyrDZZPiOMszbZ+o1sDAsI26ji/cpSlVsVDVqTl+F+1mClK+6fNa7nk9bg4Pl2Adh+TLsKuYuEblenxjVs5lfCYOM4ewnfbUAOgGdrEkYjhjAbfS7JKHPeIh5NqdRztKbMYbWLYWR2/qPEmvyvFwi4j/g1aPkMdn6i8r0016vurUo/HpB7bC2gANmr/DNExbc2E9k+nfaOGZ2bvF8fHxFGY8q5iYY46zqnzrXpDNwCOGeq4pIbJ/3FxnDGsNaC6moDwSa1h/WxxfCvJ8olVGcMyOiulPTfVqPP/QQzHi4WOAn33M8Xw7kohmX88YzZmbWWN8sdi4dihPHcjDUBi+SQ1HKj1PZk00Pv8uzoWi+E51e5AH3hgEjvE8e4aPvMT4rgwsXxGgfr+BHWcVtmpXqvf+ZtSFqcUzACsFsdNqcWDE2v8rF+VG1BwVA13bz8mjreKhW0K9zuzfEd1fLqOl7wMyQAklreL4+Aajmhi6jgjyfJJRWt7MYwXx5k1nIWBGPavbu0Vb66hKflj6nh5YvVfax1GEB6nhj3Vw0ni+GTltEamjk+p43gpY/5QN4Y2wgAkXflYdewujjO0seXH16njp2I4UbO8bpUpU487qeOeGj3zWnF8PLF8ehFzjDiO0xqWXRbHawpkADao43oxPLdeG6zrOU0zpXKEY22Nkv9HxTG9qL9XLMxVx5V12jg0JAOQOiZWznLX5N9PHacnlk8p5HfWlbeJxbniWFyjtl8rBk+6hpdwxcJO6rimRrNe96njzbU4WtWQd3FRPjHJ8qruWa+3AdAs3048vlodP6jTiZItHZc7Twx7Dfr41HDb0HBCDRNiuajJv62trU3KoUMMp9bwtMYvkywfUn+rkwHYKI5bUo8vTrK8o63ZEMeLq+zIT71VzlPDnCb4zaoefj3iBiCLWqsqf+K4ulTQ5P+UNc/21OOulaNCtWjvu1PHvlWMSB6tSb0Cx8fEwnZto4h6GYD+4j1xgTo+V7ntrJHXTt8ohqPqOep/6rKYGG6u0XN/KzWUhnv1cKMGAKnF6eL4bI0Gm7kajiyAAXhIDK+rxU2FI/FSOirr4utq4IJuTC3uXvjjDv9ypNhLrOYldoc6A/CO2myMCXeKhT1SRzPMOLWL4YDKFbjVj9Zs6BtNE8u3l/7qcBtrMFV8lTimtI0y6mUANMsPEcdvGlmyVx0Qx7li8VlqaMj6rVh4UY02Xd8ihv2GW3SowQOAMSWP8yqnA6ovWuX40ggbgJXiOKeIy92D/Qh3U8d1NWiIR9TwysSa5MhDW1ubej5WPb6hxkfUBm0AKvUW7qnByB9iOLJ0YRzbRN/dGLFwYo1G4D8sWZw3tH8f+2h/kqn6XHJiedo2CqmlARAPHemiOF88XFzpj4062rdSHb9Qw4vEMbZRI+gky9vFQrkGsxv/FMNrxdA0cTexvE0MB6njthq857uHdJKkxgZADD8uXZg358xfpXBGLTb/bRBDd1MaoP7jgV8bCQNQsviCGoxy1qjjArEwo+m+vyzfvnJ9bbVr8H8Vw6sG/87DOHG8oQajrzVqeF3bKKVGBuA5YmG6eDhWDHc08PruDf37NsJHkiyf2ui2K3kU9aqr/a1Rh2lW3HX/LeSe8WI4rQb7ASCO94+QAVgmHvZt2g6cljFZ+3cEV9sQD2uWl5rSBGX5OOk/AfF4ow2AGD5bg6WXO9RxYLN+g+I4olKYqLoLWhxnDXYNTgyz1HFpDdz/r5ILq9tIN8oNwGNi8S1iuLBW+2AGu2wkju+mjpeO3HcfTqzBb75LHAc1b98P8yqFbDZUtfRs+MpgrweusQG4TL15Zl4GCr5pjc7VntPMgUzKmCOOi2u0G3xQBqCy9+KnVU6BrVTHuZrlTbv5LOnKx0t/Mq52KvArqWFQhaXUsLMabq/2BIIaTtQy2kYrNTAAayqnJ9Y1cNR/l3o4M3WURvKGtsoRzGo2wq0Sx8Iky7dp6m/IcXylLG417/VX6nGvBhuAx9XjCzTLmzjxOfaR6uueP64ed23mj7C/bgBeXqNzxoMyAGJhZ/Wqay78ST38v2ZPJFLGXlL9UsgvxfG8wS174cAaLL38XMrorFdhj1FiABqpZWL4shheKBYmj3C7zVTHj6uddRWPL2qBb2iqVG/GH1QPg7oToHYGIFyqHqY2bcNXkt7Lqt2EUqkpPbnZP8TU4+zKmfAGGQAcW+UFNBvF8c2RDmY1+hbHSvUB8XHxrR8JUs871ONJNdh4+a7U44S2UUyzGABxPCIe3iwW5hbhkhY1HFwpYDTs2z7FcKNmrbH8lDo+WOXej3XqOKOBBqBXDEeIh7FN2+jiYVt1fKTqo3+Gl5UWxvamT0JZPqZSTxyNMADq4RNVbkKL4ji1VZJJ6vEVVS4DbBLHe5OtlAlWwyQ1LK7+0p/w/CQbvaP/JjEA68Tx7bQcU/FQmNsZ1cPbqlz/XyuGj2mGjlZQaVGcW4PTEJdqls9skAG4UQy7NnfnNexYqdlejbP+lVh4VqsENLGwd2VTXV0NQNKVj9HqL8K5V7NcW6ftMUcMD1bZJheoxx238o6niIVqC69cLBZmtY1ymsAAXFgpw1qwwRc+WmWFvPVi+LpmsFaRVH8d9/fFws4NMACbKtctT2rugOuYqY6fV2kAPHXMaJWA1l9fHD+ocjpqqwZAyvlUdfywyoI/P22lZCKOHaRKQ6qO76kh2UoA2LHKoiTrKzMN49tGOU1gAB5Tw+vFQmF2aieWj1fHRU2yb6KZdLMa9mmAAcjFW+Dor3ro7N88Ud06aBELn1Q5Ev18le586wbAsXv/ztUqpjYtfLy12j2MF8fbq+ycv1bfcglUKaOz6loXQ7hzgAZgxPWgGA4pzlJXPksdX2bCrrnuEwsvboABuEssHNL8nddRqvL4DdTx8pYLaoa3VLkPYKsGoAabgFZriyWhpCsfo4bDqr0QSA17bfm7jwdU+W/8Viwc2Eaa6RTAr8WKcV5ePe6mjh8xYdf+lIc6Xt0AA/B99dj8y97afwdAVWvQYuGFrRbUxMOLqryedjAG4DB1/LGq8/9Z3K/lEoqHfaq8FGiV+pbLA2sWj6zyu79eLOzB9N9UBmC9Oq4TC7sVYICxT5Wzf9TmdUIDDMDlJc+bf9k7tVjtaOumrY22mjOoxeeo46GCG4Bl2uQXgGymc+6lHqq9HvWgOhuAqzWLnUz/TXcPwBp1fF1sy0tENAA0AFvR+YnlY1sh0b2uyoa4QQ17tmhQe7CuBsDD29XxRDXnUFsxoYhB1XF9PQ2AWDilyv/+lZrlc9pIsxmA/iujDeWSxbkjVbRMDfv271Vhwq6DTtrae62BATi3VUa61RqA69XQklOhVY7OB2MATqYBGDA4Jur4bpXf5SFbOvalhnOq/O+Xk2z03v/f5AbgyTP0XanFmSNxPFAch/Xf4MmEXfsLn+JZJd9yTQAagNoZgB8M5twlDQANQEMNgOHFSdfmRwE1MAAXJFnewfTfUAOwocblgZeJ4UPpwji58bElvEIdDzNh10PxLMloALgEUAWJ5VOrrAlAAzCyMwAHbWUE9vFqK4BJlk9j+m+IAVinjt+o45IqN+YOpKAW3j0CBuDQJpw1aRadnGT5OBoAGoAqpujqvwdADK+tcqNhaxoAD7ur49b6GoB4fJX//as0y+cy/dfdAPSIoVssHqhZPlsdZ1R5dfaAfbXRdzpwE2DdtFQ9HDWIGEMD0N8Q8TlVNsRt4ti3BYPasxtwCuDwKtcBlyeWz29BA9AMpwC+IY4FTP/1MwBi+Jt6fIMYZj9ZvEcsTBXHp2r8b21Sx+/U0LCqejQAddNPxMJ/0QAMfp272nsAHlDf+s1LTTgNfWyV0/P3b+1+hNrcA5D/d0stvXTlbWI4QKyqUd4mdRy4FQNwRA2Ovz6X6b/mBmBT5Y77q9NFcVcdYJ9F6pgk/UtEG2uYODaq4xdi4b/F639lsBr+Wx2/ZMKuqZaL4TSxMI4GYPAGIFHH6iqP1LwuyfIxrRTUxHG6OnqraJe7Ncu3uDkydeyvjt9Ws5NZDe9ppXYvLYxjxfDqKmt0/1E9PHuLbZ/FZ1cZAP4ojhe3kVoagFX9a/3x+K2VuBXHNHF8tcpbTAfSz8Sxd2L1LRcsFp5VqTfCxF0brRDH4sTy6YOcZaQBqDTEHPVQVeU7cXw0dUxqlYCWdOVj1fDFKoPL7UmWT9liEMjy+eq4oZpd0WLhi61lvMJkcZxX5QmAX27tZIo6pqtjRTXFQNTwxiRrgctARt4AbKzc/Og6yPKqSVfeLoa91fFTdaytaelgw5dTi7vW0wSo59PVcTkTd030uDiWDOVmThqAfzvRGWpVVaTrU8c14miZW9HSMuap4xdVBrTrthrEsnxbdXyvynXS2xPLt2+hpZfpatVVp1THVWrYaSsGYKo67qny3zkvdexAA1C1AYjqeG9i+ZDasmICDqj01Y01NgEXp+U4u153BCRd+bj+stVM4MOd7lfH/f0XhoWTExvatbw0AP8OuFPUUK5yBuABMeyzpXPXTWaKXtm/t6GaS0ZCeZBLMBdXOdPwcGo4rHVmAOIe6sir7Jxd4pi2lQCwXbXmq7LhqCXvwGiwAXhIs3xYJ4mSLB+fejxS+otq1dIE9KjhC6WLYt1mNrV/mbGaWah16liijveOQr1FHEeKh92Gs2eDBuDf69ATxPGOai/oEMOpYmFCC0z/d2j/FPSaqjbnGU4dXMLDh6pMeCvF8dmWMQCGj9UgeP//9q40zK6q2HbSnXSHhCYJGRAScu6pIgkEEBLBBA1hMDxEhDCKYgQEnBAHHk7IAwmTKNCQvrUOqDigAoo+lEFkkllBfD4QBGUQkUHEvfaRISQE0vHHOY0RIem+d9+x7/2+8yP8oPfZp3btVVWrVh2l6xDpEbguBZeU+XeeFeN/9TPUWwCg+gCgra2tLbK0S+D3L3OA1OuTyuCOraCtH1hmq/HLajyrrfUrAXy1AEA/gh4mxp0V/EeZxKubFK7h06ExuIWC15VpHKnCv22A2Ybdy1QE61PwRoHT5sgAlE0me1Lh3rXO79zL4WIstxVwtRhPEnOjh7QzrTEAyNfQKeaOzImEIUHAU2I8ojK27rYNoHdxd2TpJq0rvQUAynG6mwdoSVkVm9+9oS//pb5LjJ8qk/2/WsEnNBlYVBgl6UQFfxdA/OLjA/2bdZp5GSbm3pfLvVZcmCrqSdsU3ErBR8ssfz0l4HQx1wIANQQAOZhuj8FPlJm9e73nUTUeNJD2ssH8Cuf4UQpeVqa8sRfwk81Sfm0BgJqkXd0kBVH+EAZeFVljjqfNLiDODjOhy104yFTgDwJcfD/TxM9oWBvs9ZuKlU3KW51xKgbWCiTgNEHZBNjVAvaIuSHrgOsFAOTftEvApQFA/GufewTuXYKwZU4FTy2TB7BKjFfGvb41mbIFAEouA4xQ8Kgy9QAy8huqK6kZLPovcrQYPxeipSgG9x+k0zoywN47BT+kSTqyAcFXuxi/GEDi9XkFj4160o6B7bsbLZm07CtlAgDGoA5ZZ1pHACA/TxMFTCpQDrgtNs6PLO0IuNZ9Asw3eFqMR0eWdra1fi0AUKIh7qTgvQFUvG4Sc4UGA0DDBH4bBf8QwEm4OPEbDdKBbhyIwHSDYGB91HVle0VuLcY7Akx6+62sQwL4dex+NwUfD8AF+Hq0jglkLQBQHQCQtwfOUvCSwCDgZTFeGZufE0ojILJ0nGRZx3Jt/2YBt21d7S0AUFoEbJyo4LcCyTGeEvU0TiSqxk61YKIc31Jw0O+elwHK/dsrBDxVjN0NdHmMz/uhny+XgyLgxQK3wSABwPRAimzPKNxhLQBQewDwKgiA31bAawOU117LvL807h0cyF/H2T8rgKLhCwqeLObGta73FgAoETW7j2aEsrKzAA8r3H4NE4Eaj1VwWaABJnvEvRx0dBCbXxRqvKnAHVgNPfMA0c8YMR6t4F8DvDcFPGbwmS/XKcbjAkSKqxT8VQy+Zcg50zoEAHlmryOGf7uAdwXWCHhRjd+LetYuVzzQX8H8DmXyAPp9z2Ox+f0ja7wyYAsA1MWm+JkK3hxosMYv1DinnslRmqTDYnCRgn8LcvmDtwo4rRT1MAE3VLi7A4GQxwvwUaVUzII4vXN8uxS5hxofCpD+XK3g/xUSP7XEDNAumgnJlB8dgpcJnEaWDh1nWqcAIAeZ7Zr4+RXQCFgucKeKcXiANXYo3A0hBikJ+GBc9FsXzqnvroDI0rYYfpjCtStcR/8TG4dHSVqFu64FAN5oYz4TQImt/7lczG0t5obXoQF2CPyOCj4UziFwcbQOAZq1ONEOhV8cTNfceJv0eqlHkRoxDhO4uYEu3UwMydxxZWS/OiUrQywPsJaVYvxGwfy0Sg+UKcf2Y2O3GCcr3FSF20Thx0pv2llKO1k9A4B/2ZzbTcGnA4OA58T4JbXy56Bo4ncOZH+r1fhI3Os3q1vwb75LwBkCf6SClyrcnf2PGE+I4eeKcWwlWxtbAOCND8pWuWPuC3RILstBQN0gUk3Sztj8jmK8JWBq8DoBNy/TKAuZoFKwWuXPpcit6wkERD1phxjnKHhHQEf8oCaplLX3mab8vYHs/iUxJgXzhcjSerL7kQqKgAcKeKYYf6Zw9yjc7QpCzH9YjHM0Yecg/791DwBy3/aeACXO/9T8MH5MzI0p8+yPVrgrQq1LjD8WuBlRT30NqxJzk2LjRxTuwbVqGxjPlqKfUalhWy0AsPYIbUlgMY3L4wGIs1TJANfTLO1/e0By0LMKfk6TtKxIQOBGKdzHA/Ywr1Dj5WLcvtTMROjLX4vcq8xBS6/3fCnA2kbm/ePLA63pJTGeL0jj+sjscYyCByl4xVpUP1cqeJcaPxYv9QO+0BoGAICjBTw+EOdkzecBBd+jSdpVxtlvV/CAAK2wa37Lq6TIHesFBIi5TRT8itiAVGdfEPCS2LhlJTIBLQCwdmOcGjA9218fv1rg9qxld4AYR+dKf/cGfLdVAl4dG2cFclLTcycdrlZpvEGM+wjcerXa+8jSbjEeqcb7AxOy7tUknRZk74vcVox/DLi2lxT8oSacV8vzHPdyA4U7YRADrrwav9hsACA/X+Nz8Z3nA4OAX8fm3xFZ6UBbwI0U/H7IqYZq/GVs3LeWAm1rZP2SQUrOrxDjUjFODL2mFgBYtzEeKOGioX5i4O8FPFaTdFLVjTBJN1S4sypQB3xCwA9GSRhxkMjSEWJ8v4KPBVzjKwo+qOAX4qV+w6pfQMZNxbhEspkHfQHfa4UYD44DELFedVTwHw5sH6sU/JXCHVoLnQBNUhHwghJ4PX8T46JmAwB5ILCpgueHYN6/ZiDanTH8tlFSWsQaWdouxt3yjEJI+3tIweM14YQa+N2RYtxdjdeX2Gn1d4HfNQosc94CAOty2vDdGqY3/bUtgl7By6TIedVITUU9aVee+rwj8IHvj/C+rYH77uNev6GA3wncv7xawVTAawRu+ypdPp0C/x4B78zLGn2Bs0oXinFSyG4HTdIxYu6OCoCApwS8QBNuWaWoq1PB/XK7X1HiWb01StLxzQYAop50mBT9FAF/EviMrVLj9fG5pYPsuNevL+DpAXQB/mO8sYA3a+IXVA98slvBJZJ1+rxcBp/hPAlAtGwBgMFskLFNwVk5Gu0L7RDFSAW/JkU/S8H1QiG8qCdtK/T69rjoxwm4l4A35Bd/6HdYreB9BUs3q4CDWnNSWF8FLiOncOdr4mcr3Oi4yPZQl6gmabsYRxfMz1W4W/Kael8FgOR9CjcvNLm0kPi2GH4nCU8W68/EPCng6QJOi42jgtl9krbFie+QIscJuIeAP8/T3OXs/RMxuFezAYBX/YSlIuD1lQABhaV+Yhlnf4aCVwUulfWfm+cF7mux+W0UbozABQ3CBG6Ewq0vcPtIlnkIAGTc3YqwAkctADAwpzIizqKIJyrgDPvR3XMKni/wC8WoBfNjIxt8ZiBK0hECN17gpotxXwEvrcBAkH9LTcXgHhVOVe4XQqZ2bWlehbtQjPuJcYYW07GlZGUUabvCbyjgDIXfV8BvhxJWekPtc/ADA9X8L8GJjVLw6Eraj4DPiPEMAXcTuGkx2F0KGIiStEPgxgmcCnhwzh8JReB9QeFOaUYAsEbafVMF/z/w910hxl4xTirdBrmXgvdXKHBZndXi3Y8k8+8am+8uVbtCi2mHmp8kxpkCHq5w1wRrZ/7XM6kFAGrCBXDjFDwxoDbA2tS1bpeMJfoBhVuoCbcUuGmKdFKMdMPI0pFRknYp0gmKdLKajzThnMyJ8nAFzxa4uyq8zpxY506qSiYm2/uVFX6fFWK8U81/RY2L1biLgLM18Zsq0kmKdFKUpKMU6cj+f8fGgiacpXC7KniYgr25I11e4bU+q+CXdQCp6TLB18Y5aWlZhd/nOYG7WsAlAr5X4HbShFv1270gnRBZ2hlZOkaQTlSkkwVONOFsARdKtvdnCtwvK7C2l9R4XjMDgOxbu50CjOT+DzsV8CsxSqu7Rz3pSM1GG7sK29/zCv5SslT9fgo3X+Gnq6VvkmI65rUM/CzQSscJOFXBrfPzf3g2hZP3lZPqbwGAegUBxljBiyuA6tZWW/+LZun7SxT8eu6MT9GsPna+gt9Q8If5+N7Hq7i2lWL8ftzrJ1Zj76Mk7ZZsD1ZXce8fydsk+/f+6wp+Od///n//SMHrBsEsDwK8FPy+GjerDvhyW+YR9coqvd8LOWHrFwr+IN/n83LW+pm5k70gnyF/e35GKmn3ryj43SEAAIaLub0V/HPg/XtSwP8Wc+NLPPtjBOyp4vlalmcdrshnmpypWdvkcWs8JylYVPAiBW9S8NEqrOuvirAExhYAGDwnYDvN6mUvV9Eg6+1ZKeAlMfysaqq8KfwWCl49hPc95y64GwRh2i0HGIW1x+Z3qYCWfKM8yxTuq80OAPKU+2gBP1KBC+0xBT+oSWlzAwRukzzQGcpn/zI1rt8CALXkA2QjNrfJI4++IWqIt4hxbikchTIjlHYxt/0QBwF/EOPsGtSIO2P4hVIZMmy9P08L+L6hAAByELC+gp8fZK/6QPgeD8bm94ysNM6KmJuZdywMybMv4BEx/IgWAKg9CBgWm58nlecD1OPzazG3QMx11MQ5mWtX4wLNWuqG2t4/IkVuVytJ48jSjnxi23NDaM/7BLyrkPgpQwUAtLW1tUnRj1fwq4G/dZ+AD8TF0vT5Y3C4gG/VLBM11M7+jWKcHnpAUAsAlPErmH+7gA8PkXLAKgVvF3N1MeZVjDvnUrorh8Dev6Lgb6TI2ZUcDDJgp5GkO0rGjxgKmYBn1fjeAe5L0wCAPNDpkox/8WLgSPaqcgTDBNw+r7sPlbP/BzHuUQm9mHoAAJK1S24iYEHBSMHJMXxXNaYhlktMaxf4uTkn4KUmN8Jrxdx29UXKdFvnfcKvNPHeL8vRf91omUeWDo/hdxbw7ibnBCxT8PxBAKOmAgD5t36TgN8N/J1fieFnl3dpcH5O0nuxyf3uPQIujqwy6pm1BABRT9qucFsp3CkC93PJ9F5uUvASAT+hCWc2CifgrQr+b4X77WsWAQl4SWTp1Hrc/3xq40VNGg08p5nK35x6m2YWWToyhn9H3qGyvAn3/kkFi3GvHz+UAUD+rTdS8OawQjzr1lUYwNnfLO8GeaEJ7W+lgreqcf+op3IDzGoFAKKetEOKXJjb1aUK91E1LlTjLvmcmtsVvEKtOoqh5YKAdjFurtkUtX80kRE+pcYvx/BT6zkdU7B0Y8n6730T7T0VPF2NWufg9y0Kfq/JwO/9Ah4dF/3EwZRcmhUA5Jft3BzsheECGK8NQ1h0UwU8TcFnmozwd5GA8yp5+dcSAGiRW6rxegG/pUm6rRoPUbiPKNxiMc4WcKe8tf3iWswOKW0zjZsI/OFiwftoq556kozsd2hc5IR6qDuvoxQzLIafqFn70v1N4ACeiMHFAjeh3m0+6kmHC1gQ8DgJP1622s9LCt6o8HvH4KCdTpMDgHYBFwYc0PP7gAHAeDEeEXi6aa2eFQp/TgwWqnJnlQcAVojxf0rkcH02F52aI/Dz8lLHaQouFXPXCPyb40wF8ikxvqutUX6RpZ1xkfMkq2U0ogG+qODFsfm5Yq6rrYF+Yhyl8PPzVqEVDbr/Vyk4L0pqNy66xAuiO4bfWeF+16D7/rwYz5Cin6El7n0zA4C87t4p4IGK8kdFi/G2gCC0LS76LgHnSSbM1ajlwN+JcbHAb6hVyriKuZ+WsV6ncB8r4ZxMVvASNf5YjZMk8bso+EdJ/M5iPEDN3Rsnfqc4SbszUOe+1Ei+sK1wrh+m8BME/tNq/EuDGORLAv4pBg9RuFHVFPgJimiTdHi81I8X48dzRbOXGyTyfCDv8x2vxmGNuPdRkg5XuMkCnixZSrbe974vj2Ie0CRdIMbOcrJdhXPT0XnastTuiHs1qS+ux+uAgI480/Z0Ge/ZJ+Z6w6/NDY97/Vgx94lcxbMRiNmvKPh3MZ4vcJvHFm4g2QCz1kvKWPufBNy/BB89JefMnSvmxuYA4Dk13qTGu8V4fAHcQOE6Fe5OAb/X1qg/NW6Vt9I8VKdR6TIFHxLj6aVO7qrjC2mSwl2Qy/Qur890H+8X41kCJ02z7z1puxRf5QY8XodAoC8nt96txhNCqquJuc+VyExfVa25GgG+70gFP5UN0SpxhkiFR3FrkqrCnZEHAfUagD0j4E/U+M6oJ+2sxbeMzW9f4pyPPgWvE7i4hCz5OAEvVONla2QAHhHwUAXPzoiBfosYfn21BswAvO6BMS6QTMf/njq4jPpyhvldAp4dw8+JksqSTWqYERihiV+goCn4mzphDD+r4N3ZpDQ3p61Jf1GSjhbw3TkQuK8OgECfghTwZgFPlCJnhu6u0CQtlFgGeFCTVBvIp3UKeEY+RGew6f/Lq1ia2l2M387rzcvqJOJ/TMGfCfjRqCcdVVP/CDcmn28z2FZqL8ZjysgkfUaNf1RwB4Gfr+CtAm6dt3feLPC7xeCihuMArOvQxOBOYjxZwWvzVqNq97A/quBlAn5ejNtFSdrVNgR+kaXrxeBcAU+UrH/4ySrv+8v5wb9CwS+Iufm1UlOsARBYX4275hfGTQr+vQaO9yEFLxXjUTG4RaVGKOeXzmF5F8dgnOn7G/BMTZBsUM6g6twKX1U9EYFbT+F2VnBJPrirnPJFOZnWuwQ8T40HSe/gOkwq+A2H56q2g1FWXSngBZqkk0sGHkVuqeD1Yrw4Ni5QuANi8xMKxXScwr07n2p7p4IXNUwXwCAMslPAWQLuL5nc5g1iJafTBsLof0LAawQ8UcztKeak0u0ldXwZdcXgZgruo+DJ+cS5SrYQPZXPLjhVjHvG5jeLrLEIfgEvxk4xt40YD8plZm+RyrXNrsxVOn+qxhMFfKfATavGexaW+lEKHjNAkPmYGj+vxvUa8ZsWLJ2Y9+IPpN5+mxr3UmNN7D+ydD0xbinGfRU8V8HbqiBr/XsBv6PGI8TcvFInIlb4XHYJ3Lvz/RhIQPrNGOW1J0c9aYcY36HgHQpeqcZPa8I9FdxHwM/kXJrL1bhF815GPelwKbrxAk4X4w4CHi7GYq4s+ETp2QH3YH7hnyXw7xNwrpjbrFD0o+u9pa+KQKAtrzHNUHAHhf+AgkUxd2MZk9BW5dHFtWrsFeMhCu4gRhW4sa1d/ze7HyfmNhdwvsAfJeA3Fbwl379Sne3DYvypgD0Cf7AY3yJgIe5lVe0+6knbpMgxCreXGK94g9TzcjFeK+b2iYvsribxK3DJY5gkfoqAx66lRTBV8AIxvlXM1QX4FbgJYtxCwIUCfkqM38wvneVlgU7jw2q8Mh9dvUjMbRuDG9ebkNfrBaUxuF2up/JG2as/C3iMmJsS6Jy0K/hmMXeWmPuFZC3cv5WsPPJJNU4fUhdSAX6kmNtAjJMEnKpgQRO/tyZ+sYCnqfHcN3iWaOLfq/C7qnG6ZrrKE2Nw/VInbw21nybpCDV2i7lJCk4RcKYkfncFD1XjSWvZ+xMU/hBN/AGa9cNvqnATxVx33MsRjerYqxyZdcbgWAEnK7ipGGcp/CJN/MFr2fdzBDwut/uFYpyhcFPEOCEGuyOrfYZLzHWIcUJsfq4aj19j7SfF5t8mxolibkQT+K5hMfwoMRbEuLcaT8nf82wx9yEpcqaAY+uxsyhbO7vEOFbhNlIwiuEXKPz7Ffxs/zcT8CKFu13h7lC4a9b476cr/GGvnn/jFDE3QeHHaNJYnVRRkg4XcAMp+s0F7rA17PU0MS4SYyEGg2v0i7luMfemfBbANAE3qvYsgH8ClnGpVvtgCJYAAAAldEVYdGRhdGU6Y3JlYXRlADIwMjItMTItMDZUMDU6MTU6NTYrMDA6MDBxNmfoAAAAJXRFWHRkYXRlOm1vZGlmeQAyMDIyLTEyLTA2VDA1OjE1OjU2KzAwOjAwAGvfVAAAAABJRU5ErkJggg==;fillColor=#182E3E;strokeColor=#FFFFFF;fontColor=#FFFFFF;" parent="1" vertex="1">
          <mxGeometry x="314" y="-25" width="44.42" height="38" as="geometry" />
        </mxCell>
        <mxCell id="zvgNvQxq_wlNGf-tIKfd-43" value="" style="rounded=1;whiteSpace=wrap;html=1;labelBackgroundColor=none;fillColor=#182E3E;strokeColor=#FFFFFF;fontColor=#FFFFFF;" parent="1" vertex="1">
          <mxGeometry x="318.59000000000003" y="25" width="149" height="27" as="geometry" />
        </mxCell>
        <mxCell id="f5ZKmu7FJWozqvkBw2zf-5" style="edgeStyle=orthogonalEdgeStyle;rounded=0;orthogonalLoop=1;jettySize=auto;html=1;entryX=0.5;entryY=0;entryDx=0;entryDy=0;jumpSize=6;strokeWidth=5;fillColor=#60a917;strokeColor=#2D7600;" edge="1" parent="1" source="zvgNvQxq_wlNGf-tIKfd-50" target="MT3VQ3Qza3Scs-Q398Xu-85">
          <mxGeometry relative="1" as="geometry" />
        </mxCell>
        <mxCell id="zvgNvQxq_wlNGf-tIKfd-50" value="" style="rounded=1;whiteSpace=wrap;html=1;labelBackgroundColor=none;fillColor=#182E3E;strokeColor=#FFFFFF;fontColor=#FFFFFF;" parent="1" vertex="1">
          <mxGeometry x="133" y="138" width="130" height="27" as="geometry" />
        </mxCell>
        <mxCell id="zvgNvQxq_wlNGf-tIKfd-44" value="&lt;font style=&quot;font-size: 16px;&quot;&gt;DB Containers &lt;/font&gt;" style="text;html=1;align=center;verticalAlign=middle;resizable=0;points=[];autosize=1;strokeColor=none;fillColor=none;rotation=0;labelBackgroundColor=none;fontColor=#FFFFFF;" parent="1" vertex="1">
          <mxGeometry x="336.86" y="22" width="122" height="31" as="geometry" />
        </mxCell>
        <mxCell id="zvgNvQxq_wlNGf-tIKfd-47" value="" style="rounded=1;whiteSpace=wrap;html=1;labelBackgroundColor=none;fillColor=#182E3E;strokeColor=#FFFFFF;fontColor=#FFFFFF;" parent="1" vertex="1">
          <mxGeometry x="318.59000000000003" y="68" width="149" height="27" as="geometry" />
        </mxCell>
        <mxCell id="zvgNvQxq_wlNGf-tIKfd-46" value="&lt;font style=&quot;font-size: 16px;&quot;&gt;Tomcat container&lt;/font&gt;" style="text;html=1;align=center;verticalAlign=middle;resizable=0;points=[];autosize=1;strokeColor=none;fillColor=none;rotation=0;labelBackgroundColor=none;fontColor=#FFFFFF;" parent="1" vertex="1">
          <mxGeometry x="323.59000000000003" y="66.5" width="140" height="31" as="geometry" />
        </mxCell>
        <mxCell id="zvgNvQxq_wlNGf-tIKfd-41" value="&lt;font style=&quot;font-size: 16px;&quot;&gt;Build Prod &lt;/font&gt;" style="text;html=1;align=center;verticalAlign=middle;resizable=0;points=[];autosize=1;strokeColor=none;fillColor=none;rotation=0;labelBackgroundColor=none;fontColor=#FFFFFF;" parent="1" vertex="1">
          <mxGeometry x="159.47" y="136" width="92" height="31" as="geometry" />
        </mxCell>
        <mxCell id="f5ZKmu7FJWozqvkBw2zf-4" value="" style="edgeStyle=orthogonalEdgeStyle;rounded=0;orthogonalLoop=1;jettySize=auto;html=1;exitX=1;exitY=0.5;exitDx=0;exitDy=0;entryX=0.5;entryY=1;entryDx=0;entryDy=0;labelBackgroundColor=none;strokeColor=#2D7600;fontColor=default;fillColor=#60a917;strokeWidth=5;" edge="1" parent="1" source="zvgNvQxq_wlNGf-tIKfd-17" target="zvgNvQxq_wlNGf-tIKfd-51">
          <mxGeometry relative="1" as="geometry">
            <mxPoint x="960.3899999999999" y="556" as="targetPoint" />
            <mxPoint x="581" y="640" as="sourcePoint" />
          </mxGeometry>
        </mxCell>
        <mxCell id="f5ZKmu7FJWozqvkBw2zf-9" value="&lt;font style=&quot;font-size: 14px;&quot;&gt;Use data&lt;/font&gt;" style="text;html=1;align=center;verticalAlign=middle;resizable=0;points=[];autosize=1;strokeColor=none;fillColor=none;rotation=0;labelBackgroundColor=none;fontColor=#FFFFFF;" vertex="1" parent="1">
          <mxGeometry x="718" y="430.25" width="74" height="29" as="geometry" />
        </mxCell>
      </root>
    </mxGraphModel>
  </diagram>
</mxfile>
